<svg id="Layer_1" height="512" viewBox="0 0 64 64" width="512" xmlns="http://www.w3.org/2000/svg"><g><circle cx="8.5" cy="54.499" fill="#896148" r="2.5"/><circle cx="55.5" cy="53.499" fill="#896148" r="2.5"/><path d="m63 31.999c-3 0-5.64-1.7-6.6-4.25-.42-1.13-1.17-2.07-2.11-2.72-.95-.66-2.09-1.03-3.29-1.03s-2.34-.37-3.29-1.03c-.94-.65-1.69-1.59-2.11-2.72-.96-2.55-3.41-4.25-6.14-4.25h-14.92c-2.73 0-5.18 1.7-6.14 4.25-.42 1.13-1.17 2.07-2.11 2.72-.95.66-2.09 1.03-3.29 1.03s-2.34.37-3.29 1.03c-.94.65-1.69 1.59-2.11 2.72-.48 1.27-1.38 2.34-2.54 3.08-1.15.75-2.56 1.17-4.06 1.17h-1v32h64v-32zm-54.5 25c-1.38 0-2.5-1.12-2.5-2.5s1.12-2.5 2.5-2.5 2.5 1.12 2.5 2.5-1.12 2.5-2.5 2.5zm39.88-14.95c-.62 2.21-1.7 4.03-2.87 5.35-2.28 2.57-3.51 4.46-4.11 6.25-.52 1.58-.53 3.22-.34 5.03 0 .72-.58 1.32-1.31 1.32-.42 0-.82-.19-1.06-.53-1.38-1.96-1.85-4-1.77-5.92.07-2.03.76-3.92 1.62-5.39.51-.88 1.08-1.62 1.62-2.15 3.23-3.23 3.17-6.94 1.13-9.33-.48 1.87-1.58 3.57-3.27 4.72-1.71 1.17-3.75 1.79-5.88 1.77-1.27-.01-2.39.75-2.83 1.94-.73 1.99-2.02 3.67-3.73 4.86-2.01 1.38-4.43 1.73-6.71 1.16-2.07-.51-4.2-1.57-5.55-3.51-1.54-2.22-2.2-4.53-1.57-7.73 1.08-4.26 4.21-8.65 8.36-11.42 4.16-2.77 9.5-4.88 13.98-3.59 2.04.5 3.43 1.38 4.7 2.8 3.57-.48 7.48.85 9.08 4.79 1.31 3.61 1.26 6.88.51 9.58zm7.12 13.95c-1.38 0-2.5-1.12-2.5-2.5s1.12-2.5 2.5-2.5 2.5 1.12 2.5 2.5-1.12 2.5-2.5 2.5z" fill="#9b7868"/><path d="m47.87 32.469c-1.6-3.94-5.51-5.27-9.08-4.79.49.53.96 1.15 1.44 1.84 1.59 2.29 1.67 4.73 1.06 7.16 2.04 2.39 2.1 6.1-1.13 9.33-.54.53-1.11 1.27-1.62 2.15-.86 1.47-1.55 3.36-1.62 5.39-.08 1.92.39 3.96 1.77 5.92.24.34.64.53 1.06.53.73 0 1.31-.6 1.31-1.32-.19-1.81-.18-3.45.34-5.03.6-1.79 1.83-3.68 4.11-6.25 1.17-1.32 2.25-3.14 2.87-5.35.75-2.7.8-5.97-.51-9.58z" fill="#7fc94f"/><path d="m38.79 27.679c.49.53.96 1.15 1.44 1.84 1.59 2.29 1.67 4.73 1.06 7.16-.48 1.87-1.58 3.57-3.27 4.72-1.71 1.17-3.75 1.79-5.88 1.77-1.27-.01-2.39.75-2.83 1.94-.73 1.99-2.02 3.67-3.73 4.86-2.01 1.38-4.43 1.73-6.71 1.16-2.07-.51-4.2-1.57-5.55-3.51-1.54-2.22-2.2-4.53-1.57-7.73 1.08-4.26 4.21-8.65 8.36-11.42 4.16-2.77 9.5-4.88 13.98-3.59 2.04.5 3.43 1.38 4.7 2.8zm-17.79 8.32c0-.55-.45-1-1-1s-1 .45-1 1 .45 1 1 1 1-.45 1-1z" fill="#d6966b"/></g><g fill="#252525"><circle cx="20" cy="35.999" r="1"/><circle cx="57.5" cy="38.499" r="1.5"/><circle cx="23.5" cy="57.499" r="1.5"/><circle cx="5.5" cy="39.499" r="1.5"/><path d="m63 30.999c-2.577 0-4.853-1.447-5.663-3.599-.485-1.304-1.342-2.408-2.477-3.192-1.139-.791-2.474-1.209-3.861-1.209-.977 0-1.917-.295-2.722-.853-.798-.552-1.4-1.328-1.742-2.25-1.103-2.93-3.947-4.897-7.076-4.897h-14.92c-3.129 0-5.973 1.968-7.078 4.901-.341.918-.943 1.694-1.743 2.247-.802.557-1.742.852-2.719.852-1.387 0-2.722.418-3.858 1.208-1.137.785-1.994 1.89-2.477 3.188-.399 1.055-1.14 1.951-2.151 2.596-1.01.659-2.226 1.008-3.514 1.008-.551 0-.999.448-.999 1s.448 1 1 1c1.677 0 3.27-.461 4.598-1.327 1.369-.873 2.385-2.107 2.939-3.574.341-.918.943-1.694 1.743-2.247.802-.557 1.742-.852 2.719-.852 1.387 0 2.722-.418 3.858-1.208 1.137-.785 1.994-1.89 2.478-3.189.811-2.155 2.902-3.603 5.204-3.603h14.92c2.302 0 4.393 1.447 5.203 3.599.485 1.304 1.342 2.408 2.477 3.192 1.139.791 2.474 1.209 3.861 1.209.977 0 1.917.295 2.722.853.798.552 1.4 1.328 1.742 2.25 1.103 2.93 4.131 4.897 7.536 4.897.552 0 1-.447 1-1s-.448-1-1-1z"/><path d="m8.5 50.999c-1.93 0-3.5 1.57-3.5 3.5 0 .553.448 1 1 1s1-.447 1-1c0-.827.673-1.5 1.5-1.5s1.5.673 1.5 1.5-.673 1.5-1.5 1.5c-.552 0-1 .447-1 1s.448 1 1 1c1.93 0 3.5-1.57 3.5-3.5s-1.57-3.5-3.5-3.5z"/><path d="m55.5 49.999c-1.93 0-3.5 1.57-3.5 3.5s1.57 3.5 3.5 3.5c.552 0 1-.447 1-1s-.448-1-1-1c-.827 0-1.5-.673-1.5-1.5s.673-1.5 1.5-1.5 1.5.673 1.5 1.5c0 .553.448 1 1 1s1-.447 1-1c0-1.93-1.57-3.5-3.5-3.5z"/><path d="m34.576 29.713c-.057-.034-1.42-.844-3.356-.844-5.277 0-8.722 3.793-8.866 3.954-.367.412-.331 1.041.079 1.409.529.582 1.214.144 1.412-.075.029-.033 3.014-3.288 7.375-3.288 1.356 0 2.319.554 2.323.557.473.285 1.087.133 1.373-.34s.134-1.087-.339-1.373z"/><path d="m42.06 58.679c-.118-1.123-.164-2.386-.013-3.395l1.868 1.247c.17.113.96.392 1.387-.276.307-.46.183-1.081-.276-1.388l-2.403-1.605c.56-1.293 1.512-2.711 2.978-4.44l2.503 2.242c.191.171.93.445 1.412-.078.374-.406.333-1.043-.078-1.412l-2.55-2.284c.709-.932 1.485-2.201 2.082-3.829 0 0 2.88 1.398 3.03 1.398.367 0 .72-.202.896-.553.247-.494.047-1.095-.447-1.342l-2.915-1.458c.659-3.006.42-6.231-.736-9.414-1.523-3.75-5.263-5.847-9.62-5.456-1.356-1.39-2.868-2.243-4.81-2.719-5.604-1.613-11.685 1.638-14.812 3.719-4.254 2.841-7.617 7.441-8.786 12.059-.637 3.233-.103 5.853 1.73 8.495 1.667 2.394 4.254 3.447 6.128 3.908.79.198 1.581.296 2.361.296 1.84 0 3.618-.545 5.162-1.604 1.88-1.308 3.256-3.169 4.097-5.334.511-1.316 1.877-1.287 1.882-1.287 2.295.005 4.562-.649 6.452-1.943 1.212-.825 2.191-1.945 2.878-3.249.681 1.999-.005 4.322-2.001 6.318-.515.506-1.018 1.147-1.476 1.864h-3.204c-.552 0-1 .447-1 1s.448 1 1 1h2.143c-.436 1.017-.813 2.253-.949 3.651l-2.58.861c-.524.174-.828.748-.632 1.265.326.862 1.16.667 1.265.632l1.936-.646c.165 1.827.8 3.546 1.911 5.124.422.597 1.123.953 1.876.953 1.274 0 2.31-1.041 2.31-2.32zm-9.819-16.51c-1.693 0-3.286 1.016-3.87 2.596-.659 1.796-1.821 3.312-3.357 4.38-1.715 1.177-3.812 1.535-5.905 1.014-1.544-.38-3.659-1.229-4.968-3.109-1.519-2.188-1.941-4.272-1.422-6.914 1.041-4.105 4.086-8.257 7.945-10.834 3.729-2.481 7.435-3.8 10.571-3.8.927 0 1.803.115 2.616.35 1.761.431 3.015 1.178 4.204 2.507.409.442.839.993 1.354 1.731 1.254 1.808 1.544 3.823.912 6.345-.44 1.712-1.457 3.182-2.865 4.141-1.527 1.045-3.327 1.595-5.214 1.595zm8.57-13.558c2.434.167 4.95 1.322 6.119 4.198 1.104 3.042 1.271 6.144.487 8.969-.666 2.373-1.812 4.006-2.655 4.957-2.364 2.665-3.653 4.638-4.312 6.602-.634 1.925-.564 3.683-.39 5.342 0 .284-.432.387-.552.215-1.134-1.61-1.668-3.395-1.588-5.311 0-.019.005-.039.006-.058 0-.013.005-.025.004-.039.073-1.605.591-3.313 1.476-4.826.441-.761.958-1.449 1.462-1.944 3.648-3.647 3.396-7.701 1.495-10.286.611-2.865.198-5.659-1.551-7.818z"/></g></svg>