<?xml version="1.0" encoding="iso-8859-1"?>
<!-- Generator: Adobe Illustrator 19.0.0, SVG Export Plug-In . SVG Version: 6.00 Build 0)  -->
<svg version="1.1" id="Capa_1" xmlns="http://www.w3.org/2000/svg" xmlns:xlink="http://www.w3.org/1999/xlink" x="0px" y="0px"
	 viewBox="0 0 512 512" style="enable-background:new 0 0 512 512;" xml:space="preserve">
<g>
	<g>
		<path d="M256,0C114.497,0,0,114.507,0,256c0,141.503,114.508,256,256,256c141.503,0,256-114.507,256-256
			C512,114.497,397.492,0,256,0z M256,482C131.078,482,30,380.91,30,256C30,131.078,131.09,30,256,30c124.922,0,226,101.09,226,226
			C482,380.922,380.91,482,256,482z"/>
	</g>
</g>
<g>
	<g>
		<path d="M136,211c-24.813,0-45,20.187-45,45s20.187,45,45,45s45-20.187,45-45S160.813,211,136,211z M136,271
			c-8.271,0-15-6.729-15-15s6.729-15,15-15s15,6.729,15,15S144.271,271,136,271z"/>
	</g>
</g>
<g>
	<g>
		<path d="M376,211c-24.813,0-45,20.187-45,45s20.187,45,45,45s45-20.187,45-45S400.813,211,376,211z M376,271
			c-8.271,0-15-6.729-15-15s6.729-15,15-15s15,6.729,15,15S384.271,271,376,271z"/>
	</g>
</g>
<g>
	<g>
		<circle cx="347.92" cy="347.92" r="20"/>
	</g>
</g>
<g>
	<g>
		<circle cx="164.08" cy="164.08" r="20"/>
	</g>
</g>
<g>
	<g>
		<circle cx="347.92" cy="164.08" r="20"/>
	</g>
</g>
<g>
	<g>
		<circle cx="164.08" cy="347.92" r="20"/>
	</g>
</g>
<g>
	<g>
		<path d="M256,91c-24.813,0-45,20.187-45,45s20.187,45,45,45s45-20.187,45-45S280.813,91,256,91z M256,151c-8.271,0-15-6.729-15-15
			s6.729-15,15-15s15,6.729,15,15S264.271,151,256,151z"/>
	</g>
</g>
<g>
	<g>
		<path d="M256,331c-24.813,0-45,20.187-45,45s20.187,45,45,45s45-20.187,45-45S280.813,331,256,331z M256,391
			c-8.271,0-15-6.729-15-15s6.729-15,15-15s15,6.729,15,15S264.271,391,256,391z"/>
	</g>
</g>
<g>
</g>
<g>
</g>
<g>
</g>
<g>
</g>
<g>
</g>
<g>
</g>
<g>
</g>
<g>
</g>
<g>
</g>
<g>
</g>
<g>
</g>
<g>
</g>
<g>
</g>
<g>
</g>
<g>
</g>
</svg>
