<svg id="Capa_1" enable-background="new 0 0 510.463 510.463" height="512" viewBox="0 0 510.463 510.463" width="512" xmlns="http://www.w3.org/2000/svg"><g><g><path d="m491.317 158.312-296.499-150.64c-61.787 15.009-97.973 48.133-98.101 48.205 0 0-2.513 3.137-2.983 5.222-3.818 16.948-7.385 39.663-7.385 56.239 0 140.833 118.763 254.972 259.596 254.972 54.231 0 114.568-25.992 154.949-57.243.903-.699 3.769-5.396 3.769-5.396.178-1.087 5.8-23.477 5.8-54.239 0-34.388-6.807-67.185-19.146-97.12z" fill="#afe6ff"/><path d="m345.922 365.111c-140.833 0-255-114.167-255-255 0-18.615 2.008-36.753 5.795-54.234-58.645 46.72-96.254 118.747-96.254 199.555 0 44.01 11.149 85.416 30.777 121.548l.862 1.572 446.102 1.122c12.036-21.543 21.054-45.059 26.459-70.003-43.56 34.695-98.724 55.44-158.741 55.44z" fill="#73c8f0"/></g><g><path d="m171.9 215.233h-21v-69.926l-37.895-31.672 13.468-16.113 41.661 34.82c2.387 1.995 3.766 4.946 3.766 8.057z" fill="#fff"/></g><path d="m150.9 171.095h21v44.137h-21z" fill="#b6fff6"/><g><g><path d="m276.174 1.269v141.474c33.649 24.623 75.142 39.162 120.031 39.162 24.898 0 48.833-4.497 70.99-12.752l22.606-14.44c-36.463-84.722-117.528-145.719-213.627-153.444z" fill="#2477f9"/></g><g><path d="m424.236 64.272v25.733c0 11.312 9.256 20.344 20.568 20.423 11.212.078 20.277 9.191 20.277 20.422v26.001c0 4.312.754 8.444 2.109 12.292 8.306-3.095 16.362-6.718 24.126-10.83-14.972-36.322-38.091-68.427-67.08-94.041z" fill="#62c034"/></g><g><path d="m269.252 137.435-2.468-25.227c-.519-5.3 3.357-10.017 8.657-10.535l4.7-.46c5.3-.519 9.176-5.235 8.657-10.535l-.467-4.78c-.231-2.36.422-4.596 1.671-6.406.106-.153.215-.306.334-.46.146-.187.299-.37.459-.546.068-.075.133-.153.204-.225.246-.255.503-.5.777-.728 1.413-1.173 3.176-1.956 5.137-2.163 5.294-.56 9.272-5.046 8.753-10.345l-2.358-24.094c-.526-5.377-5.345-9.057-10.731-8.638-5.22.406-9.828-3.44-10.34-8.675l-2.154-22.013c-8.102-.776-16.315-1.173-24.62-1.173-22.238 0-42.541 2.843-60.645 7.24 7.534 52.337 34.992 98.23 74.434 129.763z" fill="#62c034"/></g></g><g><g><path d="m46.595 12.303h17.001v84.798h-17.001z" fill="#b6fff6" transform="matrix(.703 -.711 .711 .703 -22.54 55.448)"/></g><path d="m60.209 44.893h17.001v46.521h-17.001z" fill="#78e9e1" transform="matrix(.703 -.711 .711 .703 -28.063 69.132)"/><g><circle cx="19.566" cy="19.598" fill="#2477f9" r="19.566"/></g><g><path d="m133.459 132.125c-37.575 38.031-52.719-8.306-90.75-45.88l77.619-78.561c7.031-7.116 18.862-6.109 24.475 2.172 25.393 37.465 21.676 88.849-11.344 122.269z" fill="#ffc305"/></g><path d="m144.991 112.999c-.311.049-.624.089-.935.134-.857 3.676-3.482 6.861-7.868 7.591-.648 3.194-2.603 6.076-5.885 7.368l13.898 11.616c2.913-2.335 5.722-4.862 8.409-7.582 2.321-2.349 4.496-4.788 6.527-7.304z" fill="#b6fff6"/><g><path d="m152.463 104.752c-4.576 9.89-10.903 19.174-19.004 27.373-33.02 33.421-84.354 37.758-122.124 12.818-8.348-5.512-9.498-17.33-2.467-24.447l33.841-34.252c29.832 29.475 73.971 35.592 109.754 18.508z" fill="#ffa50a"/></g></g><g><path d="m397.637 181.792h-201.017v50.358h221.046v-30.329c0-11.062-8.968-20.029-20.029-20.029z" fill="#ffc305"/></g><g><path d="m199.888 232.15h-109.323v-30.329c0-11.062 8.967-20.029 20.029-20.029h89.295v50.358z" fill="#ffa50a"/></g><g><g><g><path d="m47.191 365.785s.001-.001.001-.001 0 0-.001.001z" fill="#9b14aa"/></g><g><path d="" fill="#9b14aa"/></g><g><path d="m47.192 365.784c.002-.001.001-.001 0 0z" fill="#9b14aa"/></g><g><path d="m254.517 293.373c-39.295 0-73.953 6.801-103.144 16.229v123.207h287.282c15.35-15.839 28.681-33.682 39.549-53.135-59.116-53.626-137.586-86.301-223.687-86.301z" fill="#9b14aa"/></g><g><path d="m141.634 483.67h227.556c33-16.472 62.019-39.89 85.028-68.465-28.579 11.049-59.581 17.087-91.879 17.087-89.206 0-167.714-45.807-213.284-115.182-1.203-1.831-2.388-3.688-3.551-5.563-62.401 21.423-98.166 54.155-98.313 54.237l-.002.001c-5.156 4.108-10.187 8.365-15.087 12.766 3.143 5.69 6.53 11.301 10.077 16.698 24.672 37.561 59.002 68.207 99.455 88.421z" fill="#850f96"/></g></g><g><path d="m224.112 431.436h30.747c2.89 0 5.665.487 8.255 1.372h60.783c2.591-.885 5.365-1.372 8.255-1.372h107.825c14.794-15.495 27.67-32.871 38.225-51.763-12.136-11.009-25.087-21.135-38.753-30.276h-215.337c-22.654 0-41.019 18.365-41.019 41.02 0 22.655 18.365 41.019 41.019 41.019z" fill="#cb2ad8"/></g><g><g><path d="m383.333 431.436h56.646c4.851-5.081 9.496-10.364 13.921-15.837.006-.008.013-.016.019-.024.099-.123.199-.247.298-.37-22.328 8.633-46.136 14.206-70.884 16.231z" fill="#9b14aa"/></g><g><path d="m259.66 510.397c.197-.003.393-.006.59-.01.125-.002.249-.005.374-.007 39.745-.817 77.415-10.695 110.882-27.857h-39.353c-14.107 0-25.543-11.436-25.543-25.543s11.436-25.543 25.543-25.543h9.15c-57.651-4.708-109.875-28.592-150.282-65.264-4.984 6.792-7.929 15.174-7.929 24.244 0 22.654 18.365 41.019 41.019 41.019h30.747c14.107 0 25.543 11.436 25.543 25.543s-11.436 25.543-25.543 25.543h-115.506c36.361 18.628 77.279 28.556 120.308 27.875z" fill="#9b14aa"/></g></g></g><g><g><circle cx="133.954" cy="301.858" fill="#3325b9" r="72.889"/></g><g><path d="m61.065 301.858c0 40.255 32.633 72.889 72.889 72.889v-145.778c-40.256 0-72.889 32.634-72.889 72.889z" fill="#2b1d96"/></g><g><circle cx="133.954" cy="311.858" fill="#2b1d96" r="28.429"/></g><g><circle cx="133.954" cy="301.858" fill="#269ef7" r="28.429"/></g><g><path d="m105.524 301.858c0 15.701 12.728 28.429 28.429 28.429v-56.859c-15.701 0-28.429 12.729-28.429 28.43z" fill="#2477f9"/></g></g><g><g><circle cx="393.818" cy="301.858" fill="#3325b9" r="72.889"/></g><g><path d="m320.93 301.858c0 40.255 32.633 72.889 72.889 72.889v-145.778c-40.256 0-72.889 32.634-72.889 72.889z" fill="#2b1d96"/></g><g><circle cx="393.818" cy="310.858" fill="#2b1d96" r="28.429"/></g><g><circle cx="393.818" cy="301.858" fill="#269ef7" r="28.429"/></g><g><path d="m365.389 301.858c0 15.701 12.728 28.429 28.429 28.429v-56.859c-15.701 0-28.429 12.729-28.429 28.43z" fill="#2477f9"/></g></g><g><path d="m465.287 273.428h-239.884v-65.918h239.884c5.354 0 9.694 4.34 9.694 9.694v7.481l-6.716 7.464 6.716 8.32v23.265c0 5.354-4.34 9.694-9.694 9.694z" fill="#2477f9"/></g><g><path d="m231.718 273.428h-174.67c-5.654 0-10.237-4.583-10.237-10.237v-22.721l5.088-7.892-5.088-7.892v-6.938c0-5.654 4.583-10.237 10.237-10.237h174.671v65.917z" fill="#005be0"/></g><g><path d="m225.403 224.686h249.578v15.784h-249.578z" fill="#b6fff6"/></g><g><path d="m46.811 224.686h184.907v15.784h-184.907z" fill="#78e9e1"/></g><g><path d="m259.072 54.702h127.09v127.09h-127.09z" fill="#ffa50a"/></g><g><path d="m259.072 54.702h38.986v127.09h-38.986z" fill="#fa870a"/></g><g><path d="m322.617 81.913h78.823v41.656h-78.823z" fill="#b6fff6"/></g><g><path d="m322.617 81.913h25.087v41.656h-25.087z" fill="#78e9e1"/></g><g><path d="m322.617 123.569h63.545v17.978h-63.545z" fill="#fa870a"/></g></g></svg>