<svg id="Layer_1" enable-background="new 0 0 180 180" viewBox="0 0 180 180" xmlns="http://www.w3.org/2000/svg"><g><path d="m154 89.8v.2.9 1c0 1.3-.1 2.5-.2 3.7-.1.7-.1 1.3-.2 2-.1.8-.2 1.6-.3 2.4s-.2 1.5-.4 2.3c-.1.3-.1.7-.2 1s-.1.7-.2 1c-.1.5-.2 1-.3 1.5-.1.3-.2.7-.3 1s-.2.7-.3 1c-.2.6-.3 1.1-.5 1.6-.1.3-.2.7-.3 1s-.2.7-.4 1c-.1.4-.3.7-.4 1.1-.2.5-.4.9-.5 1.4-.1.3-.3.7-.4 1-.2.6-.5 1.1-.7 1.6-.1.3-.3.7-.5 1-.1.3-.3.7-.5 1-.3.6-.6 1.3-1 1.9-1.5 2.8-3.2 5.5-5.2 8.1-.3.3-.5.7-.8 1s-.5.7-.8 1c-7.4 9.1-17.4 16.2-28.7 20.1-.3.1-.6.2-1 .3-.3.1-.6.2-1 .3-6 1.9-12.4 2.9-19 2.9-5 0-9.8-.6-14.5-1.6-.3-.1-.7-.1-1-.2s-.7-.2-1-.3c-13.2-3.5-24.8-11.1-33.2-21.5-.3-.3-.5-.7-.8-1s-.5-.7-.8-1c-1.9-2.6-3.6-5.2-5.1-8.1-.3-.6-.7-1.2-1-1.9-.2-.3-.3-.7-.5-1s-.3-.7-.5-1c-.3-.5-.5-1.1-.7-1.6-.2-.3-.3-.7-.4-1-.2-.4-.4-.9-.5-1.4-.1-.4-.3-.7-.4-1.1-.1-.3-.2-.7-.4-1-.1-.3-.2-.7-.3-1-.2-.5-.3-1.1-.5-1.6-.1-.3-.2-.7-.3-1s-.2-.7-.3-1c-.1-.5-.2-1-.3-1.5-.1-.3-.2-.7-.2-1-.1-.3-.1-.7-.2-1-.2-.7-.3-1.5-.4-2.3s-.2-1.6-.3-2.4c-.1-.7-.1-1.3-.2-2-.1-1.2-.2-2.5-.2-3.7 0-.3 0-.7 0-1s0-.6 0-.9v-.2c.2-35.2 28.8-63.8 64.1-63.8s63.9 28.6 64 63.8z" fill="#a5d9eb"/><path d="m136 51.1c-.3 0-.5 0-.8.1v-.1c0-2.6-2.1-4.7-4.7-4.7-1 0-2 .3-2.7.9-.9-2.3-3.2-4-5.9-4-3.5 0-6.4 2.8-6.4 6.4 0 .6.1 1.2.3 1.7-.5-.2-1-.3-1.6-.3-2.6 0-4.7 2.1-4.7 4.7s2.1 4.7 4.7 4.7h21.8c2.6 0 4.7-2.1 4.7-4.7s-2.1-4.7-4.7-4.7z" fill="#fff"/><path d="m68.2 45.8c-.2 0-.4 0-.6.1 0 0 0 0 0-.1 0-1.9-1.5-3.4-3.4-3.4-.7 0-1.4.2-2 .7-.7-1.7-2.4-2.9-4.3-2.9-2.6 0-4.7 2.1-4.7 4.7 0 .4.1.9.2 1.3-.4-.1-.7-.2-1.2-.2-1.9 0-3.4 1.5-3.4 3.4s1.5 3.4 3.4 3.4h16c1.9 0 3.4-1.5 3.4-3.4 0-2.1-1.5-3.6-3.4-3.6z" fill="#fff"/><path d="m90 23c-36.9 0-67 30.1-67 67 0 3.6.3 7.2.8 10.6v.3.1l.1.3.1.4c0 .2.1.3.1.5l.2 1c1.2 6.2 3.3 12.2 6.3 17.8l.2.5.2.2s.2.3.2.4l.1.3.2.2c.1.3.3.5.4.7 11.8 20.8 34.1 33.7 58.1 33.7s46.3-12.9 58.1-33.7c.2-.3.3-.5.5-.8l.2-.2.1-.3c.1-.1.3-.5.3-.5l.2-.2.1-.4c1.2-2.3 2.3-4.8 3.3-7.4.2-.7.5-1.4.7-2 0-.1.2-.5.2-.5.1-.3.2-.7.3-1l.2-.5c.1-.3.2-.6.3-.9l.1-.4v-.1l.1-.5c0-.1.1-.2.1-.3s.1-.2.1-.4c1.4-5.5 2.2-11.2 2.2-17-.1-36.8-30.2-66.9-67.1-66.9zm61.9 83.3c0 .1 0 .2-.1.3 0 .1 0 .1-.1.2-.1.2-.1.3-.1.5 0 .1-.1.2-.1.3-.1.3-.2.7-.3 1-.1.2-.1.4-.2.6-.1.3-.2.7-.3 1 0 .1-.1.2-.1.3-.2.7-.5 1.3-.7 2-.9 2.5-2 4.9-3.3 7.2-.1.2-.2.3-.2.5-.1.2-.2.3-.3.5-.2.3-.4.7-.6 1-11 19.3-31.7 32.3-55.5 32.3s-44.5-13-55.5-32.2c-.2-.3-.4-.7-.6-1-.1-.2-.2-.3-.3-.5s-.2-.3-.3-.5c-2.8-5.3-4.9-11.1-6.1-17.1-.1-.3-.1-.7-.2-1 0-.2-.1-.3-.1-.4 0-.2-.1-.3-.1-.5 0 0 0 0 0-.1 0-.2 0-.3-.1-.4-.4-3.4-.7-6.8-.7-10.3 0-35.3 28.6-64 64-64 35.3 0 64 28.7 64 64 0 5.6-.7 11.1-2.1 16.3z" fill="#244964"/><path d="m152.6 103.3c-.1.3-.1.7-.2 1-.1.5-.2 1-.3 1.5-.1.3-.2.7-.3 1s-.2.7-.3 1c-.2.6-.3 1.1-.5 1.6-.1.3-.2.7-.3 1s-.2.7-.4 1c-.1.4-.3.7-.4 1.1-.2.5-.4.9-.5 1.4-.1.3-.3.7-.4 1-.2.6-.5 1.1-.7 1.6-.1.3-.3.7-.5 1-.1.3-.3.7-.5 1-.3.6-.6 1.3-1 1.9-1.5 2.8-3.2 5.5-5.2 8.1-.3.3-.5.7-.8 1h-100.7c-.3-.3-.5-.7-.8-1-1.9-2.6-3.6-5.2-5.1-8.1-.3-.6-.7-1.2-1-1.9-.2-.3-.3-.7-.5-1s-.3-.7-.5-1c-.3-.5-.5-1.1-.7-1.6-.2-.3-.3-.7-.4-1-.2-.4-.4-.9-.5-1.4-.1-.4-.3-.7-.4-1.1-.1-.3-.2-.7-.4-1-.1-.3-.2-.7-.3-1-.2-.5-.3-1.1-.5-1.6-.1-.3-.2-.7-.3-1s-.2-.7-.3-1c-.1-.5-.2-1-.3-1.5-.1-.3-.2-.7-.2-1z" fill="#723136"/><path d="m81.5 103.3v17.1h-47.9c-.3-.6-.7-1.2-1-1.9-.2-.3-.3-.7-.5-1s-.3-.7-.5-1c-.3-.5-.5-1.1-.7-1.6-.2-.3-.3-.7-.4-1-.2-.4-.4-.9-.5-1.4-.1-.4-.3-.7-.4-1.1-.1-.3-.2-.7-.4-1-.1-.3-.2-.7-.3-1-.2-.5-.3-1.1-.5-1.6-.1-.3-.2-.7-.3-1s-.2-.7-.3-1c-.1-.5-.2-1-.3-1.5-.1-.3-.2-.7-.2-1z" fill="#7d3b3e"/><path d="m152.6 103.3c-.1.3-.1.7-.2 1-.1.5-.2 1-.3 1.5-.1.3-.2.7-.3 1s-.2.7-.3 1c-.2.6-.3 1.1-.5 1.6-.1.3-.2.7-.3 1s-.2.7-.4 1c-.1.4-.3.7-.4 1.1-.2.5-.4.9-.5 1.4-.1.3-.3.7-.4 1-.2.6-.5 1.1-.7 1.6-.1.3-.3.7-.5 1-.1.3-.3.7-.5 1-.3.6-.6 1.3-1 1.9h-47.8v-17.1z" fill="#7d3b3e"/><path d="m115.9 103.3h-5.6c-1.7-2.3-8.4-10.4-19.3-14.2 1.6-10.1 7-18.8 9.8-22.8.4-.6.8-1.1 1-1.4.1-.2.2-.3.3-.4.3-.3.4-.5.4-.5 3.2 3.1 5.9 6.1 8.1 9 4.9 6.3 7.7 11.8 9.3 16.2.3 1 .6 1.9.9 2.8-.5.2-.9.4-1.4.6.1-.1-2.1 4.4-3.5 10.7z" fill="#cacdcd"/><path d="m95.3 44.3 1.6 6.4c4.2 4 10.2 11.3 13.9 22.2 4.9 6.3 7.7 11.8 9.3 16.2.9-7.3.7-15.1.5-19.9-9.7-14.7-25.3-24.9-25.3-24.9z" fill="#f7f5f1"/><path d="m154 90.9v1c0 1.3-.1 2.5-.2 3.7-.1.7-.1 1.3-.2 2-1.2 1.7-2.3 3.6-2.9 5.7h-4.4c-.1-.3-.2-.6-.3-1 0-.1-.1-.3-.1-.4-.2-.6-.4-1.3-.7-2.1-.1-.3-.2-.6-.4-1-.1-.4-.3-.7-.4-1.1-.7-1.7-1.5-3.4-2.5-5-.2-.3-.4-.7-.6-1-.1-.2-.2-.3-.3-.5-.1-.1-.2-.3-.3-.4 0-.1-.1-.1-.1-.1-.2-.2-.4-.5-.6-.7-.1-.1-.2-.3-.3-.4-.4-.3-.7-.6-1.1-.8 0 0-8.4-.5-17.4 3.2-.2-.9-.5-1.8-.9-2.8.4-3.7.6-7.4.7-10.9 0-3.5-.1-6.6-.2-9-.1-2.8-.3-4.6-.3-4.6s20.8 3.9 27.6 28.2c-.4-.1 2.5-1.2 5.9-2z" fill="#f7f5f1"/><path d="m60 89.1c-.3 1-.6 1.9-.9 2.8-9-3.7-17.4-3.2-17.4-3.2-2.8 1.7-5.2 7-6.7 10.8-.6 1.6-1 3-1.3 3.7h-4.4c-.7-2-1.8-3.9-2.9-5.7-.1-.7-.1-1.3-.2-2-.1-1.2-.2-2.5-.2-3.7 0-.3 0-.7 0-1 3.4.8 6.3 2 6.3 2 6.8-24.4 27.6-28.2 27.6-28.2s-.2 1.8-.3 4.6c-.3 4.8-.4 12.6.4 19.9z" fill="#cacdcd"/><path d="m64.1 103.3h5.6c1.7-2.3 8.4-10.4 19.3-14.2-1.6-10.1-7-18.8-9.8-22.8-.4-.6-.8-1.1-1-1.4-.1-.2-.2-.3-.3-.4-.3-.3-.4-.5-.4-.5-3.2 3.1-5.9 6.1-8.1 9-4.9 6.3-7.7 11.8-9.3 16.2-.3 1-.6 1.9-.9 2.8.4.2.9.4 1.3.6 0-.1 2.2 4.4 3.6 10.7z" fill="#f7f5f1"/><path d="m90 58v30.8c-.3.1-.7.2-1 .3-1.6-10.1-7-18.8-9.8-22.8-1.1-1.5-1.8-2.4-1.8-2.4-3.2 3.1-5.9 6.1-8.1 9 3.7-10.9 9.7-18.2 13.9-22.2 2.7-2.6 4.6-3.9 4.6-3.9 2 3.8 2.2 11.2 2.2 11.2z" fill="#f7f5f1"/><path d="m84.7 44.3-1.6 6.4c-4.1 4-10.1 11.3-13.8 22.2-4.9 6.3-7.7 11.8-9.3 16.2-.9-7.3-.7-15.1-.5-19.9 9.6-14.7 25.2-24.9 25.2-24.9z" fill="#f7f5f1"/><path d="m90 58v30.8c.3.1.7.2 1 .3 1.6-10.1 7-18.8 9.8-22.8 1.1-1.5 1.8-2.4 1.8-2.4 3.2 3.1 5.9 6.1 8.1 9-3.7-10.9-9.7-18.2-13.9-22.2-2.7-2.6-4.6-3.9-4.6-3.9-2 3.8-2.2 11.2-2.2 11.2z" fill="#f7f5f1"/><path d="m63.7 103.3c-1.8-1.8-3.7-3.4-5.6-4.9-.5-.4-1-.8-1.5-1.1-.3-.2-.5-.4-.8-.6-.4-.3-.8-.6-1.2-.8-.2-.2-.5-.3-.7-.5-.3-.2-.5-.4-.8-.5-.4-.2-.7-.4-1-.7-.3-.2-.6-.4-.9-.5-.6-.4-1.2-.7-1.7-1-1.6-.9-3-1.7-4.2-2.2-.2-.1-.3-.2-.5-.2-.3-.1-.6-.3-.8-.4-.7-.3-1.2-.6-1.6-.7-.1 0-.2-.1-.2-.1-.2-.1-.3-.1-.3-.1-4 2.4-7.2 12.1-8 14.5h29.8z" fill="#554b49"/><path d="m63.7 103.3h.4c-1.4-6.2-3.6-10.7-3.6-10.7-.5-.2-.9-.4-1.3-.6-9-3.7-17.4-3.2-17.4-3.2s8.2 3.3 16.3 9.6c1.9 1.4 3.8 3.1 5.6 4.9z" fill="#f7f5f1"/><path d="m59.9 64.6c-1.1.6-2.3 1.3-3.4 2.1-9.8 6.5-18.5 16.8-20.8 29-.1.6-.2 1.2-.3 1.8l-.3 2.1c-.6 1.6-1 3-1.3 3.7h-4.4c-.7-2-1.8-3.9-2.9-5.7-.1-.7-.1-1.3-.2-2-.1-1.2-.2-2.5-.2-3.7 0-.3 0-.7 0-1 3.4.8 6.3 2 6.3 2 6.7-24.4 27.5-28.3 27.5-28.3z" fill="#f7f5f1"/><path d="m63.7 103.3c-1.8-1.8-3.7-3.4-5.6-4.9-.5-.4-1-.8-1.5-1.1-.3-.2-.5-.4-.8-.6-.4-.3-.8-.6-1.2-.8-6.5.9-14.6 5.8-17.2 7.4z" fill="#3a3c42"/><path d="m116.3 103.3c1.8-1.8 3.7-3.4 5.6-4.9.5-.4 1-.8 1.5-1.1.3-.2.5-.4.8-.6.4-.3.8-.6 1.2-.8.2-.2.5-.3.7-.5.3-.2.5-.4.8-.5.3-.2.7-.4 1-.7.3-.2.6-.4.9-.5.6-.4 1.2-.7 1.7-1 1.6-.9 3-1.7 4.2-2.2.2-.1.3-.2.5-.2.3-.1.6-.3.9-.4.7-.3 1.2-.6 1.6-.7.1 0 .2-.1.2-.1.2-.1.3-.1.3-.1 4 2.4 7.2 12.1 8 14.5h-29.9z" fill="#554b49"/><path d="m116.3 103.3h-.4c1.4-6.2 3.6-10.7 3.6-10.7.5-.2.9-.4 1.4-.6 9-3.7 17.4-3.2 17.4-3.2s-8.2 3.3-16.3 9.6c-2 1.4-3.9 3.1-5.7 4.9z" fill="#f7f5f1"/><path d="m154 90.9v1c0 1.3-.1 2.5-.2 3.7-.1.7-.1 1.3-.2 2-1.2 1.7-2.3 3.6-2.9 5.7h-4.4c-.1-.3-.2-.6-.3-1 0-.1-.1-.3-.1-.4-.2-.6-.4-1.3-.7-2.1l-.3-2.3c-.1-.6-.2-1.2-.3-1.8-2.3-12.2-11.1-22.5-20.8-29-1.1-.7-2.3-1.4-3.4-2.1 0 0 20.8 3.9 27.6 28.2-.3 0 2.6-1.1 6-1.9z" fill="#cacdcd"/><path d="m91 89.1c-.3-.1-.7-.2-1-.3-.3.1-.7.2-1 .3-10.9 3.8-17.6 11.9-19.3 14.2h20.3 20.3c-1.7-2.3-8.4-10.5-19.3-14.2z" fill="#554b49"/><path d="m90 95.7c-10 .9-17.5 5.8-19.9 7.6h19.9 19.9c-2.4-1.8-9.9-6.7-19.9-7.6z" fill="#3a3c42"/><path d="m116.3 103.3c1.8-1.8 3.7-3.4 5.6-4.9.5-.4 1-.8 1.5-1.1.3-.2.5-.4.8-.6.4-.3.8-.6 1.2-.8 6.5.9 14.6 5.8 17.2 7.4z" fill="#3a3c42"/><path d="m81.4 106.8v3.6h-52.1c-.1-.3-.2-.7-.3-1-.2-.5-.3-1.1-.5-1.6-.1-.3-.2-.7-.3-1z" fill="#cacdcd"/><path d="m72.8 113.9v3.6h-40.6c-.2-.3-.3-.7-.5-1-.3-.5-.5-1.1-.7-1.6-.2-.3-.3-.7-.4-1z" fill="#cacdcd"/><path d="m72.8 117.5v11.9h-33.2c-.3-.3-.5-.7-.8-1-1.9-2.6-3.6-5.2-5.1-8.1-.3-.6-.7-1.2-1-1.9-.2-.3-.3-.7-.5-1h40.6z" fill="#8c4347"/><path d="m59 121.6h7.8v7.8h-7.8z" fill="#3a3c42"/><path d="m151.8 106.8c-.1.3-.2.7-.3 1-.2.6-.3 1.1-.5 1.6-.1.3-.2.7-.3 1h-52.1v-3.6z" fill="#cacdcd"/><path d="m107.2 113.9h42.2c-.1.3-.3.7-.4 1-.2.6-.5 1.1-.7 1.6-.1.3-.3.7-.5 1h-40.6z" fill="#cacdcd"/><path d="m147.8 117.5c-.1.3-.3.7-.5 1-.3.6-.6 1.3-1 1.9-1.5 2.8-3.2 5.5-5.2 8.1-.3.3-.5.7-.8 1h-33.2v-11.9h40.7z" fill="#8c4347"/><path d="m113.2 121.6h7.8v7.8h-7.8z" fill="#3a3c42"/><path d="m140.4 129.4c-.3.3-.5.7-.8 1-7.4 9.1-17.4 16.2-28.7 20.1-.3.1-.6.2-1 .3-.3.1-.6.2-1 .3-6 1.9-12.4 2.9-19 2.9-5 0-9.8-.6-14.5-1.6-.3-.1-.7-.1-1-.2s-.7-.2-1-.3c-13.2-3.5-24.8-11.1-33.2-21.5-.3-.3-.5-.7-.8-1z" fill="#71c070"/><path d="m109.9 150.8c-.3.1-.6.2-1 .3-6 1.9-12.4 2.9-19 2.9-5 0-9.8-.6-14.5-1.6-.3-.1-.7-.1-1-.2l10.2-22.7h15.6z" fill="#d4bbac"/><path d="m102.5 63.9s-.2.2-.4.5c-.1.1-.2.3-.3.4-.3.4-.6.8-1 1.4-2.8 4.1-8.2 12.8-9.8 22.9 10.9 3.8 17.6 11.9 19.3 14.2h2.8v-6.1c-.3-11.5-3.9-23.8-10.6-33.3z" fill="#f7f5f1"/><path d="m79.2 66.3c-.4-.6-.8-1-1-1.4-.1-.2-.2-.3-.3-.4-.3-.3-.4-.5-.4-.5-6.7 9.5-10.2 21.8-10.6 33.2v6.1h2.8c1.7-2.3 8.4-10.4 19.3-14.2-1.6-10.1-7-18.8-9.8-22.8z" fill="#cacdcd"/><path d="m79.5 66.7c2.9 4.2 7.9 12.6 9.5 22.3.3-.1.7-.2 1-.3v-30.7s-.2-7.4-2.2-11.2c0 0-8.4 12.8-8.3 19.9z" fill="#cacdcd"/><path d="m59.4 78.2c0 3.5.2 7.3.6 10.9 1.5-4.4 4.3-10 9.3-16.2 3.7-10.9 9.7-18.2 13.9-22.2l1.6-6.4c-.1 0-20.1 18.3-25.4 33.9z" fill="#cacdcd"/><path d="m96.8 50.7c-2.7-2.6-4.6-3.9-4.6-3.9s8.4 12.7 8.2 19.9c.1-.2.2-.3.3-.5 1.1-1.5 1.8-2.4 1.8-2.4 3.2 3.1 5.9 6.1 8.1 9-3.6-10.8-9.6-18.1-13.8-22.1z" fill="#cacdcd"/><path d="m120.6 78.2c0-3.5-.1-6.6-.2-9-9.5-14.7-25.2-24.9-25.2-24.9s20.1 18.3 25.4 33.9z" fill="#cacdcd"/><g fill="#60262d"><path d="m81.4 103.3h17.1v1.6h-17.1z"/><path d="m81.4 106.6h17.1v1.6h-17.1z"/><path d="m81.4 110h17.1v1.6h-17.1z"/><path d="m81.4 113.4h17.1v1.6h-17.1z"/><path d="m81.4 116.7h17.1v1.6h-17.1z"/><path d="m81.4 120.1h17.1v1.6h-17.1z"/><path d="m72.7 123.5h34.6v1.6h-34.6z"/><path d="m72.7 126.8h34.6v1.6h-34.6z"/></g><path d="m98.6 105.8c-.6.1-.9.4-1 .9v.1 12.2c0 .5.4.9.9 1h.1 7.7v8.4h-32.5v-8.4h7.7.1c.5-.1.9-.5.9-1v-12.3-.1c-.1-.5-.4-.8-.9-.9h-.1-53.5c.1.3.2.7.3 1s.2.7.3 1h51.9v1.6h-51.5c.1.3.2.7.3 1s.2.7.4 1h.4v1.1c.2.5.4.9.5 1.4.1.3.3.7.4 1h40.8v1.6h-40c.1.3.3.7.5 1 .1.3.3.7.5 1h39.1v9.9h-4v-6.8c0-.6-.4-1-1-1h-7.9c-.5 0-1 .4-1 1v6.8h-19.2c.3.3.5.7.8 1s.5.7.8 1h42.8l-9.6 21.5c.3.1.7.2 1 .3s.7.2 1 .2l9.8-21.9h14.3l9.3 20.7c.3-.1.6-.2 1-.3.3-.1.6-.2 1-.3l-9-20.1h37.8c.3-.3.5-.7.8-1s.5-.7.8-1h-19.4v-6.8c0-.6-.5-1-1-1h-7.8c-.6 0-1 .4-1 1v6.8h-4v-9.9h39.1c.2-.3.3-.7.5-1s.3-.7.5-1h-40v-1.6h40.7c.1-.3.3-.7.4-1 .2-.4.4-.9.5-1.4v-1.1h.4c.1-.3.2-.7.4-1 .1-.3.2-.7.3-1h-51.4v-1.6h51.9c.1-.3.2-.7.3-1s.2-.7.3-1zm-32.8 22.6h-5.8v-5.8h5.8zm-24.3-15.5h-9.4v-1.5h9.4zm11.4 0h-9.4v-1.5h9.4zm11.4 0h-9.4v-1.5h9.4zm8.5 0h-6.5v-1.5h14.1v6.6h-6.7v-4.2c.1-.5-.4-.9-.9-.9zm41.4 9.7h5.8v5.8h-5.8zm24.3-11.2h9.4v1.5h-9.4zm-11.4 0h9.4v1.5h-9.4zm-11.4 0h9.4v1.5h-9.4zm-2 0v1.5h-6.5c-.5 0-1 .5-1 1v4.2h-6.7v-6.6h14.2zm34.7-19.9c-7.2-23.7-27.8-27.9-28.1-27.9-.3-.1-.6 0-.8.2s-.4.5-.3.8c0 0 0 .4.1 1-9.6-13-23.3-22-23.5-22.1-.3-.2-.8-.2-1.1 0s-.5.7-.4 1.1l.8 3.2c-1.4-1.1-2.3-1.7-2.3-1.8-.2-.2-.5-.2-.8-.1s-.5.3-.6.5c-.6 1.1-1 2.4-1.3 3.8-.3-1.4-.8-2.7-1.3-3.8-.1-.2-.4-.4-.6-.5-.3-.1-.6 0-.8.1-.1 0-.9.6-2.3 1.8l.8-3.2c.1-.4-.1-.8-.4-1.1-.3-.2-.8-.2-1.1 0-.1.1-13.8 9.1-23.4 22.2 0-.6.1-1 .1-1 0-.3-.1-.6-.3-.8s-.5-.3-.8-.2c-.2 0-20.9 4.2-28.1 27.9-1.2-.4-3.3-1.1-5.6-1.7v.1.9 1c3.2.8 5.9 1.8 5.9 1.9.3.1.6.1.8 0 .3-.1.4-.4.5-.6 4.8-17.3 17-24.1 23.2-26.4.9-.3 1.7-.6 2.3-.8-.1.8-.1 1.9-.2 3.2 0 .8-.1 1.7-.1 2.8v1 .3.8.4.8 2.5.8.5.9.5 1 .4 1 .4c0 .4 0 .7.1 1.1v.4c0 .4.1.7.1 1.1v.3c0 .4.1.8.1 1.2v.3c0 .4.1.8.1 1.2v.2c0 .2-.1.3-.2.5-.1.3-.2.7-.3 1v.1c-.1 0-.2-.1-.4-.1-.3-.1-.5-.2-.8-.3s-.6-.2-.9-.3-.5-.2-.8-.3-.6-.2-.8-.2c-.3-.1-.5-.1-.8-.2s-.5-.1-.8-.2-.5-.1-.8-.2-.5-.1-.8-.2c-.2 0-.5-.1-.7-.1s-.5-.1-.7-.1-.5-.1-.7-.1-.4-.1-.7-.1c-.2 0-.5-.1-.7-.1s-.4 0-.6-.1c-.2 0-.5-.1-.7-.1s-.3 0-.5 0-.4 0-.6-.1c-.1 0-.3 0-.4 0-.2 0-.4 0-.6 0-.1 0-.2 0-.4 0s-.4 0-.5 0h-.3c-.2 0-.4 0-.5 0h-.7c-.5 0-.8 0-.9 0-.1 0-.2 0-.3.1 0 0 0 0-.1 0h-.1c-.3.2-.5.3-.8.5-.1.1-.2.2-.3.2-.2.1-.3.3-.5.5-.1.1-.2.2-.3.3-.1.2-.3.3-.4.5-.1.1-.2.3-.3.4-.1.2-.3.3-.4.5-.1.1-.2.3-.3.4-.1.2-.2.4-.4.5-.1.1-.2.3-.3.5s-.2.4-.3.6-.2.3-.3.5-.2.4-.3.6-.2.3-.3.5-.2.4-.3.6-.2.3-.2.5c0 .1-.1.1-.1.1-.1.2-.1.3-.2.5s-.1.3-.2.5-.2.4-.3.6c-.1.1-.1.3-.2.5s-.2.4-.3.7c0 .1-.1.3-.2.4-.1.2-.2.5-.3.7 0 .1-.1.2-.1.3-.1.3-.2.6-.3.9-.1.3-.2.6-.3.9v.1c-.1.2-.1.4-.2.6h-3c-.9-2.5-2.4-4.7-3.8-6.6 0 .7.1 1.3.2 2 .1.8.2 1.6.3 2.4.4.7.8 1.5 1.1 2.3h-.8c.1.3.1.7.2 1s.1.7.2 1h124.8c.1-.3.2-.7.2-1 .1-.3.1-.7.2-1h-.8c.3-.8.7-1.5 1.1-2.3.1-.8.2-1.6.3-2.4.1-.7.1-1.3.2-2-1.5 1.9-2.9 4.2-3.8 6.6h-3c-.1-.2-.1-.4-.2-.6v-.1c-.1-.3-.2-.6-.3-.9-.1-.3-.2-.6-.3-.9 0-.1-.1-.2-.1-.3-.1-.2-.2-.5-.3-.7 0-.1-.1-.3-.2-.4-.1-.2-.2-.4-.3-.7-.1-.1-.1-.3-.2-.4-.1-.2-.2-.4-.3-.7-.1-.2-.1-.3-.2-.5s-.1-.3-.2-.5c0-.1 0-.1-.1-.2-.1-.2-.2-.3-.2-.5-.1-.2-.2-.4-.3-.6s-.2-.3-.3-.5-.2-.4-.3-.6-.2-.3-.3-.5-.2-.4-.3-.6c-.1-.1-.2-.3-.3-.5s-.2-.4-.4-.5c-.1-.1-.2-.3-.3-.4-.1-.2-.3-.4-.4-.5s-.2-.3-.3-.4c-.1-.2-.3-.3-.4-.5-.1-.1-.2-.2-.3-.3-.2-.2-.3-.3-.5-.5-.1-.1-.2-.2-.3-.2-.3-.2-.5-.4-.8-.5h-.1-.1c-.1 0-.2-.1-.3-.1h-.1c-.1 0-.2 0-.3 0h-.1c-.1 0-.2 0-.4 0h-.8c-.2 0-.4 0-.7 0h-.1c-.3 0-.5 0-.8 0h-.1c-.3 0-.6 0-1 .1h-.1c-.4 0-.7.1-1.1.1h-.1c-.4 0-.8.1-1.2.2h-.1c-.4.1-.9.1-1.3.2-.5.1-.9.2-1.4.3 0 0 0 0-.1 0-.5.1-1 .2-1.5.3h-.1c-.5.1-1 .2-1.5.4-.1 0-.1 0-.2 0-.5.1-.9.3-1.4.4-.1 0-.2.1-.3.1-.4.1-.9.3-1.3.4-.2 0-.3.1-.4.2s-.3.1-.4.2c0 0 0-.1 0-.2-.1-.3-.2-.7-.3-1-.1-.1-.1-.3-.1-.4s0-.2 0-.3c0-.4.1-.7.1-1.1 0-.1 0-.2 0-.3 0-.4.1-.7.1-1.1 0-.1 0-.3 0-.4 0-.4.1-.7.1-1.1 0-.1 0-.3 0-.4 0-.3.1-.7.1-1 0-.1 0-.3 0-.4 0-.3 0-.7 0-1 0-.2 0-.3 0-.5 0-.3 0-.6 0-.9 0-.2 0-.4 0-.6 0-.3 0-.5 0-.8 0-.2 0-.4 0-.6s0-.5 0-.7v-2.5c0-.4 0-.8 0-1.1v-.1c0-2-.1-3.7-.2-5s-.1-2.5-.2-3.3c.6.2 1.4.4 2.3.8 6.1 2.3 18.4 9 23.2 26.4.1.3.3.5.5.6.3.1.6.1.8 0 .1 0 2.7-1 5.9-1.9 0-.3 0-.7 0-1s0-.6 0-.9v-.2c-1 .7-3.1 1.4-4.3 1.8zm-48.1-42.2c5.3 4.2 13.4 11.4 19.1 20.2v.4.2.8.1.8.3.7.3.9.2 1.1 2.7 1 .2c0 .9 0 1.7-.1 2.6v.3c0 .3 0 .7-.1 1.1v.3c0 .4-.1.8-.1 1.2v.1.2s0-.1-.1-.2c0-.1-.1-.1-.1-.2-.3-.6-.5-1.1-.8-1.7-.1-.1-.1-.3-.2-.4-.3-.5-.6-1.1-.9-1.6-.1-.1-.1-.2-.2-.3-.4-.7-.8-1.3-1.2-2 0 0 0-.1-.1-.1-.4-.6-.8-1.2-1.2-1.8-.1-.2-.2-.3-.3-.5-.3-.5-.7-1-1-1.4-.1-.2-.2-.3-.3-.5-.4-.6-.9-1.2-1.4-1.8-.1-.4-.3-.7-.4-1.1-.1-.3-.2-.6-.3-.8-.1-.4-.3-.7-.4-1.1-.1-.3-.2-.6-.3-.8-.1-.3-.3-.7-.4-1s-.3-.6-.4-.8c-.1-.3-.3-.6-.4-.9s-.3-.6-.4-.9c-.1-.2-.2-.4-.3-.6-.4-.8-.9-1.7-1.3-2.5 0-.1-.1-.1-.1-.2-.2-.3-.4-.7-.6-1-.1-.2-.2-.3-.3-.5-.2-.3-.4-.6-.6-.9-.1-.2-.2-.4-.4-.5-.2-.3-.4-.5-.5-.8-.1-.2-.3-.4-.4-.6-.2-.2-.3-.5-.5-.7-.1-.2-.3-.4-.4-.6-.2-.2-.3-.4-.5-.7-.1-.2-.3-.4-.4-.5-.2-.2-.3-.4-.5-.6s-.3-.4-.4-.6c-.2-.2-.3-.3-.4-.5-.2-.2-.3-.4-.5-.5-.1-.2-.3-.3-.4-.4-.2-.2-.3-.4-.5-.5-.1-.1-.2-.3-.4-.4-.2-.2-.3-.4-.5-.5-.1-.1-.2-.2-.3-.3-.2-.2-.3-.3-.5-.5l-.9-3.5c1.1.6 2.3 1.5 3.6 2.6zm-9.3 8.7c0-.3.2-6 1.6-9.6.3.2.7.5 1.1.8.7.6 1.5 1.3 2.4 2.1 0 0 .1.1.1.1.4.4.8.8 1.2 1.2.1.1.2.2.3.3.4.4.8.9 1.2 1.3.1.1.1.2.2.3.4.5.8.9 1.2 1.4 0 .1.1.1.2.2.4.5.9 1.1 1.3 1.7.1.1.2.3.3.4.4.6.9 1.2 1.3 1.9.1.1.1.2.2.2.4.6.8 1.2 1.2 1.9.1.1.2.2.2.4.4.7.8 1.4 1.2 2.2.1.2.2.3.2.5.4.8.8 1.6 1.2 2.4-.5-.5-.9-1-1.4-1.4-.2-.2-.5-.5-.7-.7-.7-.8-1.5-1.5-2.2-2.2-.2-.2-.4-.3-.7-.3-.1 0-.2 0-.2.1-.1 0-.1 0-.2 0 0 0-.1.1-.1.1-.1 0-.1.1-.2.1 0 0-.1.1-.3.4-.1.1-.2.2-.2.3-.1.1-.1.1-.2.2l-.1.1c-.2.2-.4.5-.6.8-.1.2-.3.4-.4.6-.2.3-.4.5-.5.8-.1.1-.1.2-.2.3-.1.2-.3.4-.4.6-.1.1-.2.2-.2.4-.1.2-.3.4-.4.6-.1.1-.2.3-.2.4-.1.2-.3.5-.4.7l-.2.4c-.2.3-.3.6-.5.9-.1.1-.1.2-.2.3-.2.4-.5.8-.7 1.2 0 .1-.1.2-.1.3-.2.3-.4.7-.5 1-.1.1-.2.3-.2.5-.1.3-.3.6-.4.9-.1.2-.2.3-.3.5-.1.3-.3.6-.4.9-.1.2-.2.4-.2.6-.2.3-.3.7-.4 1-.1.2-.1.3-.2.5-.2.5-.4 1-.6 1.5v.1c-.2.5-.4 1.1-.6 1.6-.1.2-.1.3-.2.5-.1.4-.2.8-.3 1.1-.1.2-.1.4-.2.6s-.1.4-.2.6v-26.6zm-7.1-6.7c.9-.9 1.7-1.6 2.4-2.1.4-.3.8-.6 1.1-.8 1.4 3.6 1.6 9.3 1.6 9.6v26.3c-.1-.2-.1-.4-.2-.6s-.1-.4-.2-.6c-.1-.4-.2-.8-.4-1.1-.1-.2-.1-.3-.2-.5-.2-.5-.4-1.1-.6-1.6v-.1c-.2-.5-.4-.9-.6-1.4-.1-.2-.1-.4-.2-.5-.1-.3-.3-.7-.4-1-.1-.2-.2-.4-.3-.6-.1-.3-.3-.6-.4-.9-.1-.2-.2-.4-.3-.6-.1-.3-.3-.6-.4-.9-.1-.2-.2-.3-.3-.5-.2-.3-.3-.6-.5-1-.1-.1-.1-.2-.2-.3-.2-.4-.5-.8-.7-1.2-.1-.1-.1-.2-.2-.3-.2-.3-.3-.5-.5-.8-.1-.1-.2-.3-.3-.4-.1-.2-.3-.4-.4-.7-.1-.1-.2-.3-.3-.4-.1-.2-.3-.4-.4-.6-.1-.1-.2-.3-.3-.4-.1-.2-.2-.4-.4-.5-.1-.1-.2-.2-.2-.4-.1-.2-.3-.4-.4-.5s-.1-.2-.2-.2c-.1-.1-.1-.2-.2-.3s-.1-.2-.2-.3c-.2-.3-.5-.6-.6-.9l-.1-.1c-.1-.1-.2-.3-.3-.3-.3-.4-.4-.6-.4-.6-.1-.1-.1-.1-.2-.1 0 0-.1-.1-.1-.1-.1 0-.1 0-.2 0s-.1-.1-.2-.1h-.1c-.1 0-.2 0-.3.1h-.1c-.1 0-.2.1-.3.2-.8.7-1.5 1.5-2.2 2.2-.3.3-.5.6-.8.9-.4.4-.8.9-1.2 1.3.4-.8.8-1.7 1.2-2.4.1-.2.2-.3.3-.5.4-.8.8-1.5 1.2-2.2.1-.1.2-.3.2-.4.4-.7.8-1.3 1.2-1.9 0-.1.1-.2.2-.2.4-.6.9-1.3 1.3-1.9.1-.1.2-.3.3-.4.4-.6.9-1.1 1.3-1.7.1-.1.1-.1.2-.2.4-.5.8-1 1.2-1.4.1-.1.1-.2.2-.3.4-.5.8-.9 1.2-1.3.1-.1.2-.2.3-.3.8-.3 1.2-.7 1.6-1.2 0 .1 0 .1 0 0zm-23.5 24c0-.4 0-.8 0-1.2v-.1c0-.3 0-.6 0-.9v-.2c0-.3 0-.6 0-.8v-.1c0-.9.1-1.7.1-2.4 5.7-8.8 13.7-16 19.1-20.2 1.4-1.1 2.5-2 3.5-2.7l-.9 3.5c-.2.1-.3.3-.5.5-.1.1-.2.2-.3.3-.2.2-.4.4-.5.6-.1.1-.2.2-.3.3-.2.2-.4.4-.5.6-.1.1-.2.3-.4.4-.2.2-.3.4-.5.6-.1.2-.3.3-.4.5-.2.2-.3.4-.5.6-.1.2-.3.3-.4.5-.2.2-.3.5-.5.7-.1.2-.3.3-.4.5-.2.2-.4.5-.5.7s-.3.4-.4.6c-.2.3-.4.5-.5.8l-.4.6c-.2.3-.4.6-.6.9-.1.2-.3.4-.4.6-.2.3-.4.7-.6 1-.1.2-.2.3-.3.5-.3.5-.6 1-.8 1.5v.1c-.3.5-.6 1.1-.9 1.7-.1.1-.1.3-.2.5-.2.4-.4.8-.6 1.3-.1.2-.2.4-.3.6-.2.4-.3.8-.5 1.2-.1.2-.2.5-.3.8-.2.4-.3.8-.5 1.1-.1.3-.2.5-.3.8-.1.4-.3.7-.4 1.1-.5.6-.9 1.2-1.4 1.8-.1.2-.3.3-.4.5-.3.5-.7.9-1 1.4-.1.2-.3.4-.4.5-.4.6-.8 1.1-1.1 1.7 0 .1-.1.1-.1.2-.4.6-.8 1.3-1.2 1.9-.1.1-.1.2-.2.3-.3.5-.6 1.1-.9 1.6-.1.2-.2.3-.2.5-.3.5-.5 1.1-.8 1.6 0 .1-.1.2-.1.3s0 .1-.1.1c0 0 0-.1 0-.2v-.1c0-.4 0-.8-.1-1.2 0-.1 0-.2 0-.3 0-.3 0-.7 0-1 0-.1 0-.2 0-.3 0-.4 0-.8 0-1.2v-.1c0-.4 0-.9 0-1.3v-.4c0-.4 0-.7 0-1v-2.7zm-25.2 27c0-.2.1-.3.2-.5 0-.1.1-.3.1-.4.1-.3.2-.5.3-.7 0-.1.1-.2.1-.3.1-.3.3-.7.4-1 0-.1.1-.2.1-.3.1-.2.2-.5.3-.7 0-.1.1-.3.2-.4.1-.2.2-.4.3-.6.1-.1.1-.3.2-.4.1-.2.2-.4.3-.6.1-.1.1-.3.2-.4.1-.2.2-.4.3-.5s.1-.3.2-.4c.1-.2.2-.3.3-.5.1-.1.1-.2.2-.4s.2-.3.3-.5c.1-.1.1-.2.2-.3.1-.2.2-.3.3-.5 0-.1.1-.2.2-.3.1-.2.3-.4.4-.6 0 0 .1-.1.1-.1.2-.2.3-.4.5-.6 0-.1.1-.1.1-.2.1-.1.2-.3.3-.4l.2-.2.3-.3.2-.2.2-.2c.2.1.5.2.9.4.2.1.5.2.8.4l1.1.5c.2.1.3.2.5.2.6.3 1.1.6 1.7.9.1 0 .2.1.3.1.6.4 1.3.7 1.9 1.1.5.3 1 .6 1.5.9.3.2.5.3.8.5l.3.2c.2.1.4.3.6.4s.4.3.6.4c.1 0 .2.1.2.1l.2.1.1.1c.3.2.7.5 1.1.7.2.1.4.3.6.4.3.2.7.5 1 .7.5.3 1 .7 1.5 1.1.9.7 1.7 1.4 2.5 2.1.2.2.4.3.6.5s.4.3.5.5h-26.3zm26.9-1.9c-.4-.3-.8-.7-1.2-1-.2-.1-.4-.3-.5-.4-.6-.5-1.1-.9-1.7-1.4-.5-.4-1-.8-1.5-1.2 0 0 0 0-.1 0-.2-.1-.4-.3-.6-.4-.1 0-.1-.1-.2-.1-.1-.1-.2-.1-.2-.2-.3-.2-.6-.4-.9-.6 0 0-.1 0-.1-.1-.2-.1-.4-.3-.6-.4-3-2-5.8-3.6-8-4.7 2 .2 4.5.6 7.1 1.3h.1c.5.1 1 .3 1.5.4h.1c.5.2 1.1.3 1.6.5h.1c.6.2 1.1.4 1.7.7.3.1.6.3.9.4 0 .1.1.2.2.4v.1c.1.2.1.3.2.5v.1c.1.2.1.4.2.6v.1c.1.2.2.5.3.8 0 .1 0 .1.1.2.1.3.2.6.3.9v.1c.1.3.2.6.3.9 0 .1 0 .1.1.2.1.4.2.7.3 1.1 0 .1 0 .1.1.2.1.4.2.8.3 1.2v.1c.3-.1.2-.2.1-.3zm9-.3c-.2.2-.3.3-.4.5-.1.1-.2.2-.3.3-.1.2-.3.3-.4.5-.1.1-.1.2-.2.3s-.2.3-.3.4-.1.2-.2.2c0 0 0 .1-.1.1h-4.3c0-.1 0-.1 0-.2 0-.2-.1-.4-.1-.5 0-.2-.1-.4-.2-.6 0-.2-.1-.3-.1-.5s-.1-.4-.2-.6-.1-.3-.1-.5c-.1-.2-.1-.4-.2-.6 0-.1-.1-.3-.1-.4-.1-.2-.1-.3-.2-.5 0-.1-.1-.3-.1-.4-.1-.2-.1-.3-.2-.5 0-.1-.1-.3-.1-.4-.1-.1-.1-.3-.2-.4 0-.1-.1-.2-.1-.3s-.1-.3-.1-.4-.1-.2-.1-.3-.1-.3-.1-.4-.1-.2-.1-.3-.1-.2-.1-.4c0-.1-.1-.2-.1-.2 0-.1-.1-.2-.1-.3s-.1-.1-.1-.2-.1-.2-.1-.3 0-.1-.1-.2c0-.1-.1-.1-.1-.2 0 0 0-.1-.1-.2 0 0 0-.1-.1-.1v-.1c0-.1 0-.1-.1-.2v-.1c-.1-.2-.3-.4-.5-.5s-.4-.2-.6-.3c0-.1 0-.1.1-.2.2-.5.4-1.1.5-1.7.2-.5.4-1.1.6-1.6.1-.1.1-.3.2-.4.1-.3.2-.6.4-.8.2-.4.3-.8.5-1.2 0 0 0-.1.1-.1 1.5-3.3 3.5-6.5 5.9-9.8.5-.7 1-1.3 1.5-2 0 0 0 0 0-.1.3-.3.6-.7.8-1 .3-.3.5-.6.8-.9.3-.4.7-.8 1-1.2.2-.3.5-.6.7-.8.3-.4.7-.8 1.1-1.2l.3-.4c.1-.2.3-.3.4-.5.3-.3.6-.6.8-.8.4-.4.8-.8 1.1-1.2.3.4.6.9 1.1 1.5.2.3.4.5.6.8.1.1.2.3.3.4.1.2.2.3.3.5.1.1.2.3.3.5s.2.3.3.5.2.3.3.5.2.4.3.6.2.4.3.6.2.4.4.6c.1.2.2.4.3.6s.2.4.3.6.2.4.4.6c.1.2.2.4.3.7.1.2.2.5.3.7s.2.5.3.7.2.5.3.7c.1.3.2.5.4.8.1.2.2.5.3.7.1.3.2.5.3.8s.2.5.3.8.2.5.3.8.2.5.3.8.2.5.3.8.2.5.3.8.2.6.3.9.2.5.2.8c.1.3.2.6.2.9.1.3.1.6.2.9s.1.6.2.9.1.6.2.9c0 .2.1.3.1.5-.2.1-.4.2-.7.3s-.6.2-.8.3c-.4.2-.7.3-1.1.5-.3.1-.5.2-.8.4-.4.2-.7.4-1.1.5-.2.1-.5.2-.7.4-.4.2-.8.4-1.1.6-.2.1-.4.2-.5.3-.5.3-.9.6-1.4.9 0 0-.1.1-.2.1-.5.3-1 .7-1.5 1-.1.1-.2.2-.3.2-.4.3-.7.5-1.1.8-.2.1-.3.2-.4.3-.3.2-.6.5-.8.7-.2.1-.3.3-.4.4-.3.2-.5.4-.7.6-.2.1-.3.3-.4.4-.2.2-.4.4-.6.6-.1.1-.3.3-.4.4-.2.2-.4.4-.6.6-.1.1-.2.3-.4.4-.2.2-.3.4-.5.5.2.1.1.2 0 .3zm.7 2.2s.1-.1.1-.1c.1-.1.2-.2.2-.3.1-.2.3-.3.4-.5l.3-.3c.2-.2.3-.4.5-.6.1-.1.2-.2.2-.3l1.8-1.8c.1-.1.2-.2.3-.2.3-.2.5-.5.8-.7.1-.1.2-.2.4-.3.3-.2.5-.4.8-.7.1-.1.2-.2.4-.3.3-.2.6-.5.9-.7.1-.1.2-.2.3-.2.9-.6 1.8-1.3 2.8-1.9.1-.1.2-.1.4-.2.4-.2.8-.4 1.2-.7.2-.1.3-.2.5-.3.4-.2.8-.4 1.1-.6.2-.1.4-.2.5-.3.4-.2.8-.4 1.3-.6.2-.1.3-.1.5-.2.6-.2 1.2-.5 1.8-.7l.7-.2.5.2.2.1c.6.2 1.2.4 1.8.7.2.1.4.2.6.2.4.2.8.3 1.2.5l.6.3c.3.2.7.3 1 .5.2.1.4.2.6.3.3.2.7.4 1 .6.2.1.3.2.5.3.5.3.9.6 1.4.9 0 0 .1.1.1.1.4.3.8.6 1.2.9.2.1.3.2.5.3.3.2.5.4.8.6.2.1.3.3.5.4.2.2.5.4.7.6l.4.4c.2.2.5.4.7.6l.3.3.9.9c0 .1.1.1.1.1l.7.7.3.3c.2.2.3.4.5.5l.3.3c.2.2.3.3.4.5.1.1.1.2.2.2 0 0 .1.1.1.1h-36.3zm45.6-7.5c-.1.1-.1.3-.2.4 0 .1-.1.2-.1.3s-.1.3-.2.4c0 .1-.1.2-.1.3-.1.2-.1.3-.2.4 0 .1-.1.3-.1.4-.1.2-.1.3-.2.5 0 .1-.1.3-.1.4-.1.2-.1.4-.2.5 0 .1-.1.3-.1.4-.1.2-.1.4-.2.6 0 .2-.1.3-.1.4-.1.2-.1.4-.2.6 0 .2-.1.3-.1.5s-.1.4-.2.6c0 .2-.1.3-.1.5v.2h-4.3c-.1-.1-.2-.2-.3-.3s-.2-.2-.2-.3c-.1-.1-.2-.2-.3-.3s-.2-.2-.3-.4c-.1-.1-.2-.3-.3-.4s-.2-.3-.4-.4c-.1-.1-.2-.3-.4-.4-.1-.1-.3-.3-.4-.5-.1-.1-.3-.3-.4-.4-.2-.2-.3-.3-.5-.5s-.3-.3-.5-.5-.4-.4-.6-.5c-.2-.2-.3-.3-.5-.5s-.4-.4-.6-.6-.3-.3-.5-.4c-.2-.2-.5-.4-.7-.6-.2-.1-.3-.3-.5-.4-.3-.2-.6-.5-.9-.7-.2-.1-.3-.2-.4-.3-.5-.3-1-.7-1.5-1-.1-.1-.2-.1-.3-.2-.4-.3-.8-.5-1.2-.8-.2-.1-.4-.2-.6-.4-.3-.2-.7-.4-1.1-.6-.2-.1-.5-.2-.7-.4-.3-.2-.7-.4-1-.5s-.5-.2-.8-.4-.7-.3-1.1-.5c-.3-.1-.6-.2-.8-.3s-.4-.2-.7-.3c0-.2.1-.3.1-.5.1-.3.1-.6.2-.9s.1-.6.2-.9.1-.6.2-.9.2-.6.2-.9c.1-.3.2-.6.2-.8.1-.3.2-.6.3-.9s.2-.5.3-.8.2-.6.3-.8c.1-.3.2-.5.3-.8s.2-.5.3-.8.2-.5.3-.8.2-.5.3-.8c.1-.2.2-.5.3-.7.1-.3.2-.5.3-.7s.2-.5.3-.7.2-.5.3-.7.2-.5.3-.7.2-.4.3-.6.2-.4.4-.7c.1-.2.2-.4.3-.6s.2-.4.4-.6c.1-.2.2-.4.3-.5.1-.2.3-.4.4-.6s.2-.3.3-.5.3-.4.4-.6c.1-.1.2-.2.2-.4.1-.2.3-.4.4-.6 0-.1.1-.1.1-.2.4-.6.7-1.1 1-1.5 0 0 .1-.1.1-.1.4-.5.7-1 1-1.3.7.7 1.3 1.3 1.9 2 .1.1.2.2.3.4 0 0 .1.1.1.1.5.5 1 1 1.4 1.5.2.2.3.4.5.6.4.5.9 1 1.3 1.5.2.3.4.5.6.8.3.4.7.8 1 1.2v.1c.5.7 1 1.3 1.5 2 2.3 3.2 4.3 6.4 5.8 9.6.1.1.1.3.2.4.2.3.3.7.4 1s.3.7.4 1c0 .1.1.2.1.3.2.6.4 1.1.6 1.7s.4 1.2.6 1.7c0 .1 0 .1.1.2-.2.1-.4.2-.6.3s-.4.3-.5.5v.1s0 .1-.1.2c0 0 0 .1-.1.1 0 0 0 .1-.1.1 0 0 0 .1-.1.2 0 .1 0 .1-.1.2 0 0-.1.1-.1.2s-.1.2-.1.3-.1.2-.1.2c0 .1-.1.2-.1.3s-.1.2-.1.3-.1.2-.1.3c.4-.3.4-.2.3-.1zm17.5-3.4c.2-.1.3-.2.5-.2l1.1-.5c.3-.1.5-.2.7-.3.4-.2.7-.3.9-.4.1 0 .1.1.2.2.1 0 .1.1.2.2s.2.2.3.3l.2.2c.1.1.2.3.3.4l.2.2c.2.2.3.4.5.6 0 .1.1.1.1.2.1.2.3.4.4.6.1.1.1.2.2.3.1.2.2.3.3.5.1.1.1.2.2.4s.2.3.3.5c.1.1.1.3.2.4.1.2.2.3.3.5.1.1.1.3.2.4.1.2.2.3.3.5.1.1.1.3.2.4.1.2.2.4.3.5s.1.3.2.4c.1.2.2.4.3.6.1.1.1.3.2.4.1.2.2.5.3.7 0 .1.1.2.1.3.1.3.3.7.4 1 0 .1.1.2.1.3.1.3.2.5.3.7.1.1.1.3.1.4.1.1.1.3.2.5h-26c.2-.2.4-.4.6-.5.2-.2.4-.4.6-.5.8-.7 1.7-1.4 2.5-2.1.5-.4 1-.8 1.5-1.1.3-.2.6-.4.9-.6.2-.2.5-.3.7-.5.4-.3.7-.5 1.1-.7l.1-.1-.2-.5c.1 0 .1-.1.2-.1.2-.1.4-.3.6-.4s.4-.3.6-.4l.4-.3c.2-.1.4-.3.6-.4.5-.3 1.1-.6 1.6-.9.6-.4 1.3-.7 1.9-1.1.1 0 .2-.1.3-.1.6-.3 1.1-.6 1.7-.9zm-13.7 1.5c.5-.2 1.1-.4 1.6-.6.2-.1.4-.1.5-.2.3-.1.7-.2 1-.4.2-.1.4-.1.6-.2.3-.1.7-.2 1-.3.2 0 .4-.1.6-.1.3-.1.7-.2 1-.2.2 0 .3-.1.5-.1.4-.1.7-.1 1.1-.2.1 0 .2-.1.3-.1 1-.2 1.9-.3 2.7-.4h.2c.3 0 .7-.1 1-.1h.1c-2.2 1.1-4.9 2.6-7.8 4.6-.2.1-.5.3-.7.5 0 0 0 0-.1.1-.6.4-1.3.9-1.9 1.3-.5.4-1 .8-1.6 1.2s-1.2.9-1.7 1.4c-.2.2-.3.3-.5.4-.4.3-.8.7-1.2 1-.1.1-.2.2-.3.3v-.1c.1-.4.2-.8.3-1.1 0-.1 0-.2.1-.2.1-.4.2-.7.3-1.1 0-.1.1-.1.1-.2.1-.3.2-.6.3-1 0 0 0 0 0-.1.1-.3.2-.6.3-.9 0 0 0-.1.1-.2.1-.3.2-.5.3-.8 0 0 0 0 0-.1.1-.2.2-.5.3-.7 0 0 0 0 0-.1.1-.2.2-.4.2-.5v-.1c.1-.1.1-.3.2-.4.4 0 .8-.2 1.1-.3zm-38.8 13.7c-.1-.5-.4-.8-.9-.9h-.1-53.4c.1.3.2.7.3 1h53.2v1.5h1v-1.5c-.1 0-.1 0-.1-.1z" fill="#244964"/></g></svg>