<?xml version="1.0" encoding="UTF-8"?>
<!-- Generator: Adobe Illustrator 26.2.1, SVG Export Plug-In . SVG Version: 6.00 Build 0)  -->
<svg xmlns="http://www.w3.org/2000/svg" xmlns:xlink="http://www.w3.org/1999/xlink" version="1.1" id="Capa_1" x="0px" y="0px" viewBox="0 0 512 512" style="enable-background:new 0 0 512 512;" xml:space="preserve" width="512" height="512">
<g>
	<g>
		<path style="fill:#FFFFFF;" d="M452.965,140.198c0,0-1.901-16.049,13.452-10.664c15.354,5.385,10.137,19.988,4.324,14.892    c-5.814-5.096,5.439-21.977,17.141-14.242s8.87,22.41,0.486,23.386c-8.385,0.976,5.291-17.061,15.688-5.676    s-12.892,31.592-22.209,23.93c-9.317-7.662-1.79-19.736,0.372-12.29s-4.024,14.639-20.719,14.134    c-16.695-0.505-8.759-26.097-3.02-18.543c5.739,7.554-4.061,15.868-15.726,6.905C431.091,153.067,444.766,135.029,452.965,140.198    z"/>
		<path style="fill:#241726;" d="M463.136,174.763c-0.544,0-1.1-0.008-1.668-0.025c-5.473-0.167-9.289-3.021-10.584-7.869    c-2.875-0.403-5.894-1.771-8.781-3.99c-4.538-3.489-6.045-8.713-4.135-14.332c1.969-5.795,7.16-10.334,11.817-10.334    c0.704,0,1.383,0.1,2.034,0.295c0.008-2.218,0.398-5.983,2.662-8.529c2.56-2.881,6.739-3.397,12.289-1.452    c2.131,0.746,3.993,1.705,5.551,2.856c2.649-2.722,6.002-4.264,9.332-4.264c2.342,0,4.634,0.731,6.817,2.175    c5.056,3.342,8.087,8.421,8.271,13.76c2.957,0.127,5.75,1.546,8.102,4.122c3.211,3.516,3.772,8.189,1.58,13.158    c-3.347,7.591-12.458,14.251-19.497,14.253c0,0-0.001,0-0.002,0c-2.26,0-4.198-0.652-5.758-1.936    c-0.729-0.597-1.386-1.245-1.964-1.928C475.603,173.37,470.083,174.763,463.136,174.763z M453.152,166.981    c0.917,2.711,3.145,5.458,8.381,5.617c8.892,0.274,13.862-1.723,16.424-3.618c-2.284-3.81-2.065-7.951-0.746-10.507    c0.769-1.489,1.874-2.344,3.033-2.344c0.784,0,2.217,0.405,3.002,3.106c1.083,3.731,0.196,7.351-2.429,10.079    c0.499,0.595,1.072,1.159,1.709,1.684c1.169,0.959,2.649,1.448,4.4,1.448c6.198-0.002,14.549-6.185,17.542-12.977    c1.294-2.935,2.135-7.199-1.202-10.854c-1.983-2.17-4.203-3.324-6.603-3.426c-0.57,5.114-3.826,8.937-8.171,9.444    c-2.808,0.301-3.747-1.145-3.793-2.511c-0.102-3.027,4.306-8.055,9.908-8.945c-0.142-4.665-2.825-9.135-7.316-12.101    c-4.411-2.916-9.531-2.137-13.333,1.692c3.576,3.495,4.211,7.752,3.181,10.581c-0.722,1.978-2.244,3.209-3.973,3.209    c0,0,0,0-0.001,0c-1.057,0-2.139-0.46-3.13-1.329c-3.208-2.812-2.089-8.208,0.894-12.216c-1.362-0.984-2.995-1.811-4.867-2.469    c-4.655-1.631-8.007-1.366-9.978,0.85c-2.68,3.008-2.064,8.621-2.058,8.678c0.047,0.409-0.144,0.811-0.492,1.03    c-0.347,0.221-0.79,0.224-1.141,0c-0.789-0.497-1.667-0.75-2.609-0.75c-3.735,0-8.128,3.986-9.792,8.882    c-1.597,4.7-0.353,9.054,3.413,11.949c2.354,1.809,4.773,2.985,7.075,3.449c-0.416-4.128,0.891-8.143,2.573-10.202    c0.943-1.155,2.037-1.765,3.163-1.765c0.792,0,1.974,0.313,3.115,1.815c2.027,2.668,2.466,5.655,1.205,8.197    C459.28,165.21,456.478,166.831,453.152,166.981z M480.245,158.268c-0.202,0-0.686,0.324-1.132,1.187    c-0.966,1.872-1.154,5.057,0.466,8.049c1.869-2.135,2.443-4.815,1.615-7.671C480.862,158.695,480.436,158.268,480.245,158.268z     M456.217,154.803c-0.455,0-0.99,0.347-1.506,0.98c-1.434,1.757-2.517,5.517-2.048,9.07c2.763-0.006,4.989-1.174,5.958-3.127    c0.887-1.786,0.525-3.956-0.991-5.951C457.292,155.329,456.774,154.803,456.217,154.803z M494.482,145.377    c-4.443,0.948-7.699,5.064-7.645,6.674c0.006,0.194,0.016,0.487,0.909,0.487c0.154,0,0.32-0.01,0.498-0.031    C491.458,152.133,493.902,149.273,494.482,145.377z M472.563,134.396c-2.574,3.491-3.109,7.478-1.118,9.225    c1.513,1.326,3.006,0.854,3.685-1.005C475.91,140.475,475.372,137.203,472.563,134.396z"/>
	</g>
	<g>
		<path style="fill:#FFFFFF;" d="M15.806,205.305c0,0-1.901-16.049,13.452-10.664s10.137,19.988,4.324,14.892    s5.439-21.977,17.141-14.242s8.87,22.41,0.486,23.386s5.291-17.061,15.688-5.676s-12.892,31.592-22.209,23.93    s-1.79-19.736,0.372-12.29s-4.024,14.639-20.719,14.134s-8.759-26.097-3.02-18.543s-4.061,15.868-15.726,6.905    C-6.068,218.174,7.607,200.137,15.806,205.305z"/>
		<path style="fill:#241726;" d="M25.971,239.872c-0.543,0-1.097-0.008-1.663-0.025c-5.473-0.167-9.29-3.021-10.583-7.871    c-2.875-0.403-5.894-1.771-8.781-3.99c-4.538-3.489-6.045-8.711-4.136-14.332c1.97-5.793,7.16-10.332,11.817-10.332    c0.704,0,1.383,0.1,2.033,0.295c0.009-2.218,0.399-5.983,2.662-8.531c2.561-2.881,6.74-3.397,12.29-1.452    c2.131,0.748,3.993,1.705,5.551,2.856c2.649-2.72,6.002-4.264,9.333-4.264c2.341,0,4.633,0.733,6.816,2.175    c5.057,3.342,8.087,8.421,8.272,13.76c2.99,0.121,5.714,1.506,8.102,4.122c3.211,3.516,3.772,8.191,1.579,13.16    c-3.348,7.591-12.458,14.251-19.496,14.253c0,0-0.001,0-0.002,0c-2.26,0-4.198-0.652-5.758-1.936    c-0.729-0.597-1.387-1.245-1.965-1.93C38.444,238.476,32.92,239.872,25.971,239.872z M15.993,232.088    c0.917,2.711,3.145,5.461,8.381,5.619c0.544,0.017,1.076,0.025,1.598,0.025c7.991,0,12.421-1.865,14.827-3.643    c-2.285-3.812-2.065-7.953-0.746-10.51c0.769-1.489,1.874-2.342,3.032-2.342c0.784,0,2.217,0.403,3.002,3.104    c1.083,3.731,0.197,7.351-2.428,10.081c0.499,0.593,1.072,1.157,1.709,1.684c1.169,0.959,2.649,1.448,4.4,1.448    c0.001,0,0.001,0,0.002,0c6.184-0.002,14.544-6.188,17.539-12.977c1.294-2.935,2.136-7.201-1.201-10.856    c-1.983-2.17-4.203-3.324-6.603-3.426c-0.57,5.116-3.827,8.939-8.173,9.444c-0.266,0.029-0.516,0.044-0.746,0.044h-0.001    c-2.182,0.002-3.004-1.318-3.046-2.553c-0.102-3.025,4.306-8.055,9.909-8.945c-0.142-4.665-2.825-9.135-7.316-12.103    c-4.411-2.916-9.532-2.135-13.333,1.692c3.576,3.497,4.211,7.754,3.181,10.583c-0.722,1.978-2.244,3.209-3.973,3.209    c0,0,0,0-0.001,0c-1.057,0-2.139-0.46-3.13-1.329c-3.209-2.814-2.089-8.21,0.894-12.218c-1.362-0.984-2.995-1.811-4.867-2.469    c-4.659-1.636-8.009-1.364-9.983,0.854c-2.686,3.025-2.059,8.619-2.052,8.675c0.048,0.409-0.143,0.811-0.491,1.03    c-0.349,0.221-0.793,0.221-1.142,0c-0.789-0.497-1.667-0.75-2.609-0.75c-3.735,0-8.127,3.986-9.791,8.882    c-1.597,4.698-0.353,9.054,3.413,11.947c2.354,1.809,4.773,2.985,7.075,3.449c-0.416-4.13,0.891-8.143,2.574-10.202    c0.943-1.155,2.036-1.765,3.161-1.765c0.792,0,1.975,0.315,3.115,1.815c2.027,2.668,2.466,5.655,1.205,8.197    C22.12,230.317,19.32,231.938,15.993,232.088z M43.085,223.377c-0.201,0-0.685,0.322-1.131,1.184    c-0.966,1.872-1.155,5.057,0.466,8.049c1.869-2.133,2.443-4.815,1.614-7.671C43.703,223.801,43.276,223.377,43.085,223.377z     M19.058,219.91c-0.454,0-0.988,0.347-1.504,0.98c-1.434,1.757-2.518,5.517-2.049,9.07c2.763-0.006,4.988-1.174,5.957-3.127    c0.887-1.786,0.525-3.956-0.991-5.951C20.133,220.438,19.615,219.91,19.058,219.91z M57.323,210.484    c-4.444,0.95-7.7,5.066-7.646,6.676c0.006,0.192,0.017,0.485,0.907,0.485c0.001,0,0.001,0,0.001,0c0.155,0,0.322-0.01,0.499-0.031    C54.299,217.24,56.743,214.382,57.323,210.484z M35.404,199.505c-2.575,3.489-3.11,7.478-1.118,9.225    c1.512,1.326,3.007,0.856,3.684-1.005C38.751,205.583,38.213,202.31,35.404,199.505z"/>
	</g>
	<path style="fill:#241726;" d="M253.812,175.413l-0.025-0.019c-3.223-2.498-3.811-7.153-1.311-10.377   c2.488-3.209,7.131-3.806,10.351-1.331c1.586,1.23,2.584,2.977,2.831,4.938c0.247,1.958-0.283,3.898-1.492,5.458   C261.676,177.29,257.03,177.887,253.812,175.413z M261.542,165.396c-2.307-1.773-5.606-1.348-7.374,0.932   c-1.777,2.291-1.359,5.6,0.93,7.376l-0.634,0.862l0.652-0.848c2.287,1.758,5.588,1.334,7.359-0.946   c0.861-1.109,1.237-2.487,1.06-3.881C263.36,167.497,262.651,166.256,261.542,165.396z"/>
	<path style="fill:#241726;" d="M42.032,56.021l-0.025-0.019c-3.223-2.498-3.811-7.153-1.311-10.377   c2.488-3.209,7.131-3.806,10.351-1.331c1.587,1.23,2.584,2.977,2.831,4.938c0.247,1.958-0.283,3.898-1.492,5.458   C49.895,57.898,45.25,58.495,42.032,56.021z M49.761,46.004c-2.307-1.773-5.606-1.348-7.374,0.932   c-1.777,2.291-1.359,5.6,0.93,7.376l-0.634,0.862l0.652-0.848c2.287,1.758,5.588,1.334,7.359-0.946   c0.86-1.109,1.237-2.487,1.06-3.881C51.579,48.105,50.87,46.864,49.761,46.004z"/>
	<path style="fill:#241726;" d="M29.207,474.887l-0.025-0.019c-3.223-2.498-3.811-7.153-1.311-10.377   c2.488-3.209,7.131-3.806,10.351-1.331c1.587,1.23,2.584,2.977,2.831,4.938c0.247,1.958-0.283,3.898-1.492,5.458   C37.071,476.764,32.425,477.361,29.207,474.887z M36.936,464.87c-2.307-1.773-5.606-1.348-7.374,0.932   c-1.777,2.291-1.359,5.6,0.93,7.376l-0.634,0.862l0.652-0.848c2.287,1.758,5.588,1.334,7.359-0.946   c0.861-1.109,1.237-2.487,1.06-3.881C38.754,466.971,38.046,465.73,36.936,464.87z"/>
	<path style="fill:#241726;" d="M376.691,479.7l-0.025-0.019c-3.223-2.498-3.811-7.153-1.311-10.377   c2.488-3.209,7.131-3.806,10.351-1.331c1.586,1.23,2.584,2.977,2.831,4.938c0.247,1.958-0.283,3.898-1.492,5.458   C384.555,481.577,379.909,482.174,376.691,479.7z M384.42,469.683c-2.307-1.773-5.606-1.348-7.374,0.932   c-1.777,2.291-1.359,5.6,0.93,7.376l-0.634,0.862l0.652-0.848c2.287,1.758,5.588,1.334,7.359-0.946   c0.861-1.109,1.237-2.487,1.06-3.881C386.238,471.784,385.529,470.543,384.42,469.683z"/>
	<path style="fill:#241726;" d="M267.955,111.44l-0.006,0l-4.138-0.014l4.383-2.972c0.489-0.332,0.617-0.997,0.285-1.486   c-0.334-0.491-1.003-0.613-1.486-0.285l-5.914,4.009l0.131-6.909c0.012-0.591-0.458-1.078-1.049-1.09l-0.006,0   c-0.587-0.008-1.072,0.46-1.083,1.049l-0.116,6.097l-3.617-3.923c-0.402-0.431-1.076-0.463-1.512-0.061   c-0.434,0.4-0.461,1.078-0.061,1.512l3.721,4.036l-6.853-0.024c-0.591-0.001-1.072,0.475-1.073,1.066   c-0.001,0.587,0.469,1.065,1.056,1.073l0.01,0l6.251,0.022l-4.884,3.311c-0.489,0.332-0.617,0.997-0.285,1.486   c0.205,0.301,0.535,0.465,0.871,0.469c0.213,0.003,0.427-0.057,0.615-0.184l5.667-3.842l-0.132,6.96   c-0.012,0.591,0.458,1.078,1.049,1.09h0.006c0.587,0.008,1.072-0.46,1.083-1.049l0.125-6.574l3.855,4.181   c0.208,0.224,0.489,0.341,0.773,0.344c0.263,0.004,0.53-0.089,0.739-0.283c0.434-0.4,0.461-1.078,0.061-1.512l-4.037-4.379   l5.556,0.02c0.591,0.001,1.072-0.475,1.073-1.066C269.016,111.926,268.546,111.448,267.955,111.44z"/>
	<path style="fill:#241726;" d="M38.359,282.568l-0.006,0l-4.138-0.014l4.383-2.972c0.489-0.332,0.617-0.997,0.285-1.486   c-0.334-0.491-1.003-0.613-1.486-0.285l-5.914,4.009l0.131-6.909c0.012-0.591-0.458-1.078-1.049-1.09l-0.006,0   c-0.587-0.008-1.072,0.46-1.083,1.049l-0.116,6.097l-3.617-3.923c-0.402-0.431-1.076-0.463-1.512-0.061   c-0.434,0.4-0.461,1.078-0.061,1.512l3.721,4.036l-6.853-0.024c-0.591-0.001-1.072,0.475-1.073,1.066   c-0.001,0.587,0.469,1.065,1.056,1.073l0.01,0l6.251,0.022l-4.884,3.311c-0.489,0.332-0.617,0.997-0.285,1.486   c0.205,0.301,0.535,0.465,0.871,0.469c0.213,0.003,0.427-0.057,0.615-0.184l5.667-3.842l-0.132,6.96   c-0.012,0.591,0.458,1.078,1.049,1.09h0.006c0.587,0.008,1.072-0.46,1.083-1.049l0.125-6.574l3.855,4.181   c0.208,0.224,0.489,0.341,0.773,0.344c0.263,0.004,0.53-0.089,0.739-0.283c0.434-0.4,0.461-1.078,0.061-1.512l-4.037-4.379   l5.556,0.02c0.591,0.001,1.072-0.475,1.073-1.066C39.42,283.054,38.95,282.575,38.359,282.568z"/>
	<path style="fill:#241726;" d="M479.013,429.452l-0.006,0l-4.138-0.014l4.383-2.972c0.489-0.332,0.617-0.997,0.285-1.486   c-0.334-0.491-1.003-0.613-1.486-0.285l-5.914,4.009l0.131-6.909c0.012-0.591-0.458-1.078-1.049-1.09l-0.006,0   c-0.587-0.008-1.072,0.46-1.083,1.049l-0.116,6.097l-3.617-3.923c-0.402-0.431-1.076-0.463-1.512-0.061   c-0.434,0.4-0.461,1.078-0.061,1.512l3.721,4.036l-6.853-0.024c-0.591-0.001-1.072,0.475-1.073,1.066   c-0.001,0.587,0.469,1.065,1.056,1.073l0.01,0l6.251,0.022l-4.884,3.311c-0.489,0.332-0.617,0.997-0.285,1.486   c0.205,0.301,0.535,0.465,0.871,0.469c0.213,0.003,0.427-0.057,0.615-0.184l5.667-3.842l-0.132,6.96   c-0.012,0.591,0.458,1.078,1.049,1.09h0.006c0.587,0.008,1.072-0.46,1.083-1.049l0.125-6.574l3.855,4.181   c0.208,0.224,0.489,0.341,0.773,0.344c0.263,0.004,0.53-0.089,0.739-0.283c0.434-0.4,0.461-1.078,0.061-1.512l-4.037-4.379   l5.556,0.02c0.591,0.001,1.072-0.475,1.073-1.066C480.074,429.938,479.604,429.46,479.013,429.452z"/>
	<path style="fill:#241726;" d="M431.008,204.437c-0.796,0-1.55,0-3.53-8.345c-7.017-1.446-7.622-2.283-7.824-2.563   c-0.195-0.267-0.274-0.758-0.18-1.076c0.133-0.449,0.441-1.489,8.521-4.625c2.975-7.464,3.948-7.464,4.596-7.464   c0.344,0,0.814,0.249,1.015,0.526c0.508,0.7,0.952,2.509,1.624,5.402c0.21,0.905,0.464,1.997,0.611,2.478   c0.42,0.194,1.346,0.539,2.114,0.827c4.113,1.535,5.172,2.053,5.353,3.042c0.067,0.372-0.128,0.909-0.411,1.157   c-0.849,0.742-4.863,2.173-6.968,2.891c-3.502,7.696-4.23,7.723-4.874,7.75C431.04,204.437,431.022,204.437,431.008,204.437z    M422.387,192.644c1.401,0.424,3.955,1.04,6.185,1.485c0.412,0.081,0.736,0.397,0.831,0.806c0.541,2.323,1.253,4.97,1.771,6.484   c0.798-1.393,2.011-3.858,2.997-6.039c0.122-0.269,0.351-0.478,0.633-0.572c1.919-0.648,4.088-1.446,5.439-2.016   c-0.935-0.409-2.21-0.884-3.036-1.193c-2.349-0.877-2.791-1.065-3.09-1.479c-0.26-0.359-0.417-0.955-0.971-3.344   c-0.209-0.9-0.531-2.283-0.819-3.319c-0.718,1.329-1.728,3.589-2.515,5.592c-0.11,0.278-0.332,0.497-0.612,0.606   C426.705,190.614,423.873,191.838,422.387,192.644z"/>
	<path style="fill:#241726;" d="M21.05,333.57c-0.796,0-1.55,0-3.53-8.345c-7.017-1.446-7.622-2.283-7.824-2.563   c-0.195-0.267-0.275-0.758-0.18-1.076c0.133-0.449,0.441-1.489,8.52-4.625c2.975-7.464,3.948-7.464,4.597-7.464   c0.343,0,0.814,0.249,1.014,0.526c0.508,0.7,0.953,2.507,1.623,5.398c0.211,0.907,0.465,1.999,0.613,2.482   c0.42,0.194,1.345,0.539,2.114,0.827c4.113,1.535,5.172,2.053,5.353,3.042c0.067,0.372-0.128,0.909-0.412,1.157   c-0.849,0.742-4.863,2.173-6.968,2.891c-3.502,7.696-4.23,7.723-4.874,7.75C21.082,333.57,21.065,333.57,21.05,333.57z    M12.429,321.778c1.401,0.424,3.955,1.04,6.185,1.485c0.412,0.081,0.736,0.397,0.831,0.806c0.541,2.323,1.253,4.97,1.771,6.484   c0.798-1.393,2.011-3.858,2.997-6.039c0.122-0.269,0.351-0.478,0.633-0.572c1.919-0.648,4.088-1.446,5.439-2.016   c-0.935-0.409-2.21-0.884-3.036-1.193c-2.349-0.877-2.791-1.065-3.09-1.479c-0.26-0.357-0.417-0.955-0.973-3.349   c-0.209-0.9-0.529-2.281-0.817-3.315c-0.719,1.329-1.728,3.589-2.516,5.592c-0.11,0.278-0.332,0.497-0.612,0.606   C16.748,319.747,13.915,320.971,12.429,321.778z"/>
	<g>
		<g>
			<path style="fill:#52AFA6;" d="M432.958,41.508c-15.234-6.161-26.945,10.813-32.339,20.875l8.055,3.978     c0,0,12.204-22.622,22.449-14.835c10.245,7.787,1.565,26.903,1.565,26.903l9.646,5.39     C446.073,72.725,451.507,49.01,432.958,41.508z"/>
			<path style="fill:#B1739A;" d="M441.952,22.009c42.161,19.912,27.165,59.663,20.557,73.082l6.595,3.685     c0,0,26.914-59.192-18.779-84.609c-45.694-25.418-76.717,34.877-76.717,34.877l7.484,3.696     C388.426,38.482,409.181,6.532,441.952,22.009z"/>
			<path style="fill:#E17B8D;" d="M441.952,22.009c-32.77-15.477-53.526,16.473-60.861,30.73l9.859,4.868     c7.735-14.884,26.579-41.757,54.76-22.261c18.469,12.777,11.682,41.194,7.229,54.397l9.569,5.347     C469.117,81.673,484.113,41.922,441.952,22.009z"/>
			<path style="fill:#E6B300;" d="M445.71,35.347c-28.182-19.496-47.025,7.378-54.76,22.261l9.669,4.775     c5.394-10.062,17.106-27.036,32.339-20.875c18.549,7.502,13.115,31.217,9.376,42.31l10.605,5.926     C457.393,76.54,464.179,48.123,445.71,35.347z"/>
		</g>
		<path style="fill:#241726;" d="M462.676,95.201c-0.178,0-0.358-0.044-0.524-0.138c-0.514-0.29-0.696-0.942-0.406-1.456    c0.062-0.111,6.219-11.176,7.543-25.076c1.762-18.483-5.418-32.983-21.34-43.097c-9.648-6.127-19.438-7.932-29.095-5.373    c-22.175,5.885-36.674,32.907-36.818,33.179c-0.274,0.522-0.922,0.723-1.445,0.447s-0.723-0.923-0.446-1.446    c0.605-1.147,15.089-28.126,38.16-34.249c10.258-2.716,20.618-0.825,30.79,5.636c39.724,25.237,14.77,70.573,14.513,71.029    C463.413,95.004,463.05,95.201,462.676,95.201z"/>
		<path style="fill:#241726;" d="M452.94,90.814c-0.12,0-0.242-0.021-0.362-0.063c-0.556-0.201-0.844-0.813-0.643-1.368    c0.151-0.422,14.869-42.293-10.279-55.376c-7.4-3.85-14.823-4.625-22.062-2.287c-16.96,5.463-27.584,26.162-27.689,26.371    c-0.264,0.526-0.908,0.737-1.437,0.472c-0.527-0.267-0.738-0.911-0.472-1.437c0.447-0.884,11.139-21.708,28.943-27.443    c7.805-2.517,15.779-1.696,23.706,2.427c26.803,13.944,11.461,57.557,11.302,57.998C453.789,90.542,453.378,90.814,452.94,90.814z    "/>
		<path style="fill:#241726;" d="M442.334,84.887c-0.126,0-0.256-0.023-0.381-0.071c-0.551-0.209-0.828-0.827-0.618-1.379    c0.116-0.305,11.351-30.447-6.5-39.987c-3.896-2.085-7.965-2.503-12.09-1.237c-12.101,3.702-21.091,20.499-21.18,20.668    c-0.276,0.522-0.923,0.723-1.446,0.447c-0.522-0.276-0.723-0.923-0.447-1.446c0.381-0.723,9.487-17.746,22.441-21.715    c4.696-1.433,9.313-0.965,13.731,1.393c8.128,4.345,11.983,13.15,11.149,25.46c-0.617,9.12-3.536,16.852-3.659,17.178    C443.171,84.626,442.764,84.887,442.334,84.887z"/>
	</g>
	<polygon style="fill:#E6B300;" points="455.501,460.677 468.461,453.266 465.383,467.023 474.69,475.906 463.348,479.358    457.112,491.185 451.587,480.31 437.339,479.13 448.174,469.003 443.579,456.501  "/>
	<polygon style="fill:#E6B300;" points="34.288,77.598 47.247,70.187 44.169,83.944 53.477,92.827 42.134,96.279 35.898,108.106    30.373,97.231 16.126,96.052 26.961,85.924 22.365,73.422  "/>
	<g>
		<g>
			<path style="fill:#E17B8D;" d="M167.535,474.574c0,0-13.344-17.878,1.223-22.367c10.298-3.174,10.316,20.161,7.606,16.198     c-2.71-3.964,7.24-11.887,12.371-3.603C193.866,473.086,174.695,486.568,167.535,474.574z"/>
			<path style="fill:#241726;" d="M177.594,474.903c-0.479,0-0.915-0.324-1.036-0.811c-0.143-0.572,0.206-1.153,0.778-1.297     c1.182-0.295,4.41-1.494,5.146-3.459c0.355-0.948,0.104-2.018-0.768-3.269c-1.288-1.849-2.479-1.523-3.26-1.118     c-0.891,0.462-1.682,1.293-2.299,2.183c0.281,2.043,0.116,4.37-0.983,5.097c-0.55,0.368-1.238,0.315-1.793-0.132     c-0.49-0.395-0.984-1.222-0.553-2.91c0.194-0.762,0.567-1.644,1.08-2.511c-0.139-0.648-0.346-1.291-0.64-1.861     c-0.837-1.617-1.847-1.644-2.179-1.652c-0.586-0.035-0.988,0.148-1.298,0.533c-1.3,1.609-0.583,6.125-0.23,7.579     c0.14,0.574-0.213,1.153-0.786,1.293c-0.573,0.123-1.152-0.215-1.292-0.788c-0.165-0.679-1.549-6.714,0.644-9.427     c0.727-0.902,1.783-1.345,3.019-1.329c1.916,0.052,3.467,1.327,4.354,3.541c0.964-1.003,2.117-1.776,3.363-2.001     c1.221-0.228,3.013-0.008,4.607,2.279c1.288,1.849,1.628,3.614,1.013,5.25c-1.286,3.42-6.412,4.725-6.63,4.78     C177.766,474.892,177.679,474.903,177.594,474.903z"/>
		</g>
		<g>
			<path style="fill:#E17B8D;" d="M165.265,477.302c0,0-22.143-2.712-18.811,12.162c2.355,10.515,22.623-1.05,17.837-1.436     c-4.786-0.385-6.726,12.186,3.012,12.528S179.231,477.565,165.265,477.302z"/>
			<path style="fill:#241726;" d="M165.564,496.003c-0.271,0-0.55-0.015-0.839-0.04c-2.775-0.249-3.852-1.696-4.266-2.868     c-0.423-1.193-0.324-2.58,0.068-3.915c-2.362,0.33-4.24-0.386-5.234-2.022c-0.648-1.065-0.768-2.2-0.347-3.28     c1.268-3.25,7.193-5.043,7.865-5.237c0.578-0.167,1.16,0.165,1.323,0.731c0.164,0.566-0.163,1.159-0.73,1.324     c-2.145,0.62-5.798,2.246-6.465,3.959c-0.179,0.462-0.123,0.89,0.182,1.391c0.172,0.284,0.717,1.126,2.517,1.072     c0.64-0.027,1.302-0.167,1.933-0.368c0.499-0.875,1.079-1.636,1.643-2.183c1.25-1.212,2.215-1.193,2.801-0.965     c0.663,0.259,1.048,0.829,1.004,1.492c-0.087,1.318-2.033,2.617-3.949,3.386c-0.456,0.98-0.785,2.076-0.743,3.077     c0.037,0.882,0.345,2.074,2.587,2.275c1.527,0.138,2.575-0.178,3.222-0.959c1.345-1.623,0.779-5.011,0.448-6.179     c-0.161-0.568,0.168-1.159,0.736-1.322c0.568-0.157,1.159,0.169,1.321,0.737c0.062,0.215,1.472,5.314-0.859,8.128     C168.814,495.41,167.396,496.001,165.564,496.003z"/>
		</g>
		<path style="fill:#241726;" d="M161.353,472.607c-0.259,0-0.518-0.094-0.723-0.282c-0.389-0.355-9.504-8.79-9.426-14.575    c0.019-1.421,0.551-2.595,1.581-3.491c0.445-0.389,1.121-0.341,1.509,0.104c0.388,0.445,0.34,1.122-0.105,1.508    c-0.566,0.493-0.836,1.099-0.846,1.905c-0.054,4.011,6.286,10.725,8.734,12.972c0.434,0.399,0.464,1.076,0.064,1.51    C161.929,472.49,161.641,472.607,161.353,472.607z"/>
		<path style="fill:#241726;" d="M159.141,475.684c-0.186,0-0.373-0.048-0.544-0.148c-0.095-0.058-9.581-5.58-14.372-1.245    c-0.438,0.397-1.114,0.363-1.51-0.073c-0.397-0.439-0.363-1.116,0.075-1.51c5.957-5.396,16.455,0.725,16.898,0.988    c0.508,0.301,0.676,0.955,0.375,1.464C159.862,475.496,159.506,475.684,159.141,475.684z"/>
	</g>
	<g>
		<g>
			<path style="fill:#E17B8D;" d="M304.695,45.742c0,0,22.254-1.554,18.152,13.126c-2.9,10.378-22.537-2.228-17.738-2.363     s6.082,12.52-3.661,12.354S290.735,45.277,304.695,45.742z"/>
			<path style="fill:#241726;" d="M303.891,64.413c-2.063,0-3.607-0.671-4.592-1.993c-2.181-2.931-0.507-7.951-0.435-8.162     c0.19-0.56,0.799-0.852,1.356-0.668c0.559,0.19,0.859,0.798,0.669,1.358c-0.391,1.153-1.128,4.516,0.127,6.198     c0.606,0.813,1.646,1.193,3.165,1.122c2.25-0.084,2.621-1.258,2.703-2.135c0.094-0.999-0.179-2.116-0.593-3.117     c-1.87-0.867-3.738-2.264-3.756-3.583c-0.009-0.662,0.404-1.214,1.08-1.437c0.602-0.198,1.559-0.167,2.748,1.109     c0.535,0.577,1.074,1.366,1.527,2.267c0.618,0.232,1.272,0.407,1.911,0.468c1.809,0.155,2.38-0.664,2.568-0.938     c0.331-0.487,0.409-0.913,0.254-1.381c-0.577-1.746-4.139-3.56-6.249-4.293c-0.558-0.194-0.853-0.804-0.66-1.362     c0.194-0.556,0.799-0.852,1.36-0.66c0.66,0.23,6.483,2.329,7.58,5.642c0.365,1.101,0.186,2.227-0.517,3.257     c-1.078,1.583-2.993,2.195-5.331,1.746c0.321,1.354,0.348,2.743-0.136,3.913c-0.475,1.149-1.625,2.538-4.41,2.643     C304.137,64.411,304.013,64.413,303.891,64.413z"/>
		</g>
		<g>
			<path style="fill:#E17B8D;" d="M303.628,42.357c0,0,14.257-17.158-0.055-22.4c-10.118-3.706-11.352,19.596-8.44,15.779     c2.913-3.817-6.611-12.249-12.167-4.242C277.411,39.5,295.853,53.961,303.628,42.357z"/>
			<path style="fill:#241726;" d="M293.622,42.162c-0.102,0-0.207-0.015-0.311-0.046c-0.214-0.065-5.265-1.636-6.372-5.118     c-0.53-1.665-0.097-3.411,1.285-5.189c1.71-2.2,3.508-2.321,4.718-2.037c1.234,0.29,2.345,1.124,3.257,2.175     c1.002-2.164,2.658-3.288,4.532-3.309c1.247,0.031,2.265,0.545,2.946,1.483c2.048,2.824,0.353,8.778,0.152,9.448     c-0.169,0.566-0.766,0.879-1.331,0.719c-0.565-0.169-0.888-0.765-0.719-1.331c0.637-2.141,1.245-6.091,0.164-7.581     c-0.29-0.399-0.681-0.585-1.268-0.6c-0.341-0.025-1.343-0.031-2.261,1.535c-0.324,0.556-0.565,1.189-0.736,1.828     c0.466,0.892,0.792,1.79,0.946,2.559c0.344,1.711-0.192,2.511-0.702,2.881c-0.579,0.42-1.265,0.435-1.799,0.038     c-1.061-0.785-1.103-3.125-0.713-5.153c-0.576-0.913-1.321-1.782-2.185-2.29c-0.76-0.443-1.931-0.825-3.313,0.946     c-0.936,1.205-1.242,2.262-0.935,3.23c0.638,2.01,3.794,3.365,4.956,3.718c0.565,0.171,0.884,0.769,0.712,1.335     C294.505,41.865,294.081,42.162,293.622,42.162z"/>
		</g>
		<path style="fill:#241726;" d="M328.7,45.546c-0.523,0-0.98-0.382-1.057-0.915c-0.109-0.744-0.472-1.297-1.145-1.742    c-3.348-2.214-12.42-0.514-15.633,0.33c-0.572,0.161-1.156-0.19-1.306-0.762c-0.15-0.572,0.191-1.155,0.762-1.306    c1.278-0.336,12.617-3.184,17.356-0.046c1.184,0.785,1.884,1.868,2.081,3.217c0.086,0.585-0.32,1.128-0.905,1.214    C328.802,45.542,328.751,45.546,328.7,45.546z"/>
		<path style="fill:#241726;" d="M309.201,39.73c-0.392,0-0.769-0.215-0.957-0.591c-0.264-0.526-0.051-1.17,0.476-1.435    c0.099-0.048,9.878-5.041,8.82-11.416c-0.097-0.583,0.297-1.134,0.879-1.23c0.593-0.107,1.134,0.299,1.23,0.879    c1.316,7.93-9.51,13.449-9.972,13.681C309.525,39.695,309.362,39.73,309.201,39.73z"/>
	</g>
	<path style="fill:#241726;" d="M466.62,408.735c-0.124,0-0.249-0.021-0.369-0.065c-0.327-0.121-0.576-0.393-0.665-0.731   c-0.609-2.294-5.847-22.575-2.213-28.048c0.585-0.882,1.4-1.418,2.354-1.552c3.373-0.491,6.096,1.159,7.8,4.36   c2.339-1.673,4.91-2.645,7.076-2.645c2.355,0,4.221,1.08,5.395,3.123c4.919,8.563-16.329,23.672-18.768,25.366   C467.049,408.67,466.835,408.735,466.62,408.735z M466.835,380.398c-0.261,0-0.533,0.019-0.812,0.059   c-0.217,0.031-0.544,0.127-0.869,0.618c-2.433,3.662,0.419,17.965,2.115,24.815c6.761-4.926,20.012-16.185,16.874-21.648   c-0.793-1.379-1.95-2.049-3.54-2.049c-1.851,0-4.135,0.936-6.219,2.53c0.964,2.937,0.93,6.144-0.135,7.708   c-0.476,0.7-1.159,1.086-1.924,1.086l0,0c-0.136,0-0.275-0.013-0.419-0.038c-2.335-0.418-3.129-1.644-3.383-2.597   c-0.594-2.229,1.222-4.88,3.304-6.804C471.056,382.468,469.538,380.398,466.835,380.398z M472.611,386.304   c-1.593,1.669-2.237,3.215-2.021,4.027c0.138,0.514,0.708,0.865,1.695,1.042c0.052,0.017,0.158-0.09,0.196-0.146   C473.01,390.45,473.124,388.424,472.611,386.304z"/>
	<path style="fill:#241726;" d="M45.836,156.321c-0.215,0-0.428-0.065-0.61-0.192c-2.439-1.694-23.688-16.804-18.769-25.366   c1.174-2.043,3.039-3.123,5.396-3.123c2.166,0,4.738,0.971,7.076,2.645c1.704-3.2,4.422-4.846,7.8-4.36   c0.955,0.134,1.768,0.671,2.354,1.552c3.633,5.473-1.604,25.755-2.213,28.049c-0.09,0.338-0.338,0.61-0.665,0.731   C46.085,156.301,45.961,156.321,45.836,156.321z M31.853,129.779c-1.591,0-2.748,0.671-3.541,2.049   c-3.138,5.463,10.114,16.722,16.875,21.648c1.696-6.852,4.547-21.153,2.115-24.817c-0.326-0.489-0.652-0.585-0.869-0.616   c-3.164-0.457-4.958,1.855-5.804,3.622c2.082,1.924,3.898,4.575,3.304,6.804c-0.254,0.953-1.048,2.179-3.383,2.597   c-0.955,0.167-1.782-0.224-2.343-1.049c-1.064-1.565-1.099-4.771-0.135-7.708C35.987,130.715,33.704,129.779,31.853,129.779z    M39.845,133.89c-0.513,2.12-0.399,4.147,0.13,4.924c0.039,0.056,0.114,0.15,0.156,0.15c1.028-0.182,1.598-0.533,1.736-1.047   C42.083,137.105,41.438,135.559,39.845,133.89z"/>
	<g>
		<path style="fill:#B45036;" d="M402.54,240.119c-6.584-22.817-36.521-18.826-43.875-27.021c-1.398-1.557-0.711-6.935,0.595-12.769    c8.841-4.019,13.418-9.654,15.734-14.777c0.207,2.754,1.487,5.081,4.643,6.25c11.438,4.234,22.41-9.992,21.268-23.151    c-1.142-13.159-19.58-0.506-19.58-0.506s-2.203,3.262-4.017,7.402c0.044-1.624-0.094-2.617-0.094-2.617    s31.704-58.217,9.073-65.313c0,0-50.866-28.347-72.598-8.331c-5.804,5.345-12.37,21.211-16.347,37.521    c-3.139-4.224-7.474-7.39-11.826-1.993c-8.291,10.281-7.128,28.209,4.726,31.08c1.325,0.321,2.493,0.298,3.538,0.031    c1.09,22.737,13.635,32.923,24.984,37.112c-0.889,5.239-2.232,9.705-4.264,11.122c-5.885,4.104-35.458,6.069-33.319,17.834    c2.061,11.334,18.681,47.699,50.768,47.699C372.536,279.693,409.124,262.937,402.54,240.119z"/>
		<path style="fill:#E38B72;" d="M246.422,228.429c-9.98-5.753-32.532-4.374-38.429-8.461c-3.191-2.211-4.712-11.909-5.438-20.348    c9.605-4.313,18.908-13.341,22.08-31.118c1.001,0.399,2.157,0.571,3.512,0.423c12.124-1.326,15.578-18.956,8.675-30.217    c-3.624-5.91-8.329-3.327-11.984,0.46c-1.851-16.685-6.328-33.263-11.398-39.309c-18.985-22.639-66.941-0.693-66.941-0.693    c-16.848,2.982-12.254,35.785-8.387,53.833c-5.145-3.31-12.552-6.374-14.348,1.843c-2.82,12.904,6.236,28.42,18.122,25.688    c0.771-0.177,1.444-0.435,2.036-0.755c3.068,6.604,9.207,13.954,21.361,18.9c1.384,7.234,1.988,15.822-1.459,20.361    c-6.66,8.769-42.799,2.242-49.315,25.078c-6.516,22.836,47.456,45.677,84.101,35.988    C252.54,265.844,256.402,234.182,246.422,228.429z"/>
		<path style="fill:#E17B8D;" d="M467.462,234.49c-1.248,6.596-14.261,49.912-14.261,49.912    c-4.182-8.625-22.217-44.861-23.352-46.525c-10.695-15.687-54.369-19.252-61.499-21.391s-22.104,47.238-34.939,42.247    c-12.835-4.991-18.91-44.573-18.91-44.573s-44.549,8.208-49.541,16.765c-4.991,8.556,4.278,156.154,12.835,154.015    c8.556-2.139,144.745,11.408,144.745-2.139c0-5.431,2.894-27.284,5.672-52.524c15.541,17.044,32.807,31.905,42.814,27.568    c21.391-9.269,37.969-101.785,37.969-101.785S468.629,228.32,467.462,234.49z"/>
		<path style="fill:#E6B300;" d="M264.961,233.064c-6.417-12.122-35.295-10.339-42.782-11.408    c-7.487-1.07-3.922,53.477-29.591,44.564c-25.669-8.913-30.66-43.495-30.66-43.495s-41.326,6.805-42.425,7.487    c0,0-95.19,53.477-67.382,134.407c6.845,19.92,43.107,4.043,70.421-6.38c4.354,24.991,9.824,43.48,15.5,41.318    c14.974-5.704,135.833,0.357,136.546-17.826C275.3,363.549,271.378,245.185,264.961,233.064z"/>
		<path style="fill:#E47947;" d="M229.149,315.596c0,0,3.585-23.162,10.679-23.879s0.678,21.932,0.678,21.932    s14.314-23.738,17.797-17.64c3.483,6.098-8.788,22.545-8.788,22.545s16.532,0.478,15.83,7.716    c-0.701,7.238-7.421,25.834-13.662,27.898c-6.241,2.064-21.673-4.257-25.794-9.573    C221.768,339.277,229.149,315.596,229.149,315.596z"/>
		<path style="fill:#B45036;" d="M477.213,209.659c0,0,6.293-22.577,13.422-22.452c7.129,0.125-1.915,21.859-1.915,21.859    s17.015-21.883,19.754-15.417s-11.387,21.35-11.387,21.35s16.36,2.426,14.809,9.53s-10.418,24.778-16.859,26.091    c-6.441,1.314-21.019-6.785-24.484-12.55C467.089,232.304,477.213,209.659,477.213,209.659z"/>
		<path style="fill:#241726;" d="M352.963,170.549c-0.002,0-0.005,0-0.007,0c-0.492-0.004-0.922-0.211-1.213-0.583    c-1.53-1.968,0.511-11.429,1.863-16.891c0.141-0.574,0.72-0.921,1.295-0.781c0.573,0.142,0.923,0.723,0.781,1.295    c-1.437,5.805-2.649,12.649-2.353,14.662c1.837-1.017,6.858-6.532,10.866-11.554c0.368-0.462,1.041-0.537,1.503-0.169    c0.462,0.368,0.537,1.04,0.168,1.502C362.136,162.707,355.501,170.549,352.963,170.549z"/>
		<path style="fill:#241726;" d="M315.621,160.261c-0.021,0-0.042,0-0.062,0c-0.544-0.008-1.004-0.334-1.23-0.871    c-1.014-2.413-2.215-15.554-2.349-17.044c-0.052-0.589,0.381-1.109,0.97-1.161c0.584-0.046,1.107,0.38,1.16,0.969    c0.438,4.88,1.235,12.21,1.875,15.249c1.581-2.189,4.724-8.289,7.215-13.72c0.248-0.535,0.882-0.777,1.418-0.524    c0.537,0.247,0.773,0.882,0.526,1.418C318.132,159.862,316.365,160.261,315.621,160.261z"/>
		<path style="fill:#241726;" d="M382.467,182.375c-0.267,0-0.534-0.098-0.742-0.299c-0.425-0.409-0.439-1.086-0.029-1.512    c3.187-3.313,8.906-8.703,11.371-7.694c2.803,1.164,1.584,6.856,1.144,8.573c-0.147,0.57-0.733,0.921-1.301,0.771    c-0.572-0.146-0.917-0.729-0.771-1.301c0.712-2.789,0.767-5.793,0.109-6.066c-0.966-0.104-5.212,3.253-9.01,7.201    C383.028,182.264,382.748,182.375,382.467,182.375z"/>
		<path style="fill:#241726;" d="M293.753,156.675c-0.51,0-0.961-0.366-1.053-0.884c-0.947-5.394-2.586-10.541-3.506-11.017    c-0.649-0.213-2.303,2.446-3.246,5.105c-0.198,0.558-0.811,0.852-1.366,0.65c-0.557-0.196-0.847-0.808-0.65-1.364    c0.592-1.671,2.749-7.073,5.734-6.474c2.622,0.529,4.346,8.203,5.142,12.728c0.101,0.583-0.287,1.136-0.869,1.239    C293.877,156.67,293.815,156.675,293.753,156.675z"/>
		<path style="fill:#241726;" d="M330.064,171.855c-0.162,0-0.327-0.038-0.482-0.115c-1.529-0.773-5.904-2.862-7.762-3.236    c-0.506-0.102-0.9-0.449-1.055-0.93c-0.54-1.675,3.689-7.366,12.569-16.916c0.404-0.43,1.08-0.455,1.511-0.054    c0.432,0.403,0.457,1.08,0.055,1.512c-5.165,5.555-10.8,12.256-11.888,14.487c2.732,0.806,7.321,3.119,7.534,3.227    c0.527,0.267,0.738,0.911,0.472,1.437C330.83,171.64,330.454,171.855,330.064,171.855z"/>
		<path style="fill:#241726;" d="M335.251,207.286c-15.112,0-25.527-8.174-25.666-8.287c-0.461-0.37-0.534-1.042-0.165-1.502    c0.371-0.46,1.044-0.533,1.503-0.167c0.18,0.144,18.125,14.176,40.825,4.297c0.545-0.236,1.173,0.013,1.408,0.554    c0.236,0.541-0.013,1.172-0.554,1.406C346.403,206.285,340.539,207.286,335.251,207.286z"/>
		<path style="fill:#241726;" d="M165.565,165.507c-0.069,0-0.139-0.004-0.21-0.013c-2.513-0.311-8.095-8.949-11.199-14.071    c-0.306-0.503-0.144-1.161,0.36-1.469c0.506-0.305,1.164-0.144,1.47,0.361c3.337,5.507,7.619,11.631,9.303,12.86    c0.544-1.903,0.22-8.882-0.463-14.853c-0.068-0.587,0.354-1.116,0.94-1.184c0.584-0.071,1.119,0.355,1.184,0.942    c0.641,5.592,1.452,15.237-0.318,16.992C166.346,165.356,165.973,165.507,165.565,165.507z"/>
		<path style="fill:#241726;" d="M203.917,160.098c-0.051,0-0.102-0.004-0.154-0.01c-0.706-0.079-2.357-0.265-7.495-16.783    c-0.175-0.564,0.14-1.164,0.704-1.339c0.57-0.175,1.164,0.142,1.339,0.704c1.775,5.703,4.108,12.154,5.395,14.529    c1.032-2.966,2.797-10.276,3.817-14.88c0.128-0.577,0.696-0.942,1.275-0.813c0.578,0.127,0.941,0.7,0.814,1.276    c-0.324,1.46-3.2,14.339-4.516,16.599C204.829,159.839,204.397,160.098,203.917,160.098z"/>
		<path style="fill:#241726;" d="M221.547,159.543c-0.105,0-0.213-0.015-0.319-0.048c-0.564-0.178-0.878-0.777-0.703-1.341    c1.369-4.387,4.065-11.778,6.734-11.966c3.055-0.186,4.483,5.425,4.856,7.157c0.124,0.577-0.242,1.147-0.82,1.27    c-0.576,0.125-1.146-0.24-1.271-0.819c-0.609-2.812-1.906-5.544-2.614-5.473c-0.924,0.345-3.21,5.241-4.842,10.47    C222.426,159.25,222.003,159.543,221.547,159.543z"/>
		<circle style="fill:#DF4F3E;" cx="157.251" cy="173.346" r="8.061"/>
		<circle style="fill:#DF4F3E;" cx="211.056" cy="166.284" r="8.061"/>
		<path style="fill:#241726;" d="M187.122,188.721c-5.054,0-9.218-10.927-10.012-13.152c-0.2-0.556,0.091-1.168,0.647-1.366    c0.557-0.194,1.168,0.09,1.367,0.648c1.785,4.988,5.529,11.886,8.101,11.727c0.906-0.069,3.221-1.314,5.179-11.36    c0.113-0.579,0.673-0.957,1.254-0.846c0.58,0.115,0.958,0.675,0.845,1.255c-1.692,8.686-3.953,12.843-7.117,13.083    C187.298,188.717,187.21,188.721,187.122,188.721z"/>
		<path style="fill:#241726;" d="M182.045,171.038c-0.452,0-0.872-0.288-1.018-0.742c-0.181-0.564,0.128-1.166,0.691-1.345    c0.89-0.286,8.274-2.643,11.324-3.113c-0.272-2.281-4.068-10.57-7.739-17.543c-0.276-0.522-0.074-1.168,0.448-1.443    c0.521-0.276,1.17-0.077,1.445,0.449c4.174,7.926,8.907,17.808,7.763,19.864c-0.241,0.432-0.661,0.7-1.154,0.735    c-1.904,0.132-8.898,2.273-11.433,3.085C182.263,171.022,182.154,171.038,182.045,171.038z"/>
		<path style="fill:#241726;" d="M183.056,204.012c-6.482,0-10.806-1.37-11.17-1.492c-0.561-0.184-0.866-0.788-0.682-1.347    c0.185-0.562,0.78-0.867,1.349-0.685c0.174,0.061,17.864,5.621,35.88-6.545c0.489-0.334,1.155-0.201,1.485,0.286    c0.33,0.491,0.202,1.155-0.288,1.485C199.766,202.381,190.126,204.012,183.056,204.012z"/>
		<path style="fill:#241726;" d="M140.429,170.827c-0.328,0-0.651-0.15-0.861-0.432c-3.259-4.401-7.027-8.274-8.062-8.289    c-0.628,0.175-0.965,3.217-0.62,6.018c0.072,0.587-0.344,1.122-0.931,1.193c-0.6,0.077-1.12-0.345-1.192-0.93    c-0.217-1.761-0.697-7.562,2.234-8.354c2.58-0.691,7.556,5.394,10.29,9.087c0.351,0.476,0.252,1.145-0.224,1.496    C140.873,170.758,140.65,170.827,140.429,170.827z"/>
		<path style="fill:#1A1F36;" d="M192.588,79.762c-25.178-3.715-45.326,1.305-59.431,12.404    c-5.207-7.313-20.297-22.215-48.374-3.304c-35.804,24.116-6.759,56.375-25.439,70.811c-18.681,14.436,14.002,24.82,21.267,14.878    c0,0-0.002,5.88-11.59,11.065s16.596,23.264,31.906,1.737c15.31-21.527-2.837-66.495,3.997-77.647    c3.534-5.767,8.938-2.915,14.674-2.134c-3.172,5.267-5.603,11.118-7.226,17.467c-8.2,32.086,16.043,50.625,16.043,50.625    s-6.061-15.33-2.496-21.035c3.565-5.704,12.835,0.713,12.478-1.07c-0.356-1.783-1.07-9.269-1.07-9.269s26.026,2.852,33.869-10.339    c7.843-13.191,0.713-33.156,5.348-27.808c4.635,5.348,4.635,24.6,12.834,28.165c8.2,3.565,32.8,4.278,37.078-0.713    S236.083,86.179,192.588,79.762z"/>
		<path style="fill:#D98011;" d="M335.62,75.912c0,0-15.03-8.751-36.495,6.657c-21.465,15.409-11.352,44.662-1.496,55.555    c9.856,10.893,23.669-40.313,45.985-40.745s37.496,7.474,35.267,34.991s-6.178,42.521-2.297,42.768    c3.881,0.247,13.354-16.4,21.989-10.955s27.342-63.651-3.067-81.652C365.097,64.531,335.62,75.912,335.62,75.912z"/>
		<circle style="fill:#AF342F;" cx="353.19" cy="180.713" r="8.061"/>
		<circle style="fill:#AF342F;" cx="308.975" cy="166.823" r="8.061"/>
		<path style="fill:#E38B72;" d="M424.965,295.119c-1.326-8.306-8.894-5.668-14.22-2.656c4.888-17.799,11.34-50.288-5.311-54.223    c-0.254,1.101-47.058-22.783-66.872-3.116c-5.599,5.557-10.961,21.895-13.695,38.506c-3.424-3.94-7.935-6.7-11.858-1.049    c-7.533,10.849-5.087,28.648,6.942,30.661c1.344,0.225,2.508,0.119,3.531-0.223c2.236,18.593,11.59,28.161,21.314,32.839    c-0.961,5.075-1.925,9.763-2.471,11.29c-1.783,4.991-11.754-2.864-19.965,5.704c-8.211,8.568,19.178,26.257,29.591,27.808    c33.513,4.991,54.179-21.592,42.069-24.956c-6.417-1.783-11.765-2.139-17.113-6.774l2.475-11.883    c13.48-4.176,20.453-11.488,24.039-18.183c0.573,0.353,1.23,0.648,1.99,0.869C417.123,323.139,427.046,308.162,424.965,295.119z"/>
		<path style="fill:#241726;" d="M322.714,293.796c-0.478,0-0.915-0.324-1.036-0.808c-1.332-5.312-3.335-10.33-4.287-10.739    c-0.693,0.025-2.106,2.557-2.872,5.327c-0.158,0.57-0.745,0.905-1.316,0.746c-0.569-0.157-0.902-0.746-0.746-1.314    c0.471-1.711,2.286-7.249,5.255-6.868c2.652,0.338,4.923,7.869,6.04,12.329c0.144,0.572-0.204,1.153-0.777,1.297    C322.887,293.786,322.8,293.796,322.714,293.796z"/>
		<circle style="fill:#DF4F3E;" cx="389.569" cy="312.361" r="8.061"/>
		<circle style="fill:#DF4F3E;" cx="337.899" cy="303.246" r="8.061"/>
		<path style="fill:#241726;" d="M366.062,341.959c-4.596,0-10.654-1.093-18.251-4.608c-0.536-0.249-0.77-0.884-0.521-1.421    c0.249-0.537,0.885-0.769,1.419-0.522c18.325,8.483,27.067,2.007,27.154,1.943c0.467-0.357,1.137-0.276,1.499,0.188    c0.361,0.464,0.282,1.132-0.18,1.496C376.943,339.223,373.335,341.959,366.062,341.959z"/>
		<path style="fill:#241726;" d="M361.177,317.149c-0.492,0-0.982-0.048-1.473-0.155c-4.117-0.879-7.082-5.448-8.808-13.576    c-0.122-0.577,0.246-1.145,0.824-1.268c0.582-0.107,1.146,0.249,1.269,0.825c1.513,7.123,3.989,11.249,7.16,11.928    c5.64,1.212,12.381-7.907,12.448-7.999c0.349-0.474,1.016-0.583,1.495-0.232c0.476,0.347,0.581,1.017,0.233,1.494    C374.039,308.559,367.686,317.149,361.177,317.149z"/>
		<g>
			<path style="fill:#E47947;" d="M185.814,350.358c-8.211-8.568-17.238,2.073-23.746-8.153c-0.622-0.978-1.196-3.248-1.701-5.968     c10.002-4.536,19.81-14.119,22.107-33.217c1.022,0.341,2.186,0.448,3.531,0.223c12.029-2.013,14.475-19.812,6.942-30.661     c-3.923-5.651-8.434-2.89-11.858,1.049c-2.734-16.611-8.096-32.948-13.695-38.506c-19.814-19.667-66.618,4.217-66.872,3.116     c-16.651,3.935-10.199,36.424-5.311,54.223c-5.325-3.011-12.894-5.65-14.22,2.656c-2.082,13.043,7.842,28.019,19.554,24.616     c0.76-0.221,1.417-0.516,1.99-0.869c3.609,6.738,10.653,14.102,24.309,18.263l1.964,8.62c-5.296,6.796-6.759,7.528-19.288,8.529     c-12.529,1.001,9.269,35.295,42.782,33.156C183.975,385.414,194.025,358.926,185.814,350.358z"/>
			<path style="fill:#241726;" d="M183.241,293.796c-0.087,0-0.173-0.01-0.261-0.031c-0.573-0.144-0.921-0.725-0.777-1.297     c1.118-4.46,3.388-11.991,6.041-12.329c3.025-0.376,4.783,5.158,5.255,6.868c0.158,0.568-0.177,1.157-0.746,1.314     c-0.563,0.159-1.157-0.175-1.316-0.746c-0.769-2.774-2.274-5.467-2.92-5.314c-0.905,0.397-2.908,5.415-4.24,10.725     C184.156,293.472,183.719,293.796,183.241,293.796z"/>
		</g>
		<circle style="fill:#DF4F3E;" cx="116.387" cy="312.361" r="8.061"/>
		<circle style="fill:#DF4F3E;" cx="168.056" cy="303.246" r="8.061"/>
		<path style="fill:#241726;" d="M143.546,341.773c-8.215,0-12.328-3.204-12.594-3.42c-0.46-0.372-0.531-1.044-0.159-1.504    c0.369-0.455,1.039-0.533,1.501-0.161c0.116,0.09,9.784,7.441,29.59-1.638c0.545-0.246,1.174-0.008,1.418,0.526    c0.246,0.537,0.01,1.172-0.526,1.416C154.857,340.624,148.465,341.773,143.546,341.773z"/>
		<path style="fill:#1A1F36;" d="M358.665,213.098c0,0-29.888,1.783-39.514,17.826c-9.626,16.043-2.139,37.434,7.487,39.573    c9.626,2.139,34.226-35.295,34.226-35.295s-16.043,25.669,4.278,37.434c20.321,11.765,9.091-9.626,19.787-22.461    c0,0-3.743,18.717,11.23,24.6c7.581,2.978,13.904-14.974,13.904-14.974s-7.487,32.086,0,33.156s10.552-6.374,14.902,2.161    s32.158-40.665-0.998-74.89C403.438,199.038,371.5,204.542,358.665,213.098z"/>
		<path style="fill:#AF342F;" d="M128.771,219.873c0,0,24.956-9.626,46.347,7.13s11.23,49.378,5.169,47.238    c-6.061-2.139-37.969-14.082-48.308-28.7c0,0-16.756,49.199-35.652,48.13c0,0-8.577-6.256-12.032-2.585    c-4.278,4.546-2.192,15.509,1.337,21.124c5.883,9.359,16.311,5.615,16.311,5.615s6.863,12.211,17.915,16.489    c0,0,0.357,9.269-9.269,11.765c-9.626,2.496-13.179-7.278-25.669-1.783c-8.913,3.922-22.817-3.209-24.956-14.261    c-2.642-13.651,9.269-17.469,1.783-36.365S63.885,208.464,128.771,219.873z"/>
		<path style="fill:#E47947;" d="M88.436,433.599c0,0-14.435,14.807-9.758,15.972c9.41,2.345-3.949,15.866,0.784,20.428    c1.375,1.325,2.674,1.245,3.831,0.496c-0.315,1.947,0.059,4.069,1.815,6.129c4.255,4.993,9.064-5.527,11.175-11.013    c-2.082,6.179-5.316,18.168,7.887,0.6C116.565,449.718,88.436,433.599,88.436,433.599z"/>
		<path style="fill:#B1739A;" d="M261.752,350.357c-2.139-9.626-36.008-8.2-36.008-8.2c-7.487,1.07-5.348,22.461-8.556,27.808    c-2.882,4.803-8.787-15.403-20.032-21.509c-8.096-7.67-18.914-3.803-24.889-3.803c-8.913,0,4.635,26.739-19.252,31.017    c-23.887,4.278-31.284-26.026-31.284-26.026s-9.979,0.267-17.999,2.353c-9.834-0.381-81.215-1.342-86.193,50.768    c-3.797,39.739,39.141,45.507,46.704,58.112c3.209,5.348,36.008-19.608,28.878-34.582c-7.13-14.974-37.345-15.419-34.493-21.837    c2.145-4.827,21.638-4.209,34.809-6.109c0.165,21.162,2.933,41.668,9.31,41.137c12.835-1.07,87.346,2.496,99.111-2.852    c2.22-1.009,3.783-3.84,4.857-7.796c7.139,4.91,16.233,7.806,27.586,7.44C267.456,435.208,263.891,359.983,261.752,350.357z"/>
		<path style="fill:#52AFA6;" d="M438.526,370.391c-0.06-0.36-0.119-0.729-0.184-1.067c-0.485-2.745-0.827-4.35-0.827-4.35    s-0.197-0.079-0.561-0.215c-0.162-0.321-0.33-0.616-0.508-0.854c-6.417-8.556-43.495-13.548-53.121-12.478    s-11.052,24.6-29.234,18.182c-18.182-6.417-16.4-22.104-16.4-22.104s-45.247-4.774-48.357,3.752    c-8.19,8.135-52.804,53.202-20.094,93.577c12.232,15.099,40.889,8.199,67.777-1.625c0.841,0.019,1.685,0.038,2.535,0.057    c29.365,10.541,65.508,22.311,85.842,9.411C448.044,438.308,441.4,387.183,438.526,370.391z"/>
		<path style="fill:#E38B72;" d="M386.889,384.94c0,0,9.269-10.695,24.243,4.278c14.974,14.974-5.704,9.269-5.704,9.269    s8.556-1.426,10.695,9.269c2.139,10.695-9.982,1.426-9.982,1.426s11.409,8.556,7.13,11.409    c-4.278,2.852-17.113-10.695-34.226-14.261C364.238,403.246,376.194,387.079,386.889,384.94z"/>
		<path style="fill:#E38B72;" d="M281.36,383.513c0,0-22.461,1.783-27.095,20.678c-1.106,4.511,0.664,4.894,3.428,3.496    c-1.828,2.554-3.015,5.364-2.715,8.269c0.263,2.54,3.318,1.495,6.772-0.558c-0.146,0.508-0.265,1.05-0.354,1.628    c-1.426,9.269,12.122-7.13,27.808-5.704C304.89,412.748,299.899,379.948,281.36,383.513z"/>
		<path style="fill:#241726;" d="M337.691,442.338c-0.048,0-0.097-0.004-0.147-0.01c-41.517-5.726-49.387-26.208-49.702-27.077    c-0.201-0.554,0.086-1.164,0.639-1.366c0.553-0.201,1.167,0.081,1.371,0.635c0.019,0.05,1.925,5.076,8.736,10.718    c6.316,5.231,18.251,12.076,39.247,14.972c0.585,0.079,0.994,0.62,0.913,1.205C338.676,441.949,338.217,442.338,337.691,442.338z"/>
		<path style="fill:#241726;" d="M299.9,415.599c-0.311,0-0.619-0.136-0.831-0.395c-0.372-0.46-0.303-1.132,0.156-1.504    c10.586-8.6,3.382-21.688,3.308-21.817c-0.29-0.516-0.109-1.168,0.406-1.458c0.517-0.292,1.167-0.107,1.457,0.405    c0.083,0.148,8.149,14.804-3.822,24.529C300.375,415.52,300.136,415.599,299.9,415.599z"/>
		<path style="fill:#241726;" d="M381.606,406.059c-1.536-0.658-3.529-1.535-5.886-2.574c-12.898-5.686-36.908-16.267-56.28-21.715    c-5.708-1.604-10.395-2.368-14.238-2.614c-0.083-0.176-0.203-0.335-0.371-0.444c-0.658-1.583,0.633-10.733,2.245-18.496    c0.12-0.579-0.252-1.145-0.83-1.264c-0.581-0.132-1.145,0.249-1.265,0.829c-2.551,12.288-2.67,17.236-2.195,19.293    c-9.876-0.079-13.141,3.526-13.327,3.744c-0.382,0.451-0.328,1.126,0.122,1.508c0.448,0.382,1.124,0.33,1.507-0.121    c0.059-0.067,5.875-6.538,27.774-0.376c19.226,5.406,43.145,15.949,55.996,21.612c2.365,1.04,4.365,1.922,5.907,2.584    c0.137,0.058,0.28,0.086,0.421,0.086c0.415,0,0.809-0.242,0.983-0.648C382.401,406.922,382.149,406.293,381.606,406.059z"/>
		<path style="fill:#241726;" d="M404.359,384.227c-0.591,0-1.07-0.478-1.07-1.07c0-4.057,3.134-13.156,3.267-13.541    c0.194-0.56,0.799-0.854,1.361-0.662c0.558,0.194,0.854,0.802,0.661,1.36c-0.031,0.092-3.15,9.145-3.15,12.843    C405.428,383.749,404.95,384.227,404.359,384.227z"/>
		<path style="fill:#241726;" d="M412.557,418.096c-0.465,0-0.893-0.305-1.028-0.775c-2.672-9.354-18.454-15.636-18.613-15.699    c-0.55-0.215-0.822-0.836-0.606-1.387c0.215-0.549,0.839-0.823,1.385-0.606c0.69,0.269,16.928,6.731,19.891,17.102    c0.162,0.568-0.167,1.161-0.735,1.322C412.753,418.083,412.655,418.096,412.557,418.096z"/>
		<path style="fill:#241726;" d="M412.559,403.834c-0.343,0-0.68-0.165-0.887-0.47c-6.981-10.307-13.283-10.311-13.329-10.225    c-0.622-0.052-1.085-0.437-1.109-1.024c-0.025-0.587,0.422-1.084,1.007-1.113c0.318-0.036,7.466-0.257,15.202,11.163    c0.331,0.489,0.204,1.153-0.286,1.485C412.974,403.774,412.766,403.834,412.559,403.834z"/>
		<path style="fill:#E38B72;" d="M61.033,346.436c0,0,14.261-6.417,29.947-1.426c15.687,4.991,14.974,27.095,10.695,24.956    c-4.278-2.139-11.409-17.113-11.409-17.113s10.695,14.261,6.417,23.53c-4.278,9.269-17.826-17.113-17.826-17.113    s14.974,20.678,7.843,22.817s-11.409-20.678-28.521-19.252S55.151,348.308,61.033,346.436z"/>
		<path style="fill:#241726;" d="M283.855,316.488c-0.225,0-0.451-0.071-0.644-0.217c-26.848-20.317-3.709-58.43-3.473-58.813    c0.31-0.503,0.97-0.658,1.473-0.347c0.502,0.309,0.657,0.969,0.347,1.471c-0.227,0.368-22.35,36.843,2.944,55.984    c0.471,0.355,0.564,1.026,0.208,1.498C284.498,316.342,284.179,316.488,283.855,316.488z"/>
		<path style="fill:#241726;" d="M201.145,274.419c-0.591,0-1.07-0.478-1.07-1.07s0.478-1.07,1.07-1.07    c22.251,0,24.933-41.708,24.958-42.13c0.033-0.589,0.545-1.067,1.129-1.005c0.59,0.033,1.04,0.539,1.006,1.13    c-0.025,0.445-0.673,11.049-4.241,21.842C219.173,266.706,211.271,274.419,201.145,274.419z"/>
		<path style="fill:#FBFCFF;" d="M74.759,119.424c-0.111,0-0.222-0.017-0.333-0.054c-0.562-0.184-0.867-0.788-0.683-1.349    c3.427-10.445,9.213-17.641,17.197-21.387c13.377-6.273,27.982-0.639,28.598-0.397c0.549,0.217,0.819,0.838,0.602,1.387    c-0.217,0.547-0.838,0.825-1.387,0.602c-0.142-0.056-14.389-5.542-26.919,0.353c-7.421,3.486-12.824,10.253-16.058,20.11    C75.627,119.138,75.209,119.424,74.759,119.424z"/>
		<path style="fill:#FBFCFF;" d="M90.267,141.083c-0.469,0-0.9-0.311-1.03-0.785c-3.968-14.456-1.037-23.737,2.12-28.978    c3.462-5.749,7.872-7.999,8.058-8.093c0.527-0.265,1.168-0.052,1.433,0.476c0.264,0.526,0.052,1.17-0.474,1.435    c-0.665,0.338-16.223,8.554-9.075,34.591c0.157,0.57-0.179,1.159-0.748,1.316C90.456,141.07,90.361,141.083,90.267,141.083z"/>
		<path style="fill:#FBFCFF;" d="M191.341,123.702c-0.074,0-0.149-0.008-0.226-0.023c-0.578-0.125-0.945-0.694-0.821-1.27    c3.805-17.76-11.114-26.843-11.265-26.933c-0.509-0.301-0.676-0.957-0.375-1.464c0.302-0.508,0.961-0.677,1.465-0.374    c0.165,0.096,16.39,9.973,12.265,29.218C192.278,123.36,191.835,123.702,191.341,123.702z"/>
		<path style="fill:#FBFCFF;" d="M210.058,127.446c-0.078,0-0.159-0.008-0.238-0.027c-0.577-0.132-0.937-0.704-0.805-1.281    c4.573-20.069-18.715-31.842-18.951-31.959c-0.53-0.261-0.747-0.902-0.485-1.433c0.261-0.526,0.903-0.746,1.433-0.485    c0.251,0.123,25.031,12.657,20.087,34.353C210.987,127.109,210.546,127.446,210.058,127.446z"/>
		<path style="fill:#FBFCFF;" d="M159.52,126.911c-0.479,0-0.915-0.324-1.036-0.811c-3.564-14.253,4.92-25.074,5.282-25.527    c0.372-0.46,1.043-0.531,1.502-0.167c0.462,0.368,0.537,1.04,0.169,1.502c-0.081,0.104-8.178,10.474-4.879,23.674    c0.144,0.572-0.205,1.153-0.778,1.297C159.693,126.901,159.606,126.911,159.52,126.911z"/>
		<path style="fill:#FBFCFF;" d="M134.118,137.606c-0.478,0-0.913-0.322-1.036-0.808c-6.255-24.75,14.905-40.281,15.12-40.436    c0.48-0.343,1.147-0.234,1.492,0.244c0.345,0.48,0.236,1.149-0.243,1.494c-0.203,0.146-20.188,14.857-14.294,38.176    c0.144,0.572-0.203,1.153-0.775,1.297C134.294,137.596,134.205,137.606,134.118,137.606z"/>
		<path style="fill:#241726;" d="M173.603,266.487c-0.531,0-0.991-0.395-1.06-0.934c-1.988-15.552-27.829-22.563-28.09-22.632    c-0.57-0.15-0.911-0.735-0.76-1.308c0.151-0.568,0.743-0.911,1.307-0.76c1.122,0.297,27.496,7.447,29.666,24.428    c0.074,0.587-0.339,1.122-0.925,1.197C173.693,266.485,173.648,266.487,173.603,266.487z"/>
		<path style="fill:#241726;" d="M177.616,256.326c-0.038,0-0.075-0.002-0.114-0.006c-0.587-0.063-1.013-0.589-0.95-1.176    c0.525-4.959-0.727-9.35-3.723-13.05c-8.061-9.96-26.16-11.959-26.342-11.978c-0.588-0.061-1.014-0.587-0.953-1.174    c0.061-0.587,0.581-1.032,1.174-0.953c0.778,0.079,19.153,2.104,27.779,12.753c3.368,4.157,4.779,9.079,4.19,14.627    C178.62,255.919,178.156,256.326,177.616,256.326z"/>
		<path style="fill:#241726;" d="M99.004,276.915c-0.322,0-0.639-0.144-0.849-0.418c-0.36-0.47-0.272-1.141,0.197-1.5    c18.875-14.481,18.836-32.646,18.833-32.828c-0.008-0.589,0.464-1.076,1.054-1.084c0.57-0.115,1.077,0.462,1.085,1.055    c0.011,0.785,0.048,19.427-19.671,34.554C99.459,276.844,99.23,276.915,99.004,276.915z"/>
		<path style="fill:#241726;" d="M82.426,275.846c-0.046,0-0.093-0.002-0.14-0.008c-0.586-0.077-0.999-0.614-0.921-1.201    c5.149-39.293,30.023-38.667,30.252-38.629c0.589,0.025,1.046,0.522,1.02,1.111c-0.025,0.591-0.489,1.038-1.112,1.026    c-0.914-0.044-23.156-0.493-28.04,36.772C83.415,275.453,82.955,275.846,82.426,275.846z"/>
		<path style="fill:#241726;" d="M103.013,340.553c-0.281,0-0.562-0.111-0.772-0.328c-6.779-7.063-3.595-17.47-3.456-17.909    c0.177-0.562,0.779-0.871,1.34-0.698c0.563,0.178,0.876,0.777,0.7,1.341c-0.03,0.094-2.931,9.647,2.96,15.782    c0.408,0.426,0.395,1.105-0.031,1.512C103.547,340.455,103.28,340.553,103.013,340.553z"/>
		<path style="fill:#241726;" d="M83.227,337.879c-0.284,0-0.567-0.113-0.777-0.334c-8.219-8.69-1.278-20.424-1.207-20.541    c0.306-0.503,0.962-0.666,1.467-0.361c0.504,0.305,0.667,0.961,0.363,1.466c-0.255,0.424-6.161,10.468,0.931,17.965    c0.406,0.43,0.387,1.107-0.042,1.512C83.755,337.783,83.491,337.879,83.227,337.879z"/>
		<path style="fill:#241726;" d="M97.666,368.362c-0.005,0-0.011,0-0.018,0c-0.59-0.01-1.061-0.497-1.052-1.086    c0.25-15.241-16.349-18.688-16.517-18.721c-0.58-0.113-0.957-0.677-0.843-1.255s0.682-0.961,1.257-0.842    c0.185,0.035,18.522,3.846,18.243,20.852C98.726,367.894,98.249,368.362,97.666,368.362z"/>
		<path style="fill:#241726;" d="M88.039,376.383c-0.503,0-0.952-0.355-1.05-0.869c-3.499-18.253-12.127-18.072-12.271-18.118    c-0.57,0.073-1.085-0.435-1.111-1.019c-0.026-0.585,0.419-1.084,1.004-1.116c0.442-0.042,10.604-0.355,14.48,19.851    c0.111,0.579-0.269,1.141-0.849,1.251C88.173,376.377,88.106,376.383,88.039,376.383z"/>
		<path style="fill:#241726;" d="M153.853,384.14c-1.255,0-2.564-0.092-3.924-0.28c-27.788-3.814-30.31-26.131-30.332-26.356    c-0.058-0.587,0.371-1.109,0.958-1.168c0.609-0.059,1.111,0.37,1.171,0.957c0.087,0.85,2.423,20.871,28.493,24.449    c6.388,0.871,11.457-0.483,15.064-4.046c8.684-8.573,6.481-27.196,6.458-27.384c-0.073-0.585,0.343-1.12,0.929-1.193    c0.594-0.081,1.12,0.341,1.194,0.928c0.101,0.806,2.359,19.849-7.073,29.168C163.473,382.491,159.133,384.14,153.853,384.14z"/>
		<path style="fill:#241726;" d="M98.736,435.476c-0.39,0-0.765-0.213-0.954-0.583c-7.011-13.752-4.245-46.774-4.124-48.174    c0.05-0.589,0.56-1.024,1.157-0.973c0.589,0.05,1.025,0.568,0.973,1.157c-0.029,0.336-2.835,33.81,3.898,47.016    c0.268,0.526,0.06,1.172-0.467,1.439C99.065,435.438,98.899,435.476,98.736,435.476z"/>
		<path style="fill:#241726;" d="M203.285,431.732c-0.077,0-0.155-0.008-0.233-0.025c-0.577-0.13-0.94-0.7-0.813-1.276    c3.114-14.013-5.778-46.218-5.868-46.542c-0.159-0.568,0.173-1.157,0.743-1.316c0.57-0.163,1.158,0.173,1.317,0.744    c0.375,1.341,9.127,33.045,5.897,47.578C204.217,431.394,203.775,431.732,203.285,431.732z"/>
		<path style="fill:#241726;" d="M217.187,407.935c-0.543,0-1.008-0.412-1.063-0.963c-1.333-13.334,1.742-39.245,1.874-40.342    c0.072-0.585,0.601-1.015,1.19-0.934c0.586,0.069,1.005,0.602,0.935,1.189c-0.032,0.265-3.179,26.776-1.87,39.874    c0.058,0.587-0.37,1.111-0.958,1.17C217.258,407.933,217.222,407.935,217.187,407.935z"/>
		<path style="fill:#241726;" d="M82.751,472.551c-0.406,0.039-0.814-0.155-1.03-0.531c-0.294-0.513-0.119-1.166,0.394-1.46    c5.119-2.943,6.867-11.711,6.885-11.799c0.111-0.581,0.669-0.958,1.253-0.848c0.579,0.113,0.959,0.672,0.846,1.252    c-0.077,0.4-1.96,9.825-7.917,13.249C83.044,472.491,82.897,472.537,82.751,472.551z"/>
		<path style="fill:#241726;" d="M88.924,478.14c-0.371,0.035-0.749-0.124-0.979-0.45c-0.339-0.484-0.221-1.152,0.263-1.49    c8.665-6.072,6.977-17.006,6.958-17.115c-0.095-0.583,0.299-1.134,0.882-1.23c0.614-0.094,1.133,0.299,1.23,0.882    c0.082,0.502,1.912,12.379-7.843,19.214C89.279,478.062,89.102,478.123,88.924,478.14z"/>
		<path style="fill:#241726;" d="M71.908,451.608c-0.025,0-0.051,0-0.077-0.002c-0.589-0.042-1.033-0.554-0.99-1.143    c0.562-7.877,14.016-18.251,14.588-18.69c0.47-0.357,1.142-0.267,1.499,0.201c0.359,0.47,0.269,1.141-0.199,1.5    c-0.133,0.1-13.26,10.221-13.755,17.14C72.934,451.178,72.464,451.608,71.908,451.608z"/>
		<path style="fill:#241726;" d="M260.595,325.91c-0.555-0.211-1.167,0.092-1.366,0.648c-1.765,4.959-5.159,12.233-7.172,12.883    c-0.149,0.048-0.214,0.027-0.302-0.033c-1.244-0.861-0.348-5.162,1.446-9.737c0.836-1.74,1.5-3.305,1.876-4.218    c0.218-0.533-0.023-1.143-0.546-1.381c-0.529-0.236-1.143-0.021-1.4,0.495c-0.353,0.706-1.122,2.296-1.896,4.239    c-2.135,4.404-4.315,7.729-5.215,7.783c-1.337-1.337,0.467-8.485,2.905-14.341c0.228-0.545-0.03-1.172-0.576-1.4    c-0.542-0.217-1.17,0.029-1.399,0.577c-1.142,2.742-4.341,11.015-3.267,15.104c-1.742-1.266-3.95-2.074-5.713-2.554    c2.37-1.349,5.424-3.415,6.019-5.377c0.211-0.698,0.137-1.377-0.215-1.964c-1.849-3.083-11.97-0.042-16.235,1.408    c-0.559,0.19-0.858,0.798-0.667,1.358c0.189,0.56,0.793,0.856,1.357,0.668c7.013-2.381,13.132-3.209,13.712-2.335    c0.02,0.033,0.05,0.084,0.002,0.242c-0.461,1.519-4.7,4.107-7.563,5.461c-0.429,0.203-0.674,0.664-0.601,1.132    c0.073,0.468,0.446,0.833,0.916,0.896c2.08,0.276,7.815,1.629,9.358,4.523c0.193,0.361,0.563,0.566,0.945,0.566    c0.169,0,0.342-0.04,0.502-0.125c0.521-0.278,0.719-0.925,0.441-1.448c-0.051-0.096-0.125-0.178-0.182-0.271    c0.214,0.024,0.433,0.027,0.657-0.019c0.86-0.171,1.784-0.969,2.702-2.104c-0.167,2.008,0.169,3.712,1.419,4.579    c0.423,0.292,0.889,0.441,1.373,0.441c0.263,0,0.532-0.044,0.802-0.13c3.738-1.205,7.764-12.041,8.532-14.201    C261.442,326.718,261.152,326.108,260.595,325.91z"/>
		<path style="fill:#241726;" d="M254.354,352.586c-0.143,0-0.288-0.029-0.427-0.09c-8.251-3.61-25.601-3.654-25.776-3.654    c-0.591,0-1.07-0.478-1.07-1.07c0-0.591,0.478-1.07,1.07-1.07c0.73,0,17.971,0.044,26.632,3.833    c0.542,0.236,0.789,0.867,0.551,1.408C255.159,352.346,254.766,352.586,254.354,352.586z"/>
		<path style="fill:#FFFFFF;" d="M322.36,173.169c0,0,4.546,5.08,14.706,5.08c10.161,0,0.535,14.172-10.161,12.567    C316.21,189.212,318.349,170.228,322.36,173.169z"/>
		<path style="fill:#FFFFFF;" d="M135.367,308.199c0,0,9.893-0.802,14.439-4.546c4.546-3.743,7.487,10.428-3.209,15.776    C135.902,324.777,126.811,306.595,135.367,308.199z"/>
		<path style="fill:#241726;" d="M312.734,240.551c-0.274,0-0.547-0.104-0.756-0.313c-2.797-2.797-4.756-19.287-5.12-22.563    c-0.065-0.587,0.358-1.118,0.945-1.182c0.593-0.063,1.117,0.359,1.181,0.944c0.811,7.301,2.752,19.534,4.506,21.289    c0.418,0.418,0.418,1.095,0,1.512C313.281,240.446,313.007,240.551,312.734,240.551z"/>
		<path style="fill:#FBFCFF;" d="M330.916,254.989c-0.105,0-0.214-0.015-0.321-0.05c-0.564-0.175-0.876-0.777-0.7-1.341    c5.957-18.951,19.774-25.515,20.359-25.784c0.54-0.249,1.17-0.013,1.418,0.522c0.248,0.535,0.015,1.172-0.521,1.42    c-0.135,0.063-13.556,6.478-19.215,24.485C331.792,254.697,331.371,254.989,330.916,254.989z"/>
		<path style="fill:#FBFCFF;" d="M369.954,258.733c-0.485,0-0.924-0.332-1.04-0.825c-4.395-18.682,7.802-27.248,7.926-27.332    c0.486-0.334,1.15-0.207,1.484,0.28c0.333,0.487,0.209,1.151-0.277,1.485c-0.455,0.313-11.098,7.875-7.05,25.078    c0.135,0.574-0.221,1.151-0.796,1.285C370.118,258.725,370.035,258.733,369.954,258.733z"/>
		<path style="fill:#FBFCFF;" d="M396.16,261.941c-0.393,0-0.77-0.217-0.958-0.591c-5.517-11.034,3.353-30.077,3.733-30.883    c0.252-0.533,0.889-0.758,1.424-0.51c0.534,0.253,0.762,0.89,0.511,1.425c-0.089,0.186-8.806,18.907-3.754,29.012    c0.264,0.529,0.05,1.17-0.478,1.435C396.483,261.906,396.32,261.941,396.16,261.941z"/>
		<path style="fill:#FBFCFF;" d="M421.827,280.124c-0.224,0-0.448-0.069-0.64-0.213c-0.473-0.355-0.569-1.026-0.214-1.498    c7.624-10.165,2.013-33.63,1.955-33.866c-0.14-0.572,0.212-1.151,0.785-1.291c0.573-0.14,1.151,0.211,1.293,0.783    c0.244,1.003,5.908,24.683-2.323,35.656C422.473,279.976,422.153,280.124,421.827,280.124z"/>
		<path style="fill:#241726;" d="M303.643,126.644c-0.581,0-1.058-0.466-1.07-1.049c-0.543-27.182,21.329-35.7,21.55-35.782    c0.551-0.215,1.169,0.071,1.377,0.625c0.208,0.551-0.072,1.168-0.624,1.377c-0.207,0.079-20.677,8.109-20.164,33.739    c0.011,0.589-0.457,1.078-1.049,1.09C303.657,126.644,303.65,126.644,303.643,126.644z"/>
		<path style="fill:#241726;" d="M296.157,104.718c-0.094,0-0.188-0.013-0.282-0.038c-0.57-0.155-0.907-0.744-0.751-1.314    c2.904-10.645,7.727-17.675,14.338-20.894c7.811-3.798,15.144-0.794,15.452-0.666c0.544,0.23,0.799,0.854,0.571,1.4    c-0.229,0.543-0.851,0.8-1.4,0.572c-0.064-0.027-6.788-2.751-13.717,0.633c-6.016,2.943-10.451,9.511-13.18,19.519    C297.058,104.405,296.627,104.718,296.157,104.718z"/>
		<path style="fill:#241726;" d="M400.973,129.852c-0.085,0-0.169-0.01-0.255-0.031c-0.573-0.14-0.925-0.719-0.785-1.291    c1.158-4.75,0.509-9.166-1.933-13.123c-6.641-10.769-24.363-14.953-24.54-14.995c-0.576-0.132-0.935-0.706-0.803-1.283    c0.133-0.574,0.709-0.934,1.282-0.802c0.762,0.175,18.763,4.42,25.879,15.951c2.755,4.464,3.494,9.43,2.194,14.756    C401.892,129.524,401.454,129.852,400.973,129.852z"/>
		<path style="fill:#241726;" d="M361.933,95.092c-0.248,0-0.496-0.086-0.699-0.259c-0.447-0.386-0.497-1.061-0.112-1.508    c0.569-0.662,14.088-16.095,27.006-8.79c0.514,0.29,0.696,0.944,0.404,1.458c-0.29,0.516-0.945,0.698-1.457,0.405    c-11.404-6.451-24.206,8.174-24.332,8.322C362.531,94.967,362.233,95.092,361.933,95.092z"/>
		<path style="fill:#241726;" d="M346.957,91.349c-0.53,0-0.989-0.393-1.059-0.932c-0.043-0.336-1.008-8.279,3.587-12.989    c2.538-2.603,6.221-3.674,10.953-3.186c0.588,0.061,1.015,0.585,0.955,1.174c-0.062,0.587-0.61,1.015-1.174,0.953    c-4.042-0.422-7.139,0.439-9.197,2.544c-3.873,3.963-3.011,11.157-3.002,11.23c0.074,0.585-0.34,1.122-0.925,1.197    C347.049,91.344,347.003,91.349,346.957,91.349z"/>
		<path style="fill:#241726;" d="M398.832,154.987c-0.591,0-1.07-0.478-1.07-1.07c0-14.002-16.17-18.711-16.333-18.757    c-0.569-0.161-0.9-0.75-0.741-1.32c0.161-0.566,0.758-0.896,1.319-0.739c0.18,0.05,17.893,5.214,17.893,20.817    C399.902,154.508,399.424,154.987,398.832,154.987z"/>
		<path style="fill:#241726;" d="M497.767,259.09c-0.078,0-0.157-0.008-0.236-0.025c-14.373-3.236-27.05-14.742-27.583-15.231    c-0.436-0.399-0.465-1.074-0.066-1.51c0.399-0.435,1.075-0.468,1.511-0.065c0.126,0.115,12.799,11.61,26.607,14.717    c0.577,0.132,0.938,0.704,0.808,1.278C498.697,258.752,498.256,259.09,497.767,259.09z"/>
		<path style="fill:#241726;" d="M448.209,310.071c-0.503,0-0.952-0.357-1.05-0.869c-1.466-7.694,4.773-24.466,5.04-25.176    c0.208-0.552,0.826-0.838,1.377-0.625c0.554,0.207,0.833,0.823,0.627,1.377c-0.064,0.167-6.296,16.916-4.941,24.023    c0.111,0.581-0.271,1.141-0.85,1.251C448.343,310.065,448.275,310.071,448.209,310.071z"/>
		<path style="fill:#241726;" d="M408.637,337.879c-0.445,0-0.861-0.28-1.012-0.725c-0.191-0.558,0.108-1.166,0.667-1.358    c30.124-10.269,25.867-38.955,25.67-40.171c-0.094-0.583,0.302-1.132,0.885-1.226c0.589-0.111,1.132,0.301,1.227,0.884    c0.051,0.315,4.768,31.677-27.093,42.54C408.868,337.861,408.751,337.879,408.637,337.879z"/>
		<path style="fill:#241726;" d="M494.716,238.858c-0.3,0-0.594-0.05-0.88-0.155c-0.762-0.278-1.317-0.844-1.605-1.642    c-0.487-1.345-0.133-3.376,0.56-5.49c-1.671,1.571-3.477,2.684-5.103,2.557c-0.731-0.067-1.297-0.451-1.593-1.082    c-1.377-2.935,5.093-12.86,7.939-16.99c0.334-0.489,1.001-0.61,1.487-0.276c0.487,0.336,0.609,1.003,0.274,1.487    c-4.533,6.582-8.007,13.171-7.796,14.733c2.296-0.01,6.526-5.289,8.854-9.12c0.304-0.499,0.958-0.662,1.461-0.363    c0.504,0.301,0.673,0.95,0.377,1.458c-2.285,3.919-5.176,10.345-4.448,12.358c0.084,0.23,0.19,0.309,0.325,0.359    c1.849,0.641,6.684-6.022,10.091-12.674c0.271-0.526,0.913-0.733,1.439-0.466c0.525,0.269,0.733,0.915,0.464,1.439    C504.822,228.389,499.099,238.856,494.716,238.858z"/>
		<path style="fill:#241726;" d="M489.923,241.263c-0.591,0-1.07-0.478-1.07-1.07c0-6.701-11.002-11.445-11.113-11.493    c-0.439-0.186-0.701-0.639-0.644-1.113c0.057-0.472,0.421-0.85,0.892-0.925c4.498-0.727,8.782-2.11,9.168-2.96    c-0.631-0.765-6.632-1.134-12.831-0.625c-0.607,0.046-1.106-0.389-1.154-0.978c-0.049-0.587,0.388-1.105,0.977-1.153    c5.079-0.426,13.782-0.717,14.976,2.07c0.24,0.562,0.207,1.172-0.095,1.721c-0.898,1.634-4.655,2.774-7.599,3.436    c3.672,2.087,9.563,6.321,9.563,12.02C490.992,240.785,490.514,241.263,489.923,241.263z"/>
		<path style="fill:#241726;" d="M257.693,408.756c-0.111,0-0.222-0.017-0.333-0.054c-0.562-0.184-0.867-0.788-0.683-1.349    c2.837-8.64,16.571-14.257,17.155-14.491c0.543-0.219,1.17,0.044,1.391,0.593c0.22,0.547-0.045,1.17-0.592,1.391    c-0.134,0.054-13.394,5.479-15.921,13.175C258.561,408.47,258.143,408.756,257.693,408.756z"/>
		<path style="fill:#241726;" d="M261.748,416.468c-0.213,0-0.428-0.063-0.616-0.196c-0.483-0.34-0.597-1.007-0.256-1.489    c3.978-5.634,15.113-13.62,15.585-13.958c0.482-0.34,1.148-0.232,1.492,0.249s0.232,1.149-0.249,1.494    c-0.113,0.079-11.311,8.111-15.081,13.449C262.415,416.312,262.084,416.468,261.748,416.468z"/>
		<path style="fill:#241726;" d="M360.69,378.648c-2.86,0-5.806-0.666-8.815-1.999c-22.294-9.868-18.831-26.363-18.793-26.528    c0.131-0.577,0.697-0.93,1.277-0.806c0.574,0.13,0.937,0.7,0.809,1.276c-0.134,0.608-3.048,14.976,17.571,24.102    c5.081,2.248,9.929,2.4,14.412,0.451c10.776-4.688,16.178-19.991,16.231-20.144c0.193-0.56,0.8-0.852,1.361-0.662    c0.558,0.194,0.853,0.802,0.661,1.36c-0.23,0.664-5.753,16.336-17.393,21.406C365.648,378.134,363.202,378.648,360.69,378.648z"/>
		<path style="fill:#241726;" d="M122.548,300.226c-0.013,0-0.026,0-0.039,0c-2.641-0.054-8.79-7.132-11.312-10.171    c-0.377-0.455-0.314-1.13,0.14-1.506c0.454-0.378,1.128-0.315,1.506,0.14c3.493,4.211,7.958,8.765,9.479,9.34    c0.487-1.341,0.192-6.47-0.707-11.755c-0.099-0.583,0.292-1.134,0.874-1.235c0.582-0.092,1.135,0.292,1.234,0.875    c0.597,3.503,1.799,11.859,0.07,13.777C123.481,300.036,123.04,300.226,122.548,300.226z"/>
		<path style="fill:#241726;" d="M159.455,291.446c-0.241,0-0.486-0.05-0.724-0.155c-2.389-1.051-4.657-9.173-5.521-12.615    c-0.144-0.574,0.204-1.155,0.777-1.299c0.57-0.136,1.153,0.205,1.297,0.777c1.319,5.252,3.148,10.102,4.139,11.051    c0.916-1.024,2.31-5.918,3.102-11.005c0.091-0.581,0.641-0.973,1.221-0.892c0.584,0.092,0.984,0.637,0.893,1.222    c-0.529,3.395-2.013,11.431-4.378,12.709C160.008,291.377,159.733,291.446,159.455,291.446z"/>
		<path style="fill:#241726;" d="M98.476,310.132c-0.307,0-0.611-0.132-0.823-0.384c-3.503-4.209-7.439-7.917-8.52-7.817    c-0.628,0.213-0.789,3.213-0.278,6.045c0.104,0.581-0.281,1.136-0.863,1.243c-0.582,0.094-1.138-0.28-1.243-0.863    c-0.315-1.744-1.124-7.508,1.757-8.467c2.537-0.842,7.849,4.955,10.791,8.487c0.378,0.455,0.316,1.13-0.138,1.506    C98.96,310.05,98.716,310.132,98.476,310.132z"/>
		<path style="fill:#241726;" d="M138.914,302.866c-0.428,0-0.832-0.259-0.996-0.681c-0.214-0.551,0.059-1.172,0.609-1.385    c0.241-0.094,5.548-2.154,8.351-2.716c-0.625-1.567-3.627-5.563-6.435-8.788c-0.389-0.445-0.342-1.12,0.104-1.508    c0.444-0.391,1.119-0.347,1.508,0.104c5.197,5.968,7.543,9.753,6.971,11.255c-0.202,0.531-0.658,0.877-1.251,0.953    c-1.889,0.24-6.757,2.024-8.473,2.693C139.174,302.843,139.044,302.866,138.914,302.866z"/>
		<path style="fill:#241726;" d="M383.408,300.226c-0.493,0-0.934-0.19-1.245-0.537c-1.729-1.916-0.527-10.271,0.07-13.775    c0.099-0.583,0.653-0.969,1.234-0.875c0.582,0.1,0.973,0.652,0.874,1.235c-0.898,5.281-1.193,10.405-0.705,11.755    c1.521-0.579,5.985-5.13,9.477-9.34c0.377-0.453,1.051-0.516,1.506-0.14c0.454,0.376,0.517,1.051,0.14,1.506    c-2.521,3.039-8.672,10.117-11.312,10.171C383.433,300.226,383.42,300.226,383.408,300.226z"/>
		<path style="fill:#241726;" d="M346.501,291.446c-0.279,0-0.553-0.069-0.807-0.207c-2.366-1.278-3.849-9.315-4.377-12.709    c-0.091-0.585,0.309-1.13,0.893-1.222c0.587-0.079,1.13,0.311,1.221,0.892c0.792,5.089,2.186,9.983,3.101,11.005    c0.992-0.95,2.821-5.799,4.139-11.051c0.142-0.574,0.728-0.917,1.297-0.777c0.573,0.144,0.921,0.725,0.777,1.299    c-0.864,3.443-3.132,11.565-5.521,12.615C346.986,291.396,346.742,291.446,346.501,291.446z"/>
		<path style="fill:#241726;" d="M407.48,310.132c-0.24,0-0.484-0.081-0.683-0.246c-0.454-0.378-0.516-1.053-0.138-1.508    c2.941-3.532,8.255-9.331,10.792-8.487c2.88,0.959,2.071,6.722,1.756,8.467c-0.105,0.583-0.666,0.957-1.243,0.863    c-0.582-0.107-0.967-0.662-0.863-1.243c0.511-2.833,0.35-5.832-0.326-6.056c-0.005,0-0.009,0-0.015,0    c-1.01,0-4.971,3.637-8.457,7.827C408.092,310,407.787,310.132,407.48,310.132z"/>
		<path style="fill:#241726;" d="M367.041,302.866c-0.13,0-0.26-0.023-0.388-0.073c-1.716-0.668-6.582-2.452-8.473-2.693    c-0.593-0.075-1.05-0.422-1.251-0.953c-0.572-1.502,1.774-5.287,6.971-11.255c0.39-0.445,1.066-0.493,1.508-0.104    c0.446,0.389,0.493,1.063,0.104,1.508c-2.808,3.225-5.81,7.222-6.435,8.788c2.802,0.562,8.109,2.622,8.351,2.716    c0.55,0.213,0.823,0.833,0.609,1.385C367.873,302.607,367.469,302.866,367.041,302.866z"/>
	</g>
	<path style="fill:#241726;" d="M74.937,76.91c-0.496,0-0.941-0.347-1.046-0.85c-0.01-0.05-0.254-1.228-0.456-3.188   c-0.061-0.587,0.367-1.111,0.955-1.172c0.583-0.075,1.112,0.366,1.174,0.955c0.189,1.836,0.419,2.956,0.422,2.968   c0.119,0.577-0.252,1.145-0.829,1.264C75.082,76.901,75.009,76.91,74.937,76.91z M214.089,71.84c-0.583,0-1.143-0.065-1.66-0.194   c-0.573-0.144-0.922-0.725-0.778-1.297c0.142-0.574,0.724-0.919,1.296-0.779c0.355,0.09,0.725,0.109,1.169,0.132   c0.739,0,1.579-0.134,2.499-0.395c0.57-0.171,1.159,0.167,1.322,0.735c0.162,0.568-0.167,1.159-0.735,1.32   C216.077,71.683,214.947,71.81,214.089,71.84z M142.508,71.04c-2.192,0-3.742-1.059-4.33-2.904   c-0.179-0.562,0.132-1.164,0.695-1.343c0.567-0.178,1.164,0.132,1.344,0.696c0.193,0.606,0.633,1.412,2.215,1.412   c0.591,0,1.107,0.478,1.107,1.07C143.539,70.561,143.1,71.04,142.508,71.04z M146.618,69.953c-0.408,0-0.798-0.234-0.977-0.631   c-0.242-0.539-0.002-1.172,0.537-1.414c0.533-0.24,1.093-0.52,1.682-0.848c0.28-0.155,0.441-0.518,0.477-1.082   c0.039-0.589,0.541-1.051,1.137-0.999c0.589,0.04,1.036,0.547,0.997,1.136c-0.11,1.667-0.917,2.452-1.575,2.816   c-0.644,0.357-1.259,0.666-1.841,0.927C146.914,69.924,146.765,69.953,146.618,69.953z M74.247,69.561   c-0.583,0-1.06-0.468-1.07-1.053l-0.006-0.823c0-1.116,0.037-2.304,0.126-3.549c0.041-0.589,0.567-1.042,1.144-0.99   c0.589,0.044,1.032,0.556,0.989,1.145c-0.086,1.191-0.12,2.329-0.12,3.395l0.006,0.79c0.009,0.591-0.462,1.076-1.053,1.086   C74.259,69.561,74.253,69.561,74.247,69.561z M209.677,68.903c-0.434,0-0.844-0.267-1.004-0.7   c-0.338-0.917-0.511-1.989-0.511-3.181c0.001-0.493,0.03-1.003,0.088-1.529c0.064-0.589,0.574-1.022,1.179-0.948   c0.587,0.065,1.011,0.591,0.947,1.178c-0.049,0.451-0.074,0.886-0.075,1.301c0,0.938,0.127,1.759,0.379,2.44   c0.205,0.554-0.079,1.168-0.633,1.372C209.925,68.882,209.8,68.903,209.677,68.903z M219.017,68.211   c-0.563,0-1.034-0.441-1.066-1.009c-0.057-1.009-0.398-2.321-0.986-3.791c-0.219-0.549,0.048-1.172,0.596-1.389   c0.548-0.219,1.171,0.046,1.39,0.595c0.682,1.707,1.063,3.209,1.134,4.464c0.033,0.589-0.417,1.095-1.007,1.128   C219.057,68.211,219.038,68.211,219.017,68.211z M139.395,64.668c-0.097,0-0.195-0.013-0.293-0.04   c-0.568-0.163-0.898-0.754-0.736-1.322c0.369-1.299,0.952-2.697,1.731-4.153c0.279-0.518,0.926-0.723,1.448-0.437   c0.521,0.278,0.718,0.925,0.439,1.448c-0.707,1.32-1.232,2.574-1.559,3.727C140.289,64.361,139.861,64.668,139.395,64.668z    M148.526,62.96c-0.427,0-0.831-0.259-0.996-0.681c-0.448-1.147-1.059-2.39-1.817-3.689c-0.297-0.512-0.124-1.166,0.385-1.462   c0.511-0.305,1.166-0.125,1.463,0.384c0.814,1.398,1.474,2.739,1.962,3.99c0.215,0.549-0.057,1.17-0.608,1.385   C148.787,62.937,148.655,62.96,148.526,62.96z M266.031,61.221c-0.034,0-0.069-0.002-0.104-0.004   c-0.587-0.056-1.017-0.579-0.961-1.166c0.002-0.027,0.051-0.566,0.051-1.462c0-0.687-0.028-1.581-0.126-2.611   c-0.056-0.589,0.375-1.111,0.963-1.168c0.604-0.036,1.11,0.376,1.166,0.963c0.107,1.113,0.137,2.074,0.137,2.816   c0,1.049-0.062,1.667-0.062,1.667C267.04,60.81,266.574,61.221,266.031,61.221z M74.874,61.033c-0.06,0-0.12-0.004-0.181-0.015   c-0.583-0.1-0.973-0.652-0.874-1.235c0.252-1.477,0.578-2.92,0.97-4.287c0.163-0.568,0.761-0.898,1.322-0.733   c0.568,0.163,0.896,0.754,0.733,1.322c-0.37,1.293-0.679,2.657-0.918,4.057C75.838,60.666,75.386,61.033,74.874,61.033z    M210.276,60.513c-0.114,0-0.229-0.019-0.343-0.056c-0.56-0.19-0.86-0.796-0.671-1.356c0.451-1.335,1.037-2.707,1.74-4.08   c0.269-0.52,0.916-0.731,1.439-0.464c0.194,0.1,0.345,0.251,0.444,0.428c0.075-0.123,0.177-0.232,0.302-0.32   c0.487-0.334,1.152-0.215,1.488,0.269c0.862,1.241,1.647,2.486,2.337,3.704c0.291,0.514,0.111,1.166-0.404,1.458   c-0.514,0.292-1.167,0.111-1.457-0.405c-0.657-1.159-1.408-2.35-2.232-3.537c-0.019-0.027-0.036-0.054-0.052-0.081   c-0.637,1.253-1.169,2.5-1.578,3.712C211.139,60.233,210.722,60.513,210.276,60.513z M143.313,57.108   c-0.216,0-0.434-0.065-0.624-0.201c-0.479-0.345-0.589-1.013-0.243-1.494c0.196-0.274,0.399-0.547,0.607-0.823   c-0.698-0.934-1.447-1.865-2.233-2.778c-0.385-0.447-0.335-1.122,0.113-1.508c0.445-0.384,1.119-0.338,1.508,0.113   c0.692,0.802,1.358,1.623,1.987,2.446c0.244-0.292,0.494-0.583,0.749-0.873c0.389-0.449,1.065-0.489,1.509-0.1   c0.444,0.389,0.489,1.065,0.099,1.508c-0.945,1.08-1.821,2.177-2.603,3.265C143.973,56.954,143.645,57.108,143.313,57.108z    M211.224,53.196c-0.311,0-0.619-0.136-0.83-0.395c-0.884-1.086-1.814-2.15-2.769-3.165c-0.404-0.43-0.383-1.107,0.047-1.512   c0.429-0.405,1.107-0.382,1.511,0.046c0.989,1.053,1.954,2.156,2.869,3.282c0.373,0.457,0.304,1.132-0.155,1.504   C211.699,53.116,211.461,53.196,211.224,53.196z M214.134,52.899c-0.206,0-0.414-0.058-0.596-0.182   c-0.49-0.332-0.619-0.996-0.289-1.485c0.811-1.203,1.705-2.381,2.656-3.503c0.381-0.453,1.058-0.508,1.507-0.123   c0.451,0.38,0.507,1.057,0.124,1.506c-0.901,1.063-1.747,2.179-2.514,3.315C214.815,52.734,214.477,52.899,214.134,52.899z    M77.244,52.832c-0.141,0-0.284-0.027-0.422-0.088c-0.543-0.232-0.794-0.861-0.561-1.404c0.591-1.377,1.272-2.701,2.023-3.936   c0.307-0.508,0.964-0.668,1.47-0.357c0.504,0.307,0.665,0.965,0.358,1.469c-0.699,1.149-1.334,2.384-1.885,3.668   C78.052,52.59,77.659,52.832,77.244,52.832z M265.228,52.728c-0.478,0-0.913-0.322-1.036-0.808   c-0.344-1.36-0.795-2.659-1.338-3.856c-0.244-0.539-0.006-1.172,0.532-1.416c0.54-0.244,1.172-0.006,1.415,0.531   c0.596,1.314,1.089,2.734,1.465,4.22c0.144,0.572-0.203,1.153-0.775,1.297C265.403,52.717,265.314,52.728,265.228,52.728z    M148.927,50.666c-0.278,0-0.557-0.109-0.766-0.324c-0.413-0.422-0.404-1.099,0.019-1.512c1.006-0.98,2.09-1.964,3.225-2.925   c0.451-0.378,1.126-0.322,1.507,0.125c0.382,0.451,0.326,1.126-0.124,1.508c-1.098,0.93-2.145,1.878-3.115,2.824   C149.466,50.566,149.196,50.666,148.927,50.666z M138.717,49.049c-0.274,0-0.546-0.104-0.755-0.311   c-0.985-0.984-2.023-1.943-3.083-2.856c-0.447-0.384-0.498-1.059-0.113-1.508c0.385-0.449,1.06-0.495,1.508-0.113   c1.1,0.946,2.176,1.941,3.198,2.96c0.418,0.418,0.419,1.095,0.002,1.512C139.265,48.945,138.992,49.049,138.717,49.049z    M205.365,46.954c-0.26,0-0.519-0.094-0.725-0.284c-1.035-0.953-2.108-1.872-3.189-2.73c-0.463-0.368-0.541-1.04-0.173-1.502   c0.368-0.464,1.038-0.543,1.502-0.173c1.124,0.89,2.237,1.845,3.31,2.835c0.435,0.399,0.462,1.076,0.062,1.51   C205.941,46.839,205.654,46.954,205.365,46.954z M219.662,46.384c-0.284,0-0.567-0.113-0.777-0.334   c-0.406-0.43-0.386-1.107,0.043-1.512c1.068-1.011,2.199-1.966,3.358-2.837c0.474-0.357,1.145-0.261,1.498,0.211   c0.355,0.472,0.261,1.143-0.211,1.498c-1.097,0.825-2.165,1.728-3.176,2.682C220.19,46.287,219.926,46.384,219.662,46.384z    M81.691,45.561c-0.242,0-0.487-0.081-0.687-0.251c-0.452-0.38-0.511-1.055-0.13-1.508c0.946-1.124,1.996-2.187,3.118-3.159   c0.446-0.386,1.122-0.34,1.508,0.109c0.386,0.447,0.338,1.122-0.109,1.508c-1.037,0.898-2.006,1.88-2.882,2.92   C82.299,45.431,81.996,45.561,81.691,45.561z M155.448,45.132c-0.327,0-0.649-0.148-0.859-0.43   c-0.353-0.474-0.255-1.145,0.218-1.498c1.126-0.838,2.31-1.671,3.553-2.49c0.496-0.328,1.158-0.188,1.482,0.303   c0.325,0.493,0.189,1.157-0.304,1.481c-1.21,0.798-2.358,1.606-3.453,2.423C155.894,45.063,155.671,45.132,155.448,45.132z    M261.677,44.999c-0.328,0-0.652-0.15-0.862-0.435c-0.801-1.086-1.723-2.074-2.741-2.935c-0.45-0.382-0.507-1.057-0.124-1.508   c0.379-0.447,1.053-0.506,1.507-0.125c1.144,0.969,2.18,2.079,3.079,3.298c0.351,0.476,0.25,1.145-0.226,1.496   C262.12,44.93,261.898,44.999,261.677,44.999z M132.223,43.48c-0.219,0-0.441-0.067-0.632-0.207   c-1.133-0.831-2.303-1.619-3.477-2.342c-0.503-0.309-0.661-0.967-0.351-1.471c0.309-0.503,0.967-0.666,1.471-0.351   c1.224,0.752,2.443,1.573,3.623,2.438c0.476,0.351,0.579,1.019,0.23,1.496C132.877,43.33,132.552,43.48,132.223,43.48z    M198.656,41.652c-0.204,0-0.409-0.058-0.592-0.18c-1.177-0.785-2.381-1.51-3.58-2.156c-0.52-0.282-0.714-0.93-0.433-1.45   c0.28-0.522,0.929-0.71,1.449-0.435c1.258,0.679,2.519,1.439,3.752,2.26c0.492,0.328,0.625,0.992,0.297,1.483   C199.341,41.485,199.001,41.652,198.656,41.652z M226.494,41.261c-0.37,0-0.729-0.192-0.928-0.535   c-0.296-0.512-0.12-1.166,0.392-1.46c1.286-0.744,2.612-1.404,3.944-1.968c0.547-0.226,1.173,0.023,1.402,0.57   c0.23,0.543-0.024,1.172-0.568,1.402c-1.251,0.529-2.498,1.149-3.708,1.847C226.86,41.215,226.676,41.261,226.494,41.261z    M162.583,40.418c-0.367,0-0.723-0.188-0.922-0.526c-0.3-0.51-0.131-1.166,0.378-1.464c1.178-0.694,2.401-1.375,3.67-2.039   c0.521-0.269,1.228-0.102,1.502,0.422c0.275,0.522,0.133,1.136-0.39,1.412c-0.01,0.006-0.138,0.071-0.148,0.075   c-1.21,0.635-2.401,1.295-3.548,1.972C162.955,40.369,162.768,40.418,162.583,40.418z M88.128,39.981   c-0.356,0-0.704-0.178-0.907-0.501c-0.314-0.499-0.163-1.159,0.337-1.475c1.226-0.769,2.536-1.471,3.891-2.083   c0.54-0.246,1.173-0.004,1.415,0.533c0.243,0.539,0.004,1.172-0.534,1.414c-1.267,0.574-2.49,1.23-3.636,1.949   C88.518,39.929,88.322,39.981,88.128,39.981z M255.218,39.517c-0.165,0-0.333-0.038-0.49-0.119   c-1.164-0.602-2.433-1.103-3.772-1.489c-0.568-0.165-0.895-0.756-0.731-1.324c0.165-0.566,0.758-0.898,1.324-0.731   c1.473,0.426,2.872,0.98,4.16,1.644c0.525,0.272,0.73,0.917,0.46,1.441C255.98,39.306,255.606,39.517,255.218,39.517z    M124.933,39.014c-0.16,0-0.323-0.036-0.476-0.113c-1.254-0.625-2.539-1.193-3.821-1.686c-0.551-0.213-0.826-0.831-0.614-1.383   c0.213-0.551,0.835-0.823,1.383-0.614c1.344,0.518,2.693,1.113,4.007,1.769c0.529,0.263,0.744,0.905,0.479,1.435   C125.704,38.796,125.326,39.014,124.933,39.014z M234.355,37.955c-0.47,0-0.9-0.311-1.031-0.788c-0.156-0.57,0.18-1.157,0.75-1.314   c1.424-0.389,2.88-0.685,4.328-0.879c0.587-0.077,1.123,0.334,1.201,0.919c0.078,0.587-0.333,1.124-0.919,1.201   c-1.353,0.182-2.714,0.457-4.046,0.823C234.544,37.942,234.449,37.955,234.355,37.955z M191.127,37.608   c-0.136,0-0.274-0.025-0.406-0.079c-1.305-0.537-2.624-0.988-3.921-1.343c-0.57-0.157-0.906-0.744-0.75-1.314   c0.157-0.572,0.751-0.902,1.314-0.75c1.382,0.378,2.785,0.859,4.17,1.427c0.546,0.226,0.807,0.85,0.583,1.398   C191.947,37.357,191.548,37.608,191.127,37.608z M247.072,37.092c-0.045,0-0.09-0.002-0.136-0.008   c-0.32-0.04-0.645-0.077-0.976-0.109c-1.051-0.102-2.106-0.155-3.133-0.155c-0.591,0-1.081-0.478-1.081-1.07s0.467-1.07,1.058-1.07   c1.12,0,2.244,0.054,3.364,0.163c0.352,0.036,0.697,0.073,1.037,0.117c0.586,0.075,1.001,0.61,0.926,1.195   C248.064,36.697,247.604,37.092,247.072,37.092z M170.248,36.653c-0.442,0-0.855-0.276-1.01-0.717   c-0.194-0.558,0.1-1.168,0.658-1.362c1.403-0.491,2.847-0.871,4.294-1.134c0.589-0.1,1.138,0.28,1.244,0.863   c0.104,0.581-0.281,1.136-0.862,1.243c-1.338,0.242-2.674,0.595-3.972,1.047C170.484,36.634,170.365,36.653,170.248,36.653z    M95.881,36.446c-0.454,0-0.875-0.29-1.019-0.748c-0.179-0.562,0.134-1.164,0.697-1.341c1.091-0.345,2.23-0.654,3.385-0.915   l0.861-0.186c0.589-0.115,1.145,0.257,1.262,0.836c0.117,0.579-0.257,1.145-0.836,1.262l-0.816,0.175   c-1.119,0.253-2.188,0.543-3.211,0.867C96.096,36.43,95.987,36.446,95.881,36.446z M116.959,35.96   c-0.092,0-0.186-0.013-0.279-0.038c-1.357-0.363-2.724-0.654-4.065-0.859c-0.584-0.09-0.985-0.635-0.895-1.218   c0.089-0.585,0.617-0.99,1.219-0.896c1.418,0.217,2.864,0.522,4.297,0.909c0.57,0.152,0.909,0.739,0.755,1.31   C117.863,35.646,117.43,35.96,116.959,35.96z M182.897,35.375c-0.046,0-0.092-0.002-0.139-0.008   c-1.184-0.155-2.381-0.234-3.559-0.236l-0.544,0.006c-0.668,0.023-1.08-0.455-1.094-1.047c-0.013-0.589,0.455-1.08,1.047-1.093   l0.593-0.006c1.269,0.002,2.558,0.088,3.832,0.253c0.586,0.077,0.999,0.614,0.922,1.199   C183.887,34.982,183.427,35.375,182.897,35.375z M104.248,34.769c-0.55,0-1.018-0.422-1.064-0.98   c-0.05-0.589,0.388-1.107,0.977-1.155c1.485-0.123,2.953-0.152,4.399-0.104c0.59,0.021,1.053,0.516,1.032,1.105   c-0.019,0.591-0.499,1.042-1.105,1.034c-1.365-0.05-2.746-0.023-4.149,0.096C104.308,34.767,104.277,34.769,104.248,34.769z"/>
	<path style="fill:#241726;" d="M256.797,504.086c-0.025,0-0.051,0-0.076-0.002c-1.467-0.104-2.94-0.313-4.38-0.622   c-0.578-0.125-0.945-0.694-0.821-1.272c0.123-0.577,0.698-0.932,1.27-0.821c1.341,0.29,2.715,0.485,4.081,0.581   c0.589,0.042,1.033,0.554,0.991,1.143C257.822,503.655,257.353,504.086,256.797,504.086z M261.069,504.081   c-0.557,0-1.026-0.43-1.065-0.994c-0.042-0.589,0.402-1.101,0.991-1.143c0.942-0.067,1.898-0.18,2.867-0.338   c0.414-0.069,0.823-0.144,1.225-0.226c0.587-0.136,1.145,0.253,1.264,0.831c0.119,0.579-0.253,1.143-0.831,1.262   c-0.429,0.09-0.866,0.169-1.31,0.242c-1.03,0.169-2.061,0.292-3.065,0.363C261.12,504.081,261.094,504.081,261.069,504.081z    M269.429,502.389c-0.446,0-0.862-0.28-1.013-0.727c-0.189-0.558,0.111-1.166,0.67-1.356c1.321-0.447,2.6-0.982,3.802-1.59   c0.524-0.265,1.171-0.054,1.437,0.472c0.266,0.529,0.054,1.172-0.472,1.437c-1.292,0.652-2.664,1.226-4.08,1.707   C269.658,502.371,269.542,502.389,269.429,502.389z M248.458,502.295c-0.122,0-0.246-0.021-0.369-0.065   c-1.37-0.503-2.728-1.105-4.035-1.792c-0.523-0.274-0.725-0.921-0.45-1.443c0.275-0.52,0.918-0.725,1.445-0.449   c1.224,0.641,2.494,1.205,3.778,1.675c0.555,0.205,0.839,0.819,0.635,1.372C249.303,502.028,248.894,502.295,248.458,502.295z    M304.882,499.747c-0.427,0-0.851-0.01-1.27-0.031c-0.59-0.027-1.046-0.529-1.017-1.118c0.028-0.593,0.543-1.088,1.12-1.017   c0.42,0.019,0.853,0.036,1.28,0.027c0.922,0,1.869-0.044,2.843-0.136c0.587-0.042,1.109,0.378,1.165,0.967   c0.054,0.587-0.378,1.109-0.966,1.164C306.952,499.703,305.908,499.772,304.882,499.747z M299.428,499.185   c-0.073,0-0.147-0.006-0.221-0.023c-1.467-0.309-2.903-0.746-4.266-1.299c-0.547-0.221-0.812-0.846-0.589-1.393   c0.222-0.545,0.85-0.811,1.393-0.587c1.246,0.506,2.558,0.905,3.902,1.187c0.578,0.121,0.947,0.689,0.826,1.266   C300.368,498.838,299.923,499.185,299.428,499.185z M312.16,498.951c-0.489,0-0.931-0.338-1.042-0.836   c-0.13-0.577,0.233-1.149,0.808-1.278l0.302-0.065c1.274-0.284,2.519-0.641,3.681-1.061c0.55-0.192,1.168,0.09,1.368,0.643   c0.201,0.556-0.088,1.17-0.642,1.37c-1.246,0.449-2.58,0.833-3.963,1.141l-0.276,0.061   C312.317,498.943,312.238,498.951,312.16,498.951z M277.027,498.531c-0.334,0-0.662-0.155-0.871-0.447   c-0.344-0.48-0.233-1.149,0.249-1.494c1.121-0.8,2.177-1.69,3.137-2.643c0.421-0.416,1.098-0.411,1.512,0.008   c0.416,0.418,0.414,1.095-0.006,1.512c-1.041,1.032-2.185,1.995-3.4,2.864C277.46,498.466,277.242,498.531,277.027,498.531z    M240.899,498.339c-0.211,0-0.424-0.063-0.611-0.192c-1.197-0.836-2.358-1.757-3.452-2.739c-0.44-0.395-0.476-1.072-0.081-1.51   c0.395-0.443,1.073-0.476,1.51-0.081c1.029,0.923,2.121,1.79,3.247,2.576c0.485,0.338,0.603,1.005,0.265,1.489   C241.569,498.18,241.236,498.339,240.899,498.339z M209.579,497.075c-0.894,0-1.746-0.027-2.561-0.079   c-0.589-0.038-1.037-0.545-1-1.134c0.037-0.591,0.549-1.053,1.135-1.001c1.293,0.081,2.747,0.113,4.123,0.01   c0.592-0.029,1.103,0.399,1.147,0.988c0.045,0.589-0.397,1.101-0.986,1.147C210.828,497.052,210.209,497.075,209.579,497.075z    M202.854,496.436c-0.073,0-0.147-0.008-0.222-0.023c-1.547-0.328-2.986-0.785-4.278-1.36c-0.539-0.24-0.782-0.873-0.541-1.412   c0.239-0.539,0.87-0.783,1.412-0.543c1.155,0.516,2.45,0.925,3.85,1.222c0.578,0.123,0.947,0.689,0.825,1.268   C203.793,496.091,203.349,496.436,202.854,496.436z M215.562,496.285c-0.471,0-0.902-0.313-1.031-0.79   c-0.155-0.57,0.183-1.157,0.753-1.312c1.296-0.351,2.581-0.829,3.818-1.425c0.532-0.257,1.172-0.029,1.427,0.501   c0.256,0.533,0.031,1.172-0.501,1.429c-1.354,0.65-2.763,1.174-4.185,1.558C215.748,496.273,215.654,496.285,215.562,496.285z    M320.165,496.033c-0.376,0-0.741-0.198-0.936-0.549c-0.287-0.516-0.101-1.168,0.415-1.454c1.203-0.671,2.334-1.441,3.362-2.296   c0.453-0.376,1.126-0.315,1.506,0.14c0.377,0.453,0.314,1.128-0.14,1.506c-1.128,0.938-2.37,1.784-3.688,2.517   C320.519,495.989,320.341,496.033,320.165,496.033z M291.553,495.974c-0.198,0-0.4-0.054-0.58-0.171   c-1.248-0.806-2.429-1.738-3.512-2.768c-0.428-0.407-0.445-1.084-0.038-1.512c0.41-0.428,1.086-0.441,1.512-0.038   c0.985,0.938,2.062,1.786,3.198,2.521c0.496,0.322,0.638,0.982,0.318,1.479C292.247,495.801,291.904,495.974,291.553,495.974z    M195.178,492.889c-0.248,0-0.495-0.086-0.698-0.259c-1.187-1.019-2.175-2.221-2.938-3.564c-0.291-0.514-0.111-1.168,0.403-1.458   c0.513-0.299,1.167-0.111,1.458,0.401c0.64,1.13,1.473,2.139,2.472,3c0.447,0.384,0.498,1.059,0.113,1.508   C195.778,492.763,195.479,492.889,195.178,492.889z M234.546,492.632c-0.298,0-0.594-0.123-0.806-0.366   c-0.98-1.126-1.882-2.306-2.681-3.512c-0.326-0.493-0.191-1.157,0.302-1.483c0.492-0.326,1.154-0.19,1.482,0.301   c0.747,1.128,1.591,2.233,2.51,3.286c0.387,0.447,0.342,1.122-0.103,1.51C235.046,492.544,234.796,492.632,234.546,492.632z    M223.242,492.615c-0.334,0-0.664-0.157-0.873-0.449c-0.342-0.483-0.229-1.151,0.253-1.492c1.099-0.781,2.161-1.667,3.159-2.636   c0.423-0.407,1.101-0.401,1.512,0.025c0.412,0.424,0.401,1.101-0.023,1.512c-1.075,1.042-2.223,1.999-3.409,2.841   C223.672,492.55,223.456,492.615,223.242,492.615z M283.08,492.538c-0.218,0-0.439-0.067-0.629-0.205   c-0.477-0.349-0.583-1.017-0.235-1.494c0.547-0.752,1.055-1.537,1.514-2.344c-0.553-0.871-1.047-1.771-1.474-2.691   c-0.249-0.537-0.016-1.172,0.52-1.421c0.539-0.253,1.172-0.015,1.42,0.518c0.291,0.629,0.618,1.249,0.977,1.855   c0.203-0.029,0.415,0.006,0.611,0.104c0.529,0.265,0.742,0.909,0.476,1.437c-0.011,0.023-0.023,0.046-0.036,0.069   c0.01,0.015,0.021,0.031,0.032,0.046c0.345,0.478,0.237,1.147-0.242,1.492c-0.225,0.165-0.485,0.226-0.747,0.196   c-0.412,0.683-0.854,1.352-1.323,1.995C283.736,492.385,283.41,492.538,283.08,492.538z M326.68,490.581   c-0.235,0-0.471-0.077-0.668-0.236c-0.461-0.37-0.535-1.042-0.165-1.502c0.841-1.049,1.587-2.193,2.217-3.405   c0.272-0.526,0.915-0.735,1.441-0.455c0.524,0.272,0.728,0.917,0.455,1.441c-0.695,1.337-1.518,2.601-2.445,3.756   C327.303,490.443,326.993,490.581,326.68,490.581z M229.373,486.691c-0.229,0-0.46-0.073-0.654-0.224   c-0.467-0.361-0.553-1.034-0.19-1.502c0.086-0.111,0.171-0.221,0.256-0.334c-0.616-1.398-1.057-2.757-1.313-4.044   c-0.116-0.581,0.261-1.143,0.84-1.258c0.582-0.119,1.144,0.261,1.258,0.84c0.149,0.752,0.373,1.535,0.667,2.344   c0.201-0.324,0.395-0.65,0.581-0.978c0.291-0.516,0.942-0.702,1.458-0.403c0.514,0.29,0.695,0.942,0.403,1.456   c-0.719,1.27-1.546,2.509-2.46,3.689C230.009,486.549,229.692,486.691,229.373,486.691z M191.011,485.605   c-0.5,0-0.948-0.353-1.049-0.863c-0.196-0.996-0.296-2.018-0.296-3.037c0-0.988,0.097-1.596,0.097-1.596   c0.093-0.581,0.63-0.973,1.22-0.888c0.582,0.09,0.982,0.633,0.894,1.214c-0.005,0.038-0.072,0.516-0.072,1.27   c0,0.879,0.086,1.763,0.256,2.624c0.114,0.579-0.263,1.143-0.843,1.255C191.149,485.598,191.08,485.605,191.011,485.605z    M286.884,484.919c-0.1,0-0.203-0.015-0.305-0.044c-0.566-0.169-0.889-0.765-0.721-1.331c0.407-1.368,0.658-2.705,0.746-3.969   c0.042-0.589,0.549-1.047,1.142-0.992c0.589,0.042,1.034,0.554,0.993,1.143c-0.099,1.418-0.378,2.91-0.829,4.429   C287.771,484.619,287.346,484.919,286.884,484.919z M330.636,483.052c-0.105,0-0.213-0.015-0.32-0.048   c-0.563-0.178-0.877-0.777-0.701-1.341c0.398-1.274,0.704-2.622,0.909-4.007c0.086-0.585,0.619-0.996,1.215-0.9   c0.584,0.086,0.988,0.629,0.901,1.214c-0.22,1.494-0.551,2.952-0.984,4.333C331.514,482.759,331.092,483.052,330.636,483.052z    M281.848,482.381c-0.493,0-0.936-0.343-1.044-0.844c-0.232-1.072-0.35-2.106-0.35-3.075c0-0.551,0.038-1.076,0.114-1.565   c0.09-0.585,0.642-0.978,1.221-0.894c0.583,0.09,0.983,0.637,0.893,1.22c-0.06,0.389-0.089,0.804-0.089,1.239   c0,0.817,0.101,1.7,0.302,2.624c0.125,0.577-0.241,1.145-0.819,1.27C282,482.373,281.924,482.381,281.848,482.381z    M233.533,479.244c-0.117,0-0.235-0.019-0.351-0.059c-0.558-0.194-0.853-0.804-0.659-1.362c0.438-1.258,0.668-2.381,0.668-3.248   c0-0.163-0.008-0.315-0.026-0.457c-0.073-0.587,0.343-1.122,0.929-1.195c0.585-0.081,1.121,0.341,1.194,0.927   c0.028,0.226,0.043,0.47,0.043,0.725c0,1.103-0.273,2.469-0.788,3.95C234.389,478.968,233.976,479.244,233.533,479.244z    M228.509,477.207c-0.088,0-0.177-0.01-0.265-0.033c-0.572-0.146-0.918-0.729-0.772-1.301c0.422-1.652,1.367-2.958,2.734-3.777   l0.319-0.182c0.516-0.286,1.168-0.094,1.451,0.426c0.283,0.518,0.092,1.168-0.427,1.45l-0.247,0.142   c-0.882,0.529-1.474,1.36-1.758,2.471C229.421,476.885,228.985,477.207,228.509,477.207z M287.202,476.499   c-0.429,0-0.835-0.261-0.997-0.685c-0.327-0.846-0.773-1.276-1.325-1.276c-0.253-0.059-0.347,0.033-0.547,0.098   c-0.559,0.18-1.216-0.096-1.405-0.65c-0.189-0.551,0.038-1.132,0.588-1.331c0.571-0.188,0.965-0.188,1.366-0.257   c1.46,0,2.67,0.965,3.318,2.647c0.213,0.551-0.062,1.17-0.613,1.383C287.46,476.476,287.331,476.499,287.202,476.499z    M331.904,473.551l-1.069-0.13c0.001-1.408-0.079-2.72-0.238-4.013c-0.072-0.585,0.345-1.12,0.931-1.191   c0.588-0.092,1.121,0.345,1.192,0.93c0.17,1.379,0.256,2.778,0.256,4.159L331.904,473.551z M330.851,466.15   c-0.473,0-0.906-0.315-1.033-0.796c-0.374-1.41-0.833-2.705-1.366-3.85c-0.25-0.535-0.018-1.172,0.518-1.421   c0.539-0.253,1.173-0.017,1.421,0.518c0.586,1.258,1.089,2.672,1.496,4.205c0.151,0.57-0.189,1.155-0.759,1.308   C331.035,466.14,330.942,466.15,330.851,466.15z M327.052,458.59c-0.261,0-0.522-0.094-0.728-0.286   c-0.329-0.305-0.646-0.516-0.939-0.622c-0.556-0.203-0.841-0.817-0.638-1.372s0.817-0.838,1.371-0.637   c0.564,0.207,1.123,0.564,1.662,1.065c0.432,0.401,0.457,1.078,0.055,1.512C327.624,458.475,327.338,458.59,327.052,458.59z"/>
</g>















</svg>
