<svg id="Medical_Flat_Filled_Outline" height="512" viewBox="0 0 128 128" width="512" xmlns="http://www.w3.org/2000/svg" data-name="Medical Flat Filled Outline"><path d="m84.07 23.378h25.991a0 0 0 0 1 0 0v38.071a13 13 0 0 1 -13 13 13 13 0 0 1 -13-13v-38.071a0 0 0 0 1 .009 0z" fill="#e8e2e2"/><path d="m110.064 57.971v3.482a13 13 0 0 1 -25.994 0v-3.482c7.2-6.863 14.958-1.79 19.35 0s6.644 0 6.644 0z" fill="#f9af2b"/><path d="m59.945 40.164c1.157-4.277-.316-12.812-5.542-11.809a5.1 5.1 0 0 0 -4.117 4.385c-.538 3.241 2.93 4.189 3.352 7.873.333 2.916 5.328 3.168 6.307-.449z" fill="#f46087"/><path d="m44.746 20.479c-3.56 1.642-2.944 4.455-1.243 6.055s6.823-.326 4.755-4.26c-.971-1.846-2.611-2.211-3.512-1.795z" fill="#f99"/><path d="m89.654 42.576c-3.739 1.725-3.092 4.68-1.3 6.36s7.166-.342 4.993-4.475c-1.024-1.939-2.747-2.321-3.693-1.885z" fill="#ffbe57"/><path d="m95.941 38.364c1.022 2.322 2.849 1.956 3.9.874s-.133-4.419-2.7-3.126a1.879 1.879 0 0 0 -1.2 2.252z" fill="#ffbe57"/><path d="m97.065 75.444a14.011 14.011 0 0 1 -14-14v-38.066a1 1 0 0 1 1-1h25.991a1 1 0 0 1 1 1v38.071a14.012 14.012 0 0 1 -13.991 13.995zm-12-51.066v37.071a12 12 0 0 0 23.991 0v-37.071z" fill="#332c44"/><path d="m107.083 59.759a10.742 10.742 0 0 1 -4.038-.861c-.584-.238-1.224-.531-1.913-.847-4.469-2.051-10.592-4.863-16.372.649a1 1 0 1 1 -1.38-1.447c6.761-6.443 14.163-3.045 18.586-1.015.661.3 1.274.585 1.832.813 3.746 1.515 5.629.156 5.647.141a1 1 0 0 1 1.239 1.57 6.034 6.034 0 0 1 -3.601.997z" fill="#332c44"/><path d="m87.289 9.1h19.095a6.1 6.1 0 0 1 6.1 6.1v5.734a2.441 2.441 0 0 1 -2.441 2.441h-26.415a2.441 2.441 0 0 1 -2.441-2.441v-5.734a6.1 6.1 0 0 1 6.1-6.1z" fill="#3c3854"/><g fill="#332c44"><path d="m110.045 24.378h-26.417a3.444 3.444 0 0 1 -3.44-3.44v-5.738a7.109 7.109 0 0 1 7.1-7.1h19.1a7.11 7.11 0 0 1 7.1 7.1v5.734a3.445 3.445 0 0 1 -3.443 3.444zm-22.756-14.278a5.107 5.107 0 0 0 -5.1 5.1v5.734a1.442 1.442 0 0 0 1.44 1.44h26.417a1.443 1.443 0 0 0 1.441-1.44v-5.734a5.108 5.108 0 0 0 -5.1-5.1z"/><path d="m110.061 32.249h-3.272a1 1 0 1 1 0-2h3.272a1 1 0 0 1 0 2z"/><path d="m110.061 40.852h-3.272a1 1 0 0 1 0-2h3.272a1 1 0 0 1 0 2z"/><path d="m110.061 49.454h-3.272a1 1 0 0 1 0-2h3.272a1 1 0 0 1 0 2z"/><path d="m55.249 27.313a5.748 5.748 0 0 0 -1.082.106 6.361 6.361 0 0 0 -5.114 5.381 5.99 5.99 0 0 0 1.647 4.939 4.607 4.607 0 0 1 1.2 2.348 4.27 4.27 0 0 0 4.421 3.674 5.02 5.02 0 0 0 4.89-3.761c.811-3 .4-7.73-1.686-10.459a5.273 5.273 0 0 0 -4.276-2.228zm4.031 12.162a3.006 3.006 0 0 1 -2.956 2.286 2.276 2.276 0 0 1 -2.434-1.9c-.36-3.148-3.324-3.959-2.864-6.729a4.36 4.36 0 0 1 3.518-3.747 3.733 3.733 0 0 1 .705-.07c3.892-.002 4.966 6.706 4.031 10.16z"/><path d="m49.493 21.641a4.642 4.642 0 0 0 -4-2.647 3.5 3.5 0 0 0 -1.452.309 5.036 5.036 0 0 0 -3.212 3.754 5.046 5.046 0 0 0 1.674 4.419 3.922 3.922 0 0 0 2.716 1 5.065 5.065 0 0 0 4.3-2.319 4.455 4.455 0 0 0 -.026-4.516zm-4.272 4.834a1.946 1.946 0 0 1 -1.346-.456c-1.376-1.294-1.875-3.571 1.006-4.9a1.466 1.466 0 0 1 .614-.125 2.625 2.625 0 0 1 2.228 1.578c1.277 2.422-.823 3.903-2.502 3.903z"/><path d="m90.442 41.014a3.62 3.62 0 0 0 -1.5.32 4.98 4.98 0 0 0 -1.625 8.6 4.091 4.091 0 0 0 2.832 1.039 5.328 5.328 0 0 0 4.519-2.436 4.676 4.676 0 0 0 -.03-4.736 4.872 4.872 0 0 0 -4.196-2.787zm-.3 7.956a2.114 2.114 0 0 1 -1.462-.5c-1.5-1.406-2.037-3.88 1.093-5.324a1.591 1.591 0 0 1 .667-.136 2.854 2.854 0 0 1 2.421 1.714c1.386 2.636-.89 4.246-2.717 4.246z"/><path d="m101.479 36.5a3.527 3.527 0 0 0 -3.25-2.255 3.963 3.963 0 0 0 -1.788.448 3.477 3.477 0 0 0 -1.892 4.391 3.807 3.807 0 0 0 3.511 2.569 4.073 4.073 0 0 0 2.87-1.281 3.544 3.544 0 0 0 .549-3.872zm-1.979 2.477a2.082 2.082 0 0 1 -1.438.677c-.616 0-1.241-.377-1.68-1.375a1.5 1.5 0 0 1 .96-1.8 1.976 1.976 0 0 1 .889-.235 1.769 1.769 0 0 1 1.269 2.733z"/></g><path d="m67.412 53.236v23.653a4.322 4.322 0 0 0 1.11 2.905s16.492 15.411 22.184 24.752c3.37 5.528.713 10.957-5.581 12.49-7.192 1.752-25.416 1.752-31.28 1.752s-24.088 0-31.28-1.752c-6.294-1.533-8.951-6.962-5.581-12.49 5.692-9.341 22.184-24.752 22.184-24.752a4.322 4.322 0 0 0 1.11-2.905v-23.653z" fill="#e8e2e2"/><path d="m90.7 104.55a70.166 70.166 0 0 0 -6.78-8.88h-.01c-6-3.07-12.71-3.16-18.43-2.24-9.95 1.58-18.51 6.97-27.08 7.63-9.44.73-14.35-3.02-15.52-4.36a65.242 65.242 0 0 0 -5.9 7.85c-3.37 5.52-.71 10.95 5.58 12.49 7.2 1.75 25.42 1.75 31.28 1.75s24.09 0 31.28-1.75c6.302-1.54 8.952-6.97 5.58-12.49z" fill="#e5395e"/><path d="m53.845 119.788c-5.988 0-24.208 0-31.517-1.78-3.514-.857-6.074-2.839-7.209-5.583a9.186 9.186 0 0 1 1.01-8.4c5.7-9.349 21.679-24.329 22.356-24.962a3.291 3.291 0 0 0 .793-2.174v-23.654a1 1 0 0 1 1-1h27.135a1 1 0 0 1 1 1v23.654a3.317 3.317 0 0 0 .851 2.234c.618.573 16.6 15.553 22.3 24.9a9.186 9.186 0 0 1 1.01 8.4c-1.135 2.744-3.7 4.726-7.209 5.583-7.312 1.782-25.532 1.782-31.52 1.782zm-12.567-65.553v22.654a5.322 5.322 0 0 1 -1.368 3.576c-.223.213-16.516 15.485-22.073 24.6a7.246 7.246 0 0 0 -.87 6.594c.885 2.14 2.957 3.7 5.835 4.4 7.075 1.724 25.115 1.724 31.043 1.724s23.968 0 31.043-1.724c2.878-.7 4.95-2.264 5.835-4.4a7.246 7.246 0 0 0 -.87-6.594c-5.553-9.117-21.853-24.387-22.014-24.541a5.35 5.35 0 0 1 -1.426-3.635v-22.654z" fill="#332c44"/><path d="m36.061 102.156c-7.633 0-12.293-2.918-13.93-4.8a1 1 0 1 1 1.511-1.311c.042.048 4.318 4.82 14.688 4.025 4.343-.335 8.729-1.94 13.372-3.639a72.992 72.992 0 0 1 13.627-3.989c7.316-1.17 13.724-.383 19.046 2.34a1 1 0 0 1 -.911 1.782c-4.936-2.527-10.931-3.249-17.819-2.147a71.369 71.369 0 0 0 -13.256 3.892c-4.776 1.748-9.287 3.4-13.906 3.756q-1.257.093-2.422.091z" fill="#332c44"/><path d="m33.04 91.657a.99.99 0 0 1 -.472-.119l-3.128-1.681a1 1 0 1 1 .947-1.761l3.127 1.68a1 1 0 0 1 -.474 1.881z" fill="#332c44"/><path d="m37.9 86.53a.99.99 0 0 1 -.472-.119l-3-1.612a1 1 0 0 1 .947-1.762l3 1.612a1 1 0 0 1 -.475 1.881z" fill="#332c44"/><path d="m27.993 96.95a1 1 0 0 1 -.473-.119l-3.034-1.631a1 1 0 0 1 .947-1.762l3.034 1.631a1 1 0 0 1 -.474 1.881z" fill="#332c44"/><path d="m23.616 101.707a1 1 0 0 1 -.456-.11l-2.838-1.458a1 1 0 0 1 .914-1.78l2.838 1.458a1 1 0 0 1 -.458 1.89z" fill="#332c44"/></svg>